<svg width="500" height="500">
<rect width="500" height="500" style="fill:rgb(255,255,255)" />
<line x1="433" y1="65" x2="292" y2="497" style="stroke:rgb(255,0,0);stroke-width:2" />
<line x1="472" y1="395" x2="281" y2="229" style="stroke:rgb(255,0,0);stroke-width:2" />
<line x1="471" y1="85" x2="427" y2="215" style="stroke:rgb(255,0,0);stroke-width:2" />
<line x1="342" y1="176" x2="315" y2="400" style="stroke:rgb(255,0,0);stroke-width:2" />
<line x1="446" y1="401" x2="313" y2="362" style="stroke:rgb(255,0,0);stroke-width:2" />
<line x1="250" y1="58" x2="471" y2="18" style="stroke:rgb(255,0,0);stroke-width:2" />
<line x1="255" y1="57" x2="281" y2="237" style="stroke:rgb(255,0,0);stroke-width:2" />
<line x1="400" y1="401" x2="265" y2="303" style="stroke:rgb(255,0,0);stroke-width:2" />
<line x1="426" y1="489" x2="431" y2="264" style="stroke:rgb(255,0,0);stroke-width:2" />
<line x1="288" y1="140" x2="413" y2="8" style="stroke:rgb(255,0,0);stroke-width:2" />
<line x1="500" y1="319" x2="284" y2="359" style="stroke:rgb(255,0,0);stroke-width:2" />
<line x1="276" y1="85" x2="466" y2="492" style="stroke:rgb(255,0,0);stroke-width:2" />
<line x1="285" y1="384" x2="400" y2="179" style="stroke:rgb(255,0,0);stroke-width:2" />
<line x1="260" y1="363" x2="267" y2="22" style="stroke:rgb(255,0,0);stroke-width:2" />
<line x1="295" y1="54" x2="428" y2="160" style="stroke:rgb(255,0,0);stroke-width:2" />
<line x1="325" y1="500" x2="299" y2="33" style="stroke:rgb(255,0,0);stroke-width:2" />
<line x1="343" y1="208" x2="401" y2="348" style="stroke:rgb(255,0,0);stroke-width:2" />
<line x1="430" y1="112" x2="408" y2="257" style="stroke:rgb(255,0,0);stroke-width:2" />
<line x1="408" y1="389" x2="264" y2="366" style="stroke:rgb(255,0,0);stroke-width:2" />
<line x1="424" y1="458" x2="424" y2="137" style="stroke:rgb(255,0,0);stroke-width:2" />
<line x1="432" y1="198" x2="257" y2="254" style="stroke:rgb(255,0,0);stroke-width:2" />
<line x1="259" y1="378" x2="380" y2="468" style="stroke:rgb(255,0,0);stroke-width:2" />
<line x1="352" y1="324" x2="426" y2="0" style="stroke:rgb(255,0,0);stroke-width:2" />
<line x1="394" y1="332" x2="437" y2="383" style="stroke:rgb(255,0,0);stroke-width:2" />
<line x1="475" y1="166" x2="342" y2="17" style="stroke:rgb(255,0,0);stroke-width:2" />
<line x1="354" y1="135" x2="316" y2="359" style="stroke:rgb(255,0,0);stroke-width:2" />
<line x1="67.0" y1="65" x2="208.0" y2="497" style="stroke:rgb(255,0,0);stroke-width:2" />
<line x1="28.0" y1="395" x2="219.0" y2="229" style="stroke:rgb(255,0,0);stroke-width:2" />
<line x1="29.0" y1="85" x2="73.0" y2="215" style="stroke:rgb(255,0,0);stroke-width:2" />
<line x1="158.0" y1="176" x2="185.0" y2="400" style="stroke:rgb(255,0,0);stroke-width:2" />
<line x1="54.0" y1="401" x2="187.0" y2="362" style="stroke:rgb(255,0,0);stroke-width:2" />
<line x1="250.0" y1="58" x2="29.0" y2="18" style="stroke:rgb(255,0,0);stroke-width:2" />
<line x1="245.0" y1="57" x2="219.0" y2="237" style="stroke:rgb(255,0,0);stroke-width:2" />
<line x1="100.0" y1="401" x2="235.0" y2="303" style="stroke:rgb(255,0,0);stroke-width:2" />
<line x1="74.0" y1="489" x2="69.0" y2="264" style="stroke:rgb(255,0,0);stroke-width:2" />
<line x1="212.0" y1="140" x2="87.0" y2="8" style="stroke:rgb(255,0,0);stroke-width:2" />
<line x1="0.0" y1="319" x2="216.0" y2="359" style="stroke:rgb(255,0,0);stroke-width:2" />
<line x1="224.0" y1="85" x2="34.0" y2="492" style="stroke:rgb(255,0,0);stroke-width:2" />
<line x1="215.0" y1="384" x2="100.0" y2="179" style="stroke:rgb(255,0,0);stroke-width:2" />
<line x1="240.0" y1="363" x2="233.0" y2="22" style="stroke:rgb(255,0,0);stroke-width:2" />
<line x1="205.0" y1="54" x2="72.0" y2="160" style="stroke:rgb(255,0,0);stroke-width:2" />
<line x1="175.0" y1="500" x2="201.0" y2="33" style="stroke:rgb(255,0,0);stroke-width:2" />
<line x1="157.0" y1="208" x2="99.0" y2="348" style="stroke:rgb(255,0,0);stroke-width:2" />
<line x1="70.0" y1="112" x2="92.0" y2="257" style="stroke:rgb(255,0,0);stroke-width:2" />
<line x1="92.0" y1="389" x2="236.0" y2="366" style="stroke:rgb(255,0,0);stroke-width:2" />
<line x1="76.0" y1="458" x2="76.0" y2="137" style="stroke:rgb(255,0,0);stroke-width:2" />
<line x1="68.0" y1="198" x2="243.0" y2="254" style="stroke:rgb(255,0,0);stroke-width:2" />
<line x1="241.0" y1="378" x2="120.0" y2="468" style="stroke:rgb(255,0,0);stroke-width:2" />
<line x1="148.0" y1="324" x2="74.0" y2="0" style="stroke:rgb(255,0,0);stroke-width:2" />
<line x1="106.0" y1="332" x2="63.0" y2="383" style="stroke:rgb(255,0,0);stroke-width:2" />
<line x1="25.0" y1="166" x2="158.0" y2="17" style="stroke:rgb(255,0,0);stroke-width:2" />
<line x1="146.0" y1="135" x2="184.0" y2="359" style="stroke:rgb(255,0,0);stroke-width:2" />
<line x1="433.0" y1="65.0" x2="292.0" y2="497.0" style="stroke:rgb(255,0,0);stroke-width:2" />
<line x1="510.2152954766495" y1="248.5857864376269" x2="105.04310985675778" y2="454.35385976291224" style="stroke:rgb(255,0,0);stroke-width:2" />
<line x1="435.0" y1="433.0" x2="3.0" y2="292.0" style="stroke:rgb(255,0,0);stroke-width:2" />
<line x1="251.4142135623731" y1="510.2152954766495" x2="45.646140237087764" y2="105.04310985675778" style="stroke:rgb(255,0,0);stroke-width:2" />
<line x1="67.00000000000003" y1="435.0" x2="207.99999999999997" y2="3.0" style="stroke:rgb(255,0,0);stroke-width:2" />
<line x1="-10.215295476649487" y1="251.41421356237313" x2="394.9568901432422" y2="45.64614023708771" style="stroke:rgb(255,0,0);stroke-width:2" />
<line x1="64.99999999999997" y1="67.00000000000003" x2="497.0" y2="207.99999999999994" style="stroke:rgb(255,0,0);stroke-width:2" />
<line x1="248.58578643762684" y1="-10.215295476649487" x2="454.3538597629123" y2="394.95689014324216" style="stroke:rgb(255,0,0);stroke-width:2" />
<line x1="472.0" y1="395.0" x2="281.0" y2="229.0" style="stroke:rgb(255,0,0);stroke-width:2" />
<line x1="304.4472221513642" y1="509.50818869546293" x2="286.7695526217005" y2="257.0710678118655" style="stroke:rgb(255,0,0);stroke-width:2" />
<line x1="105.0" y1="472.0" x2="271.0" y2="281.0" style="stroke:rgb(255,0,0);stroke-width:2" />
<line x1="-9.508188695462934" y1="304.4472221513642" x2="242.92893218813452" y2="286.7695526217005" style="stroke:rgb(255,0,0);stroke-width:2" />
<line x1="27.99999999999997" y1="105.00000000000003" x2="219.0" y2="271.0" style="stroke:rgb(255,0,0);stroke-width:2" />
<line x1="195.5527778486358" y1="-9.508188695462934" x2="213.23044737829952" y2="242.92893218813452" style="stroke:rgb(255,0,0);stroke-width:2" />
<line x1="395.0" y1="27.99999999999997" x2="229.0" y2="219.0" style="stroke:rgb(255,0,0);stroke-width:2" />
<line x1="509.50818869546293" y1="195.55277784863577" x2="257.0710678118655" y2="213.23044737829952" style="stroke:rgb(255,0,0);stroke-width:2" />
<line x1="471.0" y1="85.0" x2="427.0" y2="215.0" style="stroke:rgb(255,0,0);stroke-width:2" />
<line x1="522.9432175380073" y1="289.59797974644664" x2="399.90663761154804" y2="350.40916292848976" style="stroke:rgb(255,0,0);stroke-width:2" />
<line x1="415.0" y1="471.0" x2="285.0" y2="427.0" style="stroke:rgb(255,0,0);stroke-width:2" />
<line x1="210.40202025355336" y1="522.9432175380073" x2="149.59083707151026" y2="399.90663761154804" style="stroke:rgb(255,0,0);stroke-width:2" />
<line x1="29.00000000000003" y1="415.0" x2="73.0" y2="285.0" style="stroke:rgb(255,0,0);stroke-width:2" />
<line x1="-22.94321753800739" y1="210.4020202535534" x2="100.09336238845191" y2="149.59083707151026" style="stroke:rgb(255,0,0);stroke-width:2" />
<line x1="84.99999999999997" y1="29.00000000000003" x2="214.99999999999997" y2="73.0" style="stroke:rgb(255,0,0);stroke-width:2" />
<line x1="289.5979797464466" y1="-22.94321753800739" x2="350.4091629284897" y2="100.09336238845191" style="stroke:rgb(255,0,0);stroke-width:2" />
<line x1="342.0" y1="176.0" x2="315.0" y2="400.0" style="stroke:rgb(255,0,0);stroke-width:2" />
<line x1="367.37972567696687" y1="262.72792206135784" x2="189.8959235991435" y2="402.0279579551077" style="stroke:rgb(255,0,0);stroke-width:2" />
<line x1="324.0" y1="342.0" x2="100.0" y2="315.0" style="stroke:rgb(255,0,0);stroke-width:2" />
<line x1="237.27207793864216" y1="367.37972567696687" x2="97.97204204489228" y2="189.8959235991435" style="stroke:rgb(255,0,0);stroke-width:2" />
<line x1="158.0" y1="324.0" x2="185.0" y2="100.0" style="stroke:rgb(255,0,0);stroke-width:2" />
<line x1="132.6202743230331" y1="237.27207793864216" x2="310.1040764008565" y2="97.97204204489228" style="stroke:rgb(255,0,0);stroke-width:2" />
<line x1="176.0" y1="158.0" x2="400.0" y2="184.99999999999997" style="stroke:rgb(255,0,0);stroke-width:2" />
<line x1="262.72792206135784" y1="132.6202743230331" x2="402.0279579551077" y2="310.1040764008565" style="stroke:rgb(255,0,0);stroke-width:2" />
<line x1="446.0" y1="401.0" x2="313.0" y2="362.0" style="stroke:rgb(255,0,0);stroke-width:2" />
<line x1="281.81980515339467" y1="495.366053071732" x2="215.35176772185918" y2="373.7436867076458" style="stroke:rgb(255,0,0);stroke-width:2" />
<line x1="99.0" y1="446.0" x2="138.0" y2="313.0" style="stroke:rgb(255,0,0);stroke-width:2" />
<line x1="4.633946928268017" y1="281.81980515339467" x2="126.25631329235418" y2="215.35176772185918" style="stroke:rgb(255,0,0);stroke-width:2" />
<line x1="53.99999999999997" y1="99.00000000000003" x2="187.0" y2="138.0" style="stroke:rgb(255,0,0);stroke-width:2" />
<line x1="218.18019484660533" y1="4.633946928268017" x2="284.6482322781408" y2="126.25631329235418" style="stroke:rgb(255,0,0);stroke-width:2" />
<line x1="401.0" y1="53.99999999999997" x2="362.0" y2="186.99999999999997" style="stroke:rgb(255,0,0);stroke-width:2" />
<line x1="495.366053071732" y1="218.18019484660527" x2="373.7436867076458" y2="284.6482322781408" style="stroke:rgb(255,0,0);stroke-width:2" />
<line x1="250.0" y1="58.0" x2="471.0" y2="18.0" style="stroke:rgb(255,0,0);stroke-width:2" />
<line x1="385.7645019878171" y1="114.23549801218286" x2="570.319371877506" y2="242.22182540694794" style="stroke:rgb(255,0,0);stroke-width:2" />
<line x1="442.0" y1="250.0" x2="482.0" y2="471.0" style="stroke:rgb(255,0,0);stroke-width:2" />
<line x1="385.76450198781714" y1="385.7645019878171" x2="257.7781745930521" y2="570.319371877506" style="stroke:rgb(255,0,0);stroke-width:2" />
<line x1="250.00000000000003" y1="442.0" x2="29.00000000000003" y2="482.0" style="stroke:rgb(255,0,0);stroke-width:2" />
<line x1="114.23549801218289" y1="385.76450198781714" x2="-70.31937187750606" y2="257.7781745930521" style="stroke:rgb(255,0,0);stroke-width:2" />
<line x1="58.0" y1="250.00000000000003" x2="17.99999999999997" y2="29.00000000000003" style="stroke:rgb(255,0,0);stroke-width:2" />
<line x1="114.23549801218286" y1="114.23549801218292" x2="242.2218254069479" y2="-70.319371877506" style="stroke:rgb(255,0,0);stroke-width:2" />
<line x1="255.0" y1="57.0" x2="281.0" y2="237.0" style="stroke:rgb(255,0,0);stroke-width:2" />
<line x1="390.0071426749364" y1="117.06392513692904" x2="281.1126983722081" y2="262.72792206135784" style="stroke:rgb(255,0,0);stroke-width:2" />
<line x1="443.0" y1="255.0" x2="263.0" y2="281.0" style="stroke:rgb(255,0,0);stroke-width:2" />
<line x1="382.936074863071" y1="390.0071426749364" x2="237.27207793864216" y2="281.1126983722081" style="stroke:rgb(255,0,0);stroke-width:2" />
<line x1="245.00000000000003" y1="443.0" x2="219.0" y2="263.0" style="stroke:rgb(255,0,0);stroke-width:2" />
<line x1="109.9928573250636" y1="382.936074863071" x2="218.8873016277919" y2="237.27207793864216" style="stroke:rgb(255,0,0);stroke-width:2" />
<line x1="57.0" y1="245.00000000000003" x2="237.0" y2="219.0" style="stroke:rgb(255,0,0);stroke-width:2" />
<line x1="117.06392513692904" y1="109.99285732506362" x2="262.72792206135784" y2="218.8873016277919" style="stroke:rgb(255,0,0);stroke-width:2" />
<line x1="400.0" y1="401.0" x2="265.0" y2="303.0" style="stroke:rgb(255,0,0);stroke-width:2" />
<line x1="249.29289321881345" y1="462.8391411371508" x2="223.1299423149112" y2="298.0832611206852" style="stroke:rgb(255,0,0);stroke-width:2" />
<line x1="99.0" y1="400.0" x2="197.0" y2="265.0" style="stroke:rgb(255,0,0);stroke-width:2" />
<line x1="37.16085886284918" y1="249.29289321881345" x2="201.91673887931478" y2="223.1299423149112" style="stroke:rgb(255,0,0);stroke-width:2" />
<line x1="99.99999999999997" y1="99.00000000000003" x2="235.0" y2="197.0" style="stroke:rgb(255,0,0);stroke-width:2" />
<line x1="250.70710678118652" y1="37.16085886284918" x2="276.8700576850888" y2="201.91673887931475" style="stroke:rgb(255,0,0);stroke-width:2" />
<line x1="401.0" y1="99.99999999999997" x2="303.0" y2="235.0" style="stroke:rgb(255,0,0);stroke-width:2" />
<line x1="462.8391411371508" y1="250.7071067811865" x2="298.0832611206852" y2="276.8700576850888" style="stroke:rgb(255,0,0);stroke-width:2" />
<line x1="426.0" y1="489.0" x2="431.0" y2="264.0" style="stroke:rgb(255,0,0);stroke-width:2" />
<line x1="205.45227278524754" y1="543.4493141924172" x2="368.0868324581535" y2="387.88582233137674" style="stroke:rgb(255,0,0);stroke-width:2" />
<line x1="11.0" y1="426.0" x2="236.0" y2="431.0" style="stroke:rgb(255,0,0);stroke-width:2" />
<line x1="-43.449314192417205" y1="205.45227278524754" x2="112.11417766862326" y2="368.0868324581535" style="stroke:rgb(255,0,0);stroke-width:2" />
<line x1="73.99999999999997" y1="11.000000000000028" x2="69.0" y2="236.00000000000003" style="stroke:rgb(255,0,0);stroke-width:2" />
<line x1="294.54772721475246" y1="-43.449314192417205" x2="131.91316754184652" y2="112.11417766862326" style="stroke:rgb(255,0,0);stroke-width:2" />
<line x1="489.0" y1="73.99999999999994" x2="263.99999999999994" y2="69.0" style="stroke:rgb(255,0,0);stroke-width:2" />
<line x1="543.4493141924172" y1="294.54772721475246" x2="387.88582233137674" y2="131.91316754184652" style="stroke:rgb(255,0,0);stroke-width:2" />
<line x1="288.0" y1="140.0" x2="413.0" y2="8.0" style="stroke:rgb(255,0,0);stroke-width:2" />
<line x1="354.651803615609" y1="199.08831175456856" x2="536.3782463805517" y2="194.13856428626272" style="stroke:rgb(255,0,0);stroke-width:2" />
<line x1="360.0" y1="288.0" x2="492.0" y2="413.0" style="stroke:rgb(255,0,0);stroke-width:2" />
<line x1="300.91168824543144" y1="354.651803615609" x2="305.86143571373725" y2="536.3782463805517" style="stroke:rgb(255,0,0);stroke-width:2" />
<line x1="212.0" y1="360.0" x2="87.00000000000003" y2="492.0" style="stroke:rgb(255,0,0);stroke-width:2" />
<line x1="145.34819638439097" y1="300.91168824543144" x2="-36.378246380551786" y2="305.8614357137373" style="stroke:rgb(255,0,0);stroke-width:2" />
<line x1="140.0" y1="212.00000000000003" x2="7.999999999999972" y2="87.00000000000006" style="stroke:rgb(255,0,0);stroke-width:2" />
<line x1="199.08831175456856" y1="145.34819638439097" x2="194.1385642862627" y2="-36.37824638055173" style="stroke:rgb(255,0,0);stroke-width:2" />
<line x1="500.0" y1="319.0" x2="284.0" y2="359.0" style="stroke:rgb(255,0,0);stroke-width:2" />
<line x1="377.9863273947651" y1="475.56706319850866" x2="196.96699141100893" y2="351.1162697096763" style="stroke:rgb(255,0,0);stroke-width:2" />
<line x1="181.0" y1="500.0" x2="141.0" y2="284.0" style="stroke:rgb(255,0,0);stroke-width:2" />
<line x1="24.432936801491365" y1="377.9863273947651" x2="148.88373029032368" y2="196.96699141100893" style="stroke:rgb(255,0,0);stroke-width:2" />
<line x1="0.0" y1="181.00000000000003" x2="216.0" y2="141.0" style="stroke:rgb(255,0,0);stroke-width:2" />
<line x1="122.01367260523486" y1="24.432936801491337" x2="303.03300858899104" y2="148.88373029032368" style="stroke:rgb(255,0,0);stroke-width:2" />
<line x1="318.99999999999994" y1="0.0" x2="359.0" y2="215.99999999999997" style="stroke:rgb(255,0,0);stroke-width:2" />
<line x1="475.5670631985086" y1="122.01367260523486" x2="351.1162697096763" y2="303.03300858899104" style="stroke:rgb(255,0,0);stroke-width:2" />
<line x1="276.0" y1="85.0" x2="466.0" y2="492.0" style="stroke:rgb(255,0,0);stroke-width:2" />
<line x1="385.05739520663053" y1="151.7121574150699" x2="231.6152236891498" y2="573.8549057834388" style="stroke:rgb(255,0,0);stroke-width:2" />
<line x1="415.0" y1="276.0" x2="8.0" y2="466.0" style="stroke:rgb(255,0,0);stroke-width:2" />
<line x1="348.2878425849301" y1="385.05739520663053" x2="-73.85490578343877" y2="231.6152236891498" style="stroke:rgb(255,0,0);stroke-width:2" />
<line x1="224.00000000000003" y1="415.0" x2="33.99999999999997" y2="8.000000000000028" style="stroke:rgb(255,0,0);stroke-width:2" />
<line x1="114.94260479336944" y1="348.2878425849301" x2="268.38477631085016" y2="-73.85490578343877" style="stroke:rgb(255,0,0);stroke-width:2" />
<line x1="85.0" y1="224.00000000000003" x2="492.0" y2="33.99999999999994" style="stroke:rgb(255,0,0);stroke-width:2" />
<line x1="151.71215741506984" y1="114.94260479336944" x2="573.8549057834388" y2="268.38477631085016" style="stroke:rgb(255,0,0);stroke-width:2" />
<line x1="285.0" y1="384.0" x2="400.0" y2="179.0" style="stroke:rgb(255,0,0);stroke-width:2" />
<line x1="179.9964286625318" y1="369.50104602052653" x2="406.270598642227" y2="305.86143571373725" style="stroke:rgb(255,0,0);stroke-width:2" />
<line x1="116.0" y1="285.0" x2="321.0" y2="400.0" style="stroke:rgb(255,0,0);stroke-width:2" />
<line x1="130.49895397947347" y1="179.9964286625318" x2="194.13856428626275" y2="406.270598642227" style="stroke:rgb(255,0,0);stroke-width:2" />
<line x1="215.0" y1="116.0" x2="100.0" y2="321.0" style="stroke:rgb(255,0,0);stroke-width:2" />
<line x1="320.0035713374682" y1="130.49895397947344" x2="93.72940135777299" y2="194.13856428626278" style="stroke:rgb(255,0,0);stroke-width:2" />
<line x1="384.0" y1="214.99999999999997" x2="178.99999999999997" y2="100.0" style="stroke:rgb(255,0,0);stroke-width:2" />
<line x1="369.5010460205266" y1="320.0035713374682" x2="305.8614357137372" y2="93.72940135777299" style="stroke:rgb(255,0,0);stroke-width:2" />
<line x1="260.0" y1="363.0" x2="267.0" y2="22.0" style="stroke:rgb(255,0,0);stroke-width:2" />
<line x1="177.1680015377856" y1="336.97413408594537" x2="423.2411613907042" y2="100.80046916963846" style="stroke:rgb(255,0,0);stroke-width:2" />
<line x1="137.0" y1="260.0" x2="478.0" y2="267.0" style="stroke:rgb(255,0,0);stroke-width:2" />
<line x1="163.02586591405463" y1="177.1680015377856" x2="399.19953083036154" y2="423.2411613907042" style="stroke:rgb(255,0,0);stroke-width:2" />
<line x1="240.0" y1="137.0" x2="233.00000000000003" y2="478.0" style="stroke:rgb(255,0,0);stroke-width:2" />
<line x1="322.8319984622144" y1="163.02586591405463" x2="76.75883860929585" y2="399.19953083036154" style="stroke:rgb(255,0,0);stroke-width:2" />
<line x1="363.0" y1="239.99999999999997" x2="22.0" y2="233.00000000000006" style="stroke:rgb(255,0,0);stroke-width:2" />
<line x1="336.97413408594537" y1="322.83199846221436" x2="100.80046916963846" y2="76.75883860929588" style="stroke:rgb(255,0,0);stroke-width:2" />
<line x1="295.0" y1="54.0" x2="428.0" y2="160.0" style="stroke:rgb(255,0,0);stroke-width:2" />
<line x1="420.41273426595797" y1="143.2268760408313" x2="439.50461735799473" y2="312.2253967444162" style="stroke:rgb(255,0,0);stroke-width:2" />
<line x1="446.0" y1="295.0" x2="340.0" y2="428.0" style="stroke:rgb(255,0,0);stroke-width:2" />
<line x1="356.7731239591687" y1="420.41273426595797" x2="187.77460325558383" y2="439.50461735799473" style="stroke:rgb(255,0,0);stroke-width:2" />
<line x1="205.00000000000003" y1="446.0" x2="72.0" y2="340.0" style="stroke:rgb(255,0,0);stroke-width:2" />
<line x1="79.58726573404206" y1="356.77312395916874" x2="60.49538264200524" y2="187.77460325558383" style="stroke:rgb(255,0,0);stroke-width:2" />
<line x1="54.0" y1="205.00000000000003" x2="159.99999999999997" y2="72.00000000000003" style="stroke:rgb(255,0,0);stroke-width:2" />
<line x1="143.22687604083126" y1="79.58726573404209" x2="312.2253967444161" y2="60.49538264200527" style="stroke:rgb(255,0,0);stroke-width:2" />
<line x1="325.0" y1="500.0" x2="299.0" y2="33.0" style="stroke:rgb(255,0,0);stroke-width:2" />
<line x1="126.2563132923542" y1="479.809703885628" x2="438.0904037956216" y2="131.20606076066" style="stroke:rgb(255,0,0);stroke-width:2" />
<line x1="0.0" y1="325.0" x2="467.0" y2="299.0" style="stroke:rgb(255,0,0);stroke-width:2" />
<line x1="20.190296114372046" y1="126.2563132923542" x2="368.79393923934003" y2="438.0904037956216" style="stroke:rgb(255,0,0);stroke-width:2" />
<line x1="174.99999999999997" y1="0.0" x2="201.00000000000003" y2="467.0" style="stroke:rgb(255,0,0);stroke-width:2" />
<line x1="373.7436867076458" y1="20.190296114372018" x2="61.909596204378374" y2="368.79393923934003" style="stroke:rgb(255,0,0);stroke-width:2" />
<line x1="500.0" y1="174.99999999999994" x2="33.0" y2="201.00000000000006" style="stroke:rgb(255,0,0);stroke-width:2" />
<line x1="479.809703885628" y1="373.7436867076458" x2="131.20606076065997" y2="61.909596204378374" style="stroke:rgb(255,0,0);stroke-width:2" />
<line x1="343.0" y1="208.0" x2="401.0" y2="348.0" style="stroke:rgb(255,0,0);stroke-width:2" />
<line x1="345.4594154601839" y1="286.06244584051393" x2="287.47665940288704" y2="426.06958851545033" style="stroke:rgb(255,0,0);stroke-width:2" />
<line x1="292.0" y1="343.0" x2="152.0" y2="401.0" style="stroke:rgb(255,0,0);stroke-width:2" />
<line x1="213.93755415948607" y1="345.4594154601839" x2="73.93041148454967" y2="287.47665940288704" style="stroke:rgb(255,0,0);stroke-width:2" />
<line x1="157.0" y1="292.0" x2="99.0" y2="152.0" style="stroke:rgb(255,0,0);stroke-width:2" />
<line x1="154.54058453981605" y1="213.9375541594861" x2="212.52334059711296" y2="73.93041148454967" style="stroke:rgb(255,0,0);stroke-width:2" />
<line x1="208.0" y1="157.0" x2="348.0" y2="98.99999999999997" style="stroke:rgb(255,0,0);stroke-width:2" />
<line x1="286.0624458405139" y1="154.54058453981608" x2="426.06958851545033" y2="212.52334059711293" style="stroke:rgb(255,0,0);stroke-width:2" />
<line x1="430.0" y1="112.0" x2="408.0" y2="257.0" style="stroke:rgb(255,0,0);stroke-width:2" />
<line x1="474.8599564173221" y1="279.698484809835" x2="356.7731239591687" y2="366.6726188957803" style="stroke:rgb(255,0,0);stroke-width:2" />
<line x1="388.0" y1="430.0" x2="243.0" y2="408.0" style="stroke:rgb(255,0,0);stroke-width:2" />
<line x1="220.30151519016502" y1="474.8599564173221" x2="133.32738110421968" y2="356.7731239591687" style="stroke:rgb(255,0,0);stroke-width:2" />
<line x1="70.00000000000003" y1="388.0" x2="92.0" y2="243.00000000000003" style="stroke:rgb(255,0,0);stroke-width:2" />
<line x1="25.140043582677862" y1="220.30151519016505" x2="143.2268760408313" y2="133.32738110421968" style="stroke:rgb(255,0,0);stroke-width:2" />
<line x1="111.99999999999997" y1="70.00000000000003" x2="256.99999999999994" y2="92.0" style="stroke:rgb(255,0,0);stroke-width:2" />
<line x1="279.69848480983495" y1="25.14004358267789" x2="366.6726188957803" y2="143.2268760408313" style="stroke:rgb(255,0,0);stroke-width:2" />
<line x1="408.0" y1="389.0" x2="264.0" y2="366.0" style="stroke:rgb(255,0,0);stroke-width:2" />
<line x1="263.4350288425444" y1="460.0107140124046" x2="177.87510831897214" y2="341.9238815542512" style="stroke:rgb(255,0,0);stroke-width:2" />
<line x1="111.0" y1="408.0" x2="134.0" y2="264.0" style="stroke:rgb(255,0,0);stroke-width:2" />
<line x1="39.989285987595395" y1="263.4350288425444" x2="158.07611844574882" y2="177.87510831897214" style="stroke:rgb(255,0,0);stroke-width:2" />
<line x1="91.99999999999997" y1="111.00000000000003" x2="236.0" y2="134.0" style="stroke:rgb(255,0,0);stroke-width:2" />
<line x1="236.56497115745557" y1="39.989285987595366" x2="322.12489168102786" y2="158.07611844574882" style="stroke:rgb(255,0,0);stroke-width:2" />
<line x1="389.0" y1="91.99999999999997" x2="366.0" y2="235.99999999999997" style="stroke:rgb(255,0,0);stroke-width:2" />
<line x1="460.0107140124046" y1="236.56497115745555" x2="341.9238815542512" y2="322.12489168102786" style="stroke:rgb(255,0,0);stroke-width:2" />
<line x1="424.0" y1="458.0" x2="424.0" y2="137.0" style="stroke:rgb(255,0,0);stroke-width:2" />
<line x1="225.95836943965742" y1="520.1147904132612" x2="452.93964620053913" y2="293.1335136523794" style="stroke:rgb(255,0,0);stroke-width:2" />
<line x1="42.0" y1="424.0" x2="363.0" y2="424.0" style="stroke:rgb(255,0,0);stroke-width:2" />
<line x1="-20.114790413261176" y1="225.95836943965742" x2="206.86648634762062" y2="452.93964620053913" style="stroke:rgb(255,0,0);stroke-width:2" />
<line x1="75.99999999999997" y1="42.00000000000003" x2="76.0" y2="363.0" style="stroke:rgb(255,0,0);stroke-width:2" />
<line x1="274.0416305603426" y1="-20.114790413261176" x2="47.06035379946084" y2="206.86648634762065" style="stroke:rgb(255,0,0);stroke-width:2" />
<line x1="458.0" y1="75.99999999999997" x2="136.99999999999997" y2="76.00000000000003" style="stroke:rgb(255,0,0);stroke-width:2" />
<line x1="520.1147904132612" y1="274.0416305603426" x2="293.13351365237935" y2="47.06035379946087" style="stroke:rgb(255,0,0);stroke-width:2" />
<line x1="432.0" y1="198.0" x2="257.0" y2="254.0" style="stroke:rgb(255,0,0);stroke-width:2" />
<line x1="415.46298679765215" y1="341.9238815542511" x2="252.12132034355963" y2="257.77817459305203" style="stroke:rgb(255,0,0);stroke-width:2" />
<line x1="302.0" y1="432.0" x2="246.0" y2="257.0" style="stroke:rgb(255,0,0);stroke-width:2" />
<line x1="158.07611844574885" y1="415.46298679765215" x2="242.22182540694797" y2="252.12132034355963" style="stroke:rgb(255,0,0);stroke-width:2" />
<line x1="68.0" y1="302.0" x2="243.0" y2="246.0" style="stroke:rgb(255,0,0);stroke-width:2" />
<line x1="84.53701320234785" y1="158.07611844574885" x2="247.87867965644037" y2="242.22182540694797" style="stroke:rgb(255,0,0);stroke-width:2" />
<line x1="197.99999999999997" y1="68.0" x2="254.0" y2="243.0" style="stroke:rgb(255,0,0);stroke-width:2" />
<line x1="341.9238815542511" y1="84.53701320234788" x2="257.77817459305203" y2="247.87867965644037" style="stroke:rgb(255,0,0);stroke-width:2" />
<line x1="259.0" y1="378.0" x2="380.0" y2="468.0" style="stroke:rgb(255,0,0);stroke-width:2" />
<line x1="165.85429303880085" y1="346.873629022557" x2="187.77460325558383" y2="496.07315985291854" style="stroke:rgb(255,0,0);stroke-width:2" />
<line x1="122.0" y1="259.0" x2="32.0" y2="380.0" style="stroke:rgb(255,0,0);stroke-width:2" />
<line x1="153.126370977443" y1="165.85429303880085" x2="3.926840147081464" y2="187.77460325558383" style="stroke:rgb(255,0,0);stroke-width:2" />
<line x1="240.99999999999997" y1="122.0" x2="119.99999999999997" y2="32.00000000000003" style="stroke:rgb(255,0,0);stroke-width:2" />
<line x1="334.14570696119915" y1="153.12637097744297" x2="312.2253967444162" y2="3.926840147081464" style="stroke:rgb(255,0,0);stroke-width:2" />
<line x1="378.0" y1="240.99999999999997" x2="468.0" y2="119.99999999999997" style="stroke:rgb(255,0,0);stroke-width:2" />
<line x1="346.873629022557" y1="334.14570696119915" x2="496.07315985291854" y2="312.2253967444161" style="stroke:rgb(255,0,0);stroke-width:2" />
<line x1="352.0" y1="324.0" x2="426.0" y2="0.0" style="stroke:rgb(255,0,0);stroke-width:2" />
<line x1="269.7989898732233" y1="374.45079348883235" x2="551.2274887854692" y2="197.67409819219546" style="stroke:rgb(255,0,0);stroke-width:2" />
<line x1="176.0" y1="352.0" x2="500.0" y2="426.0" style="stroke:rgb(255,0,0);stroke-width:2" />
<line x1="125.54920651116763" y1="269.7989898732233" x2="302.32590180780454" y2="551.2274887854692" style="stroke:rgb(255,0,0);stroke-width:2" />
<line x1="148.0" y1="176.0" x2="74.00000000000003" y2="500.0" style="stroke:rgb(255,0,0);stroke-width:2" />
<line x1="230.20101012677665" y1="125.54920651116763" x2="-51.227488785469234" y2="302.3259018078046" style="stroke:rgb(255,0,0);stroke-width:2" />
<line x1="324.0" y1="148.0" x2="-2.842170943040401e-14" y2="74.00000000000006" style="stroke:rgb(255,0,0);stroke-width:2" />
<line x1="374.45079348883235" y1="230.20101012677665" x2="197.6740981921954" y2="-51.227488785469234" style="stroke:rgb(255,0,0);stroke-width:2" />
<line x1="394.0" y1="332.0" x2="437.0" y2="383.0" style="stroke:rgb(255,0,0);stroke-width:2" />
<line x1="293.84062043356596" y1="409.8061325481598" x2="288.1837661840736" y2="476.2741699796952" style="stroke:rgb(255,0,0);stroke-width:2" />
<line x1="168.0" y1="394.0" x2="117.0" y2="437.0" style="stroke:rgb(255,0,0);stroke-width:2" />
<line x1="90.19386745184025" y1="293.84062043356596" x2="23.725830020304784" y2="288.1837661840736" style="stroke:rgb(255,0,0);stroke-width:2" />
<line x1="106.0" y1="168.0" x2="62.99999999999997" y2="117.00000000000003" style="stroke:rgb(255,0,0);stroke-width:2" />
<line x1="206.159379566434" y1="90.19386745184025" x2="211.8162338159264" y2="23.725830020304784" style="stroke:rgb(255,0,0);stroke-width:2" />
<line x1="332.0" y1="105.99999999999997" x2="383.0" y2="62.99999999999997" style="stroke:rgb(255,0,0);stroke-width:2" />
<line x1="409.8061325481597" y1="206.159379566434" x2="476.2741699796952" y2="211.8162338159264" style="stroke:rgb(255,0,0);stroke-width:2" />
<line x1="475.0" y1="166.0" x2="342.0" y2="17.0" style="stroke:rgb(255,0,0);stroke-width:2" />
<line x1="468.4959953866432" y1="349.7020561473032" x2="479.8097038856279" y2="150.2979438526968" style="stroke:rgb(255,0,0);stroke-width:2" />
<line x1="334.0" y1="475.0" x2="483.0" y2="342.0" style="stroke:rgb(255,0,0);stroke-width:2" />
<line x1="150.29794385269682" y1="468.4959953866432" x2="349.7020561473032" y2="479.8097038856279" style="stroke:rgb(255,0,0);stroke-width:2" />
<line x1="25.0" y1="334.0" x2="158.00000000000003" y2="483.0" style="stroke:rgb(255,0,0);stroke-width:2" />
<line x1="31.504004613356784" y1="150.29794385269685" x2="20.190296114372046" y2="349.7020561473032" style="stroke:rgb(255,0,0);stroke-width:2" />
<line x1="165.99999999999994" y1="25.00000000000003" x2="16.99999999999997" y2="158.00000000000006" style="stroke:rgb(255,0,0);stroke-width:2" />
<line x1="349.70205614730315" y1="31.504004613356813" x2="150.29794385269676" y2="20.190296114372074" style="stroke:rgb(255,0,0);stroke-width:2" />
<line x1="354.0" y1="135.0" x2="316.0" y2="359.0" style="stroke:rgb(255,0,0);stroke-width:2" />
<line x1="404.8563850798539" y1="242.22182540694797" x2="219.59440840897847" y2="373.7436867076458" style="stroke:rgb(255,0,0);stroke-width:2" />
<line x1="365.0" y1="354.0" x2="141.0" y2="316.0" style="stroke:rgb(255,0,0);stroke-width:2" />
<line x1="257.77817459305203" y1="404.8563850798539" x2="126.25631329235418" y2="219.59440840897847" style="stroke:rgb(255,0,0);stroke-width:2" />
<line x1="146.0" y1="365.0" x2="184.0" y2="141.0" style="stroke:rgb(255,0,0);stroke-width:2" />
<line x1="95.14361492014609" y1="257.77817459305203" x2="280.40559159102156" y2="126.25631329235418" style="stroke:rgb(255,0,0);stroke-width:2" />
<line x1="135.0" y1="146.0" x2="359.0" y2="184.0" style="stroke:rgb(255,0,0);stroke-width:2" />
<line x1="242.22182540694794" y1="95.14361492014609" x2="373.7436867076458" y2="280.4055915910215" style="stroke:rgb(255,0,0);stroke-width:2" />
<line x1="67.0" y1="65.0" x2="208.0" y2="497.0" style="stroke:rgb(255,0,0);stroke-width:2" />
<line x1="251.41421356237305" y1="-10.215295476649487" x2="45.646140237087764" y2="394.9568901432423" style="stroke:rgb(255,0,0);stroke-width:2" />
<line x1="435.0" y1="67.0" x2="3.0" y2="208.0" style="stroke:rgb(255,0,0);stroke-width:2" />
<line x1="510.2152954766495" y1="251.41421356237305" x2="105.04310985675772" y2="45.646140237087764" style="stroke:rgb(255,0,0);stroke-width:2" />
<line x1="433.0" y1="435.0" x2="292.0" y2="3.0" style="stroke:rgb(255,0,0);stroke-width:2" />
<line x1="248.58578643762695" y1="510.21529547664954" x2="454.35385976291224" y2="105.04310985675772" style="stroke:rgb(255,0,0);stroke-width:2" />
<line x1="65.00000000000003" y1="433.0" x2="497.0" y2="291.99999999999994" style="stroke:rgb(255,0,0);stroke-width:2" />
<line x1="-10.215295476649487" y1="248.58578643762695" x2="394.9568901432423" y2="454.3538597629122" style="stroke:rgb(255,0,0);stroke-width:2" />
<line x1="28.0" y1="395.0" x2="219.0" y2="229.0" style="stroke:rgb(255,0,0);stroke-width:2" />
<line x1="-9.508188695462934" y1="195.55277784863586" x2="242.92893218813452" y2="213.23044737829952" style="stroke:rgb(255,0,0);stroke-width:2" />
<line x1="105.0" y1="28.0" x2="271.0" y2="219.0" style="stroke:rgb(255,0,0);stroke-width:2" />
<line x1="304.44722215136414" y1="-9.508188695462934" x2="286.7695526217005" y2="242.92893218813452" style="stroke:rgb(255,0,0);stroke-width:2" />
<line x1="472.0" y1="104.99999999999997" x2="281.0" y2="271.0" style="stroke:rgb(255,0,0);stroke-width:2" />
<line x1="509.508188695463" y1="304.44722215136414" x2="257.0710678118655" y2="286.7695526217005" style="stroke:rgb(255,0,0);stroke-width:2" />
<line x1="395.0" y1="472.0" x2="229.0" y2="281.0" style="stroke:rgb(255,0,0);stroke-width:2" />
<line x1="195.5527778486359" y1="509.508188695463" x2="213.23044737829952" y2="257.0710678118655" style="stroke:rgb(255,0,0);stroke-width:2" />
<line x1="29.0" y1="85.0" x2="73.0" y2="215.0" style="stroke:rgb(255,0,0);stroke-width:2" />
<line x1="210.4020202535533" y1="-22.94321753800733" x2="149.59083707151024" y2="100.09336238845194" style="stroke:rgb(255,0,0);stroke-width:2" />
<line x1="415.0" y1="29.0" x2="285.0" y2="73.0" style="stroke:rgb(255,0,0);stroke-width:2" />
<line x1="522.9432175380073" y1="210.4020202535533" x2="399.90663761154804" y2="149.59083707151024" style="stroke:rgb(255,0,0);stroke-width:2" />
<line x1="471.0" y1="415.0" x2="427.0" y2="285.0" style="stroke:rgb(255,0,0);stroke-width:2" />
<line x1="289.5979797464467" y1="522.9432175380074" x2="350.40916292848976" y2="399.90663761154804" style="stroke:rgb(255,0,0);stroke-width:2" />
<line x1="85.00000000000003" y1="471.0" x2="215.00000000000003" y2="427.0" style="stroke:rgb(255,0,0);stroke-width:2" />
<line x1="-22.94321753800733" y1="289.59797974644675" x2="100.09336238845194" y2="350.40916292848976" style="stroke:rgb(255,0,0);stroke-width:2" />
<line x1="158.0" y1="176.0" x2="185.0" y2="400.0" style="stroke:rgb(255,0,0);stroke-width:2" />
<line x1="237.27207793864216" y1="132.6202743230331" x2="97.9720420448923" y2="310.10407640085657" style="stroke:rgb(255,0,0);stroke-width:2" />
<line x1="324.0" y1="158.0" x2="100.0" y2="185.0" style="stroke:rgb(255,0,0);stroke-width:2" />
<line x1="367.3797256769669" y1="237.27207793864216" x2="189.89592359914346" y2="97.9720420448923" style="stroke:rgb(255,0,0);stroke-width:2" />
<line x1="342.0" y1="324.0" x2="315.0" y2="100.0" style="stroke:rgb(255,0,0);stroke-width:2" />
<line x1="262.72792206135784" y1="367.3797256769669" x2="402.0279579551077" y2="189.89592359914343" style="stroke:rgb(255,0,0);stroke-width:2" />
<line x1="176.0" y1="342.0" x2="400.0" y2="315.0" style="stroke:rgb(255,0,0);stroke-width:2" />
<line x1="132.62027432303313" y1="262.7279220613579" x2="310.10407640085657" y2="402.0279579551077" style="stroke:rgb(255,0,0);stroke-width:2" />
<line x1="54.0" y1="401.0" x2="187.0" y2="362.0" style="stroke:rgb(255,0,0);stroke-width:2" />
<line x1="4.633946928268017" y1="218.1801948466054" x2="126.25631329235419" y2="284.6482322781408" style="stroke:rgb(255,0,0);stroke-width:2" />
<line x1="99.0" y1="54.0" x2="138.0" y2="187.0" style="stroke:rgb(255,0,0);stroke-width:2" />
<line x1="281.8198051533946" y1="4.633946928268017" x2="215.35176772185918" y2="126.25631329235419" style="stroke:rgb(255,0,0);stroke-width:2" />
<line x1="446.0" y1="98.99999999999997" x2="313.0" y2="138.0" style="stroke:rgb(255,0,0);stroke-width:2" />
<line x1="495.36605307173204" y1="281.8198051533946" x2="373.7436867076458" y2="215.35176772185915" style="stroke:rgb(255,0,0);stroke-width:2" />
<line x1="401.0" y1="446.0" x2="362.0" y2="313.0" style="stroke:rgb(255,0,0);stroke-width:2" />
<line x1="218.18019484660545" y1="495.366053071732" x2="284.6482322781409" y2="373.7436867076458" style="stroke:rgb(255,0,0);stroke-width:2" />
<line x1="250.0" y1="58.0" x2="29.0" y2="18.0" style="stroke:rgb(255,0,0);stroke-width:2" />
<line x1="385.7645019878171" y1="114.23549801218286" x2="257.778174593052" y2="-70.319371877506" style="stroke:rgb(255,0,0);stroke-width:2" />
<line x1="442.0" y1="250.0" x2="482.0" y2="29.0" style="stroke:rgb(255,0,0);stroke-width:2" />
<line x1="385.76450198781714" y1="385.7645019878171" x2="570.319371877506" y2="257.778174593052" style="stroke:rgb(255,0,0);stroke-width:2" />
<line x1="250.00000000000003" y1="442.0" x2="471.0" y2="482.0" style="stroke:rgb(255,0,0);stroke-width:2" />
<line x1="114.23549801218289" y1="385.76450198781714" x2="242.22182540694803" y2="570.319371877506" style="stroke:rgb(255,0,0);stroke-width:2" />
<line x1="58.0" y1="250.00000000000003" x2="18.00000000000003" y2="471.0" style="stroke:rgb(255,0,0);stroke-width:2" />
<line x1="114.23549801218286" y1="114.23549801218292" x2="-70.319371877506" y2="242.22182540694806" style="stroke:rgb(255,0,0);stroke-width:2" />
<line x1="245.0" y1="57.0" x2="219.0" y2="237.0" style="stroke:rgb(255,0,0);stroke-width:2" />
<line x1="382.9360748630709" y1="109.99285732506357" x2="237.27207793864216" y2="218.8873016277919" style="stroke:rgb(255,0,0);stroke-width:2" />
<line x1="443.0" y1="245.0" x2="263.0" y2="219.0" style="stroke:rgb(255,0,0);stroke-width:2" />
<line x1="390.0071426749364" y1="382.9360748630709" x2="281.1126983722081" y2="237.27207793864216" style="stroke:rgb(255,0,0);stroke-width:2" />
<line x1="255.00000000000003" y1="443.0" x2="281.0" y2="263.0" style="stroke:rgb(255,0,0);stroke-width:2" />
<line x1="117.06392513692907" y1="390.0071426749364" x2="262.72792206135784" y2="281.1126983722081" style="stroke:rgb(255,0,0);stroke-width:2" />
<line x1="57.0" y1="255.00000000000003" x2="237.0" y2="281.0" style="stroke:rgb(255,0,0);stroke-width:2" />
<line x1="109.99285732506357" y1="117.0639251369291" x2="218.8873016277919" y2="262.72792206135784" style="stroke:rgb(255,0,0);stroke-width:2" />
<line x1="100.0" y1="401.0" x2="235.0" y2="303.0" style="stroke:rgb(255,0,0);stroke-width:2" />
<line x1="37.16085886284918" y1="250.70710678118655" x2="201.91673887931478" y2="276.8700576850888" style="stroke:rgb(255,0,0);stroke-width:2" />
<line x1="99.0" y1="100.0" x2="197.0" y2="235.0" style="stroke:rgb(255,0,0);stroke-width:2" />
<line x1="249.29289321881345" y1="37.16085886284918" x2="223.1299423149112" y2="201.91673887931478" style="stroke:rgb(255,0,0);stroke-width:2" />
<line x1="400.0" y1="98.99999999999997" x2="265.0" y2="197.0" style="stroke:rgb(255,0,0);stroke-width:2" />
<line x1="462.8391411371508" y1="249.29289321881342" x2="298.0832611206852" y2="223.12994231491118" style="stroke:rgb(255,0,0);stroke-width:2" />
<line x1="401.0" y1="400.0" x2="303.0" y2="265.0" style="stroke:rgb(255,0,0);stroke-width:2" />
<line x1="250.7071067811866" y1="462.8391411371508" x2="276.8700576850888" y2="298.0832611206852" style="stroke:rgb(255,0,0);stroke-width:2" />
<line x1="74.0" y1="489.0" x2="69.0" y2="264.0" style="stroke:rgb(255,0,0);stroke-width:2" />
<line x1="-43.449314192417205" y1="294.5477272147525" x2="112.11417766862323" y2="131.91316754184658" style="stroke:rgb(255,0,0);stroke-width:2" />
<line x1="11.0" y1="74.00000000000003" x2="236.0" y2="69.0" style="stroke:rgb(255,0,0);stroke-width:2" />
<line x1="205.4522727852475" y1="-43.449314192417205" x2="368.0868324581534" y2="112.11417766862323" style="stroke:rgb(255,0,0);stroke-width:2" />
<line x1="426.0" y1="10.999999999999972" x2="431.0" y2="235.99999999999997" style="stroke:rgb(255,0,0);stroke-width:2" />
<line x1="543.4493141924172" y1="205.45227278524746" x2="387.8858223313768" y2="368.0868324581534" style="stroke:rgb(255,0,0);stroke-width:2" />
<line x1="489.0" y1="425.99999999999994" x2="264.00000000000006" y2="431.0" style="stroke:rgb(255,0,0);stroke-width:2" />
<line x1="294.54772721475257" y1="543.4493141924172" x2="131.9131675418466" y2="387.8858223313768" style="stroke:rgb(255,0,0);stroke-width:2" />
<line x1="212.0" y1="140.0" x2="87.0" y2="8.0" style="stroke:rgb(255,0,0);stroke-width:2" />
<line x1="300.9116882454314" y1="145.34819638439097" x2="305.86143571373725" y2="-36.378246380551786" style="stroke:rgb(255,0,0);stroke-width:2" />
<line x1="360.0" y1="212.0" x2="492.0" y2="86.99999999999997" style="stroke:rgb(255,0,0);stroke-width:2" />
<line x1="354.651803615609" y1="300.9116882454314" x2="536.3782463805518" y2="305.86143571373725" style="stroke:rgb(255,0,0);stroke-width:2" />
<line x1="288.0" y1="360.0" x2="413.0" y2="492.0" style="stroke:rgb(255,0,0);stroke-width:2" />
<line x1="199.0883117545686" y1="354.6518036156091" x2="194.13856428626278" y2="536.3782463805518" style="stroke:rgb(255,0,0);stroke-width:2" />
<line x1="140.0" y1="288.0" x2="8.000000000000028" y2="413.00000000000006" style="stroke:rgb(255,0,0);stroke-width:2" />
<line x1="145.34819638439097" y1="199.08831175456862" x2="-36.378246380551786" y2="194.1385642862628" style="stroke:rgb(255,0,0);stroke-width:2" />
<line x1="0.0" y1="319.0" x2="216.0" y2="359.0" style="stroke:rgb(255,0,0);stroke-width:2" />
<line x1="24.432936801491337" y1="122.01367260523492" x2="148.8837302903237" y2="303.0330085889911" style="stroke:rgb(255,0,0);stroke-width:2" />
<line x1="181.0" y1="0.0" x2="141.0" y2="216.0" style="stroke:rgb(255,0,0);stroke-width:2" />
<line x1="377.9863273947651" y1="24.432936801491337" x2="196.9669914110089" y2="148.8837302903237" style="stroke:rgb(255,0,0);stroke-width:2" />
<line x1="500.0" y1="180.99999999999997" x2="284.0" y2="141.0" style="stroke:rgb(255,0,0);stroke-width:2" />
<line x1="475.56706319850866" y1="377.98632739476506" x2="351.1162697096763" y2="196.9669914110089" style="stroke:rgb(255,0,0);stroke-width:2" />
<line x1="319.00000000000006" y1="500.0" x2="359.0" y2="284.0" style="stroke:rgb(255,0,0);stroke-width:2" />
<line x1="122.01367260523496" y1="475.56706319850866" x2="303.0330085889911" y2="351.1162697096763" style="stroke:rgb(255,0,0);stroke-width:2" />
<line x1="224.0" y1="85.0" x2="34.0" y2="492.0" style="stroke:rgb(255,0,0);stroke-width:2" />
<line x1="348.2878425849301" y1="114.94260479336941" x2="-73.85490578343877" y2="268.38477631085027" style="stroke:rgb(255,0,0);stroke-width:2" />
<line x1="415.0" y1="224.0" x2="8.0" y2="34.00000000000003" style="stroke:rgb(255,0,0);stroke-width:2" />
<line x1="385.0573952066306" y1="348.2878425849301" x2="231.61522368914973" y2="-73.85490578343877" style="stroke:rgb(255,0,0);stroke-width:2" />
<line x1="276.0" y1="415.0" x2="466.0" y2="7.999999999999972" style="stroke:rgb(255,0,0);stroke-width:2" />
<line x1="151.7121574150699" y1="385.05739520663064" x2="573.8549057834388" y2="231.6152236891497" style="stroke:rgb(255,0,0);stroke-width:2" />
<line x1="85.0" y1="276.00000000000006" x2="492.0" y2="465.99999999999994" style="stroke:rgb(255,0,0);stroke-width:2" />
<line x1="114.94260479336938" y1="151.71215741506992" x2="268.3847763108503" y2="573.8549057834388" style="stroke:rgb(255,0,0);stroke-width:2" />
<line x1="215.0" y1="384.0" x2="100.0" y2="179.0" style="stroke:rgb(255,0,0);stroke-width:2" />
<line x1="130.49895397947347" y1="320.0035713374682" x2="194.13856428626275" y2="93.72940135777301" style="stroke:rgb(255,0,0);stroke-width:2" />
<line x1="116.0" y1="215.0" x2="321.0" y2="100.0" style="stroke:rgb(255,0,0);stroke-width:2" />
<line x1="179.9964286625318" y1="130.49895397947347" x2="406.270598642227" y2="194.13856428626275" style="stroke:rgb(255,0,0);stroke-width:2" />
<line x1="285.0" y1="116.0" x2="400.0" y2="321.0" style="stroke:rgb(255,0,0);stroke-width:2" />
<line x1="369.50104602052653" y1="179.99642866253177" x2="305.86143571373725" y2="406.270598642227" style="stroke:rgb(255,0,0);stroke-width:2" />
<line x1="384.0" y1="285.0" x2="179.00000000000003" y2="400.0" style="stroke:rgb(255,0,0);stroke-width:2" />
<line x1="320.0035713374682" y1="369.50104602052653" x2="93.72940135777301" y2="305.8614357137373" style="stroke:rgb(255,0,0);stroke-width:2" />
<line x1="240.0" y1="363.0" x2="233.0" y2="22.0" style="stroke:rgb(255,0,0);stroke-width:2" />
<line x1="163.02586591405466" y1="322.8319984622144" x2="399.1995308303615" y2="76.75883860929582" style="stroke:rgb(255,0,0);stroke-width:2" />
<line x1="137.0" y1="240.0" x2="478.0" y2="233.0" style="stroke:rgb(255,0,0);stroke-width:2" />
<line x1="177.16800153778559" y1="163.02586591405466" x2="423.2411613907042" y2="399.1995308303615" style="stroke:rgb(255,0,0);stroke-width:2" />
<line x1="260.0" y1="137.0" x2="267.0" y2="478.0" style="stroke:rgb(255,0,0);stroke-width:2" />
<line x1="336.97413408594537" y1="177.16800153778559" x2="100.80046916963849" y2="423.2411613907042" style="stroke:rgb(255,0,0);stroke-width:2" />
<line x1="363.0" y1="260.0" x2="22.0" y2="267.00000000000006" style="stroke:rgb(255,0,0);stroke-width:2" />
<line x1="322.8319984622144" y1="336.9741340859453" x2="76.75883860929582" y2="100.80046916963852" style="stroke:rgb(255,0,0);stroke-width:2" />
<line x1="205.0" y1="54.0" x2="72.0" y2="160.0" style="stroke:rgb(255,0,0);stroke-width:2" />
<line x1="356.77312395916863" y1="79.58726573404203" x2="187.7746032555838" y2="60.49538264200527" style="stroke:rgb(255,0,0);stroke-width:2" />
<line x1="446.0" y1="205.0" x2="340.0" y2="72.0" style="stroke:rgb(255,0,0);stroke-width:2" />
<line x1="420.41273426595797" y1="356.77312395916863" x2="439.50461735799473" y2="187.7746032555838" style="stroke:rgb(255,0,0);stroke-width:2" />
<line x1="295.0" y1="446.0" x2="428.0" y2="340.0" style="stroke:rgb(255,0,0);stroke-width:2" />
<line x1="143.22687604083134" y1="420.41273426595797" x2="312.22539674441623" y2="439.50461735799473" style="stroke:rgb(255,0,0);stroke-width:2" />
<line x1="54.0" y1="295.00000000000006" x2="160.00000000000003" y2="428.0" style="stroke:rgb(255,0,0);stroke-width:2" />
<line x1="79.587265734042" y1="143.22687604083137" x2="60.49538264200527" y2="312.22539674441623" style="stroke:rgb(255,0,0);stroke-width:2" />
<line x1="175.0" y1="500.0" x2="201.0" y2="33.0" style="stroke:rgb(255,0,0);stroke-width:2" />
<line x1="20.190296114372074" y1="373.7436867076458" x2="368.79393923934" y2="61.909596204378346" style="stroke:rgb(255,0,0);stroke-width:2" />
<line x1="0.0" y1="175.0" x2="467.0" y2="201.0" style="stroke:rgb(255,0,0);stroke-width:2" />
<line x1="126.25631329235418" y1="20.190296114372074" x2="438.0904037956217" y2="368.79393923934" style="stroke:rgb(255,0,0);stroke-width:2" />
<line x1="325.0" y1="0.0" x2="299.0" y2="467.0" style="stroke:rgb(255,0,0);stroke-width:2" />
<line x1="479.8097038856279" y1="126.25631329235415" x2="131.20606076066002" y2="438.0904037956217" style="stroke:rgb(255,0,0);stroke-width:2" />
<line x1="500.0" y1="324.99999999999994" x2="33.0" y2="299.00000000000006" style="stroke:rgb(255,0,0);stroke-width:2" />
<line x1="373.74368670764585" y1="479.80970388562787" x2="61.90959620437832" y2="131.20606076066008" style="stroke:rgb(255,0,0);stroke-width:2" />
<line x1="157.0" y1="208.0" x2="99.0" y2="348.0" style="stroke:rgb(255,0,0);stroke-width:2" />
<line x1="213.93755415948607" y1="154.5405845398161" x2="73.93041148454967" y2="212.523340597113" style="stroke:rgb(255,0,0);stroke-width:2" />
<line x1="292.0" y1="157.0" x2="152.0" y2="99.0" style="stroke:rgb(255,0,0);stroke-width:2" />
<line x1="345.4594154601839" y1="213.93755415948607" x2="287.476659402887" y2="73.93041148454967" style="stroke:rgb(255,0,0);stroke-width:2" />
<line x1="343.0" y1="292.0" x2="401.0" y2="152.0" style="stroke:rgb(255,0,0);stroke-width:2" />
<line x1="286.06244584051393" y1="345.4594154601839" x2="426.06958851545033" y2="287.476659402887" style="stroke:rgb(255,0,0);stroke-width:2" />
<line x1="208.0" y1="343.0" x2="348.0" y2="401.0" style="stroke:rgb(255,0,0);stroke-width:2" />
<line x1="154.5405845398161" y1="286.06244584051393" x2="212.52334059711302" y2="426.06958851545033" style="stroke:rgb(255,0,0);stroke-width:2" />
<line x1="70.0" y1="112.0" x2="92.0" y2="257.0" style="stroke:rgb(255,0,0);stroke-width:2" />
<line x1="220.301515190165" y1="25.14004358267789" x2="133.32738110421965" y2="143.2268760408313" style="stroke:rgb(255,0,0);stroke-width:2" />
<line x1="388.0" y1="70.0" x2="243.0" y2="92.0" style="stroke:rgb(255,0,0);stroke-width:2" />
<line x1="474.8599564173221" y1="220.301515190165" x2="356.7731239591687" y2="133.32738110421965" style="stroke:rgb(255,0,0);stroke-width:2" />
<line x1="430.0" y1="388.0" x2="408.0" y2="242.99999999999997" style="stroke:rgb(255,0,0);stroke-width:2" />
<line x1="279.698484809835" y1="474.8599564173221" x2="366.6726188957804" y2="356.7731239591687" style="stroke:rgb(255,0,0);stroke-width:2" />
<line x1="112.00000000000003" y1="430.0" x2="257.00000000000006" y2="408.0" style="stroke:rgb(255,0,0);stroke-width:2" />
<line x1="25.14004358267789" y1="279.69848480983507" x2="143.22687604083134" y2="366.6726188957804" style="stroke:rgb(255,0,0);stroke-width:2" />
<line x1="92.0" y1="389.0" x2="236.0" y2="366.0" style="stroke:rgb(255,0,0);stroke-width:2" />
<line x1="39.989285987595395" y1="236.5649711574556" x2="158.07611844574882" y2="322.12489168102786" style="stroke:rgb(255,0,0);stroke-width:2" />
<line x1="111.0" y1="92.0" x2="134.0" y2="236.0" style="stroke:rgb(255,0,0);stroke-width:2" />
<line x1="263.4350288425444" y1="39.989285987595395" x2="177.87510831897214" y2="158.07611844574882" style="stroke:rgb(255,0,0);stroke-width:2" />
<line x1="408.0" y1="110.99999999999997" x2="264.0" y2="134.0" style="stroke:rgb(255,0,0);stroke-width:2" />
<line x1="460.0107140124046" y1="263.4350288425444" x2="341.9238815542512" y2="177.87510831897214" style="stroke:rgb(255,0,0);stroke-width:2" />
<line x1="389.0" y1="408.0" x2="366.0" y2="264.0" style="stroke:rgb(255,0,0);stroke-width:2" />
<line x1="236.56497115745566" y1="460.0107140124046" x2="322.12489168102786" y2="341.9238815542511" style="stroke:rgb(255,0,0);stroke-width:2" />
<line x1="76.0" y1="458.0" x2="76.0" y2="137.0" style="stroke:rgb(255,0,0);stroke-width:2" />
<line x1="-20.114790413261176" y1="274.04163056034264" x2="206.8664863476206" y2="47.06035379946087" style="stroke:rgb(255,0,0);stroke-width:2" />
<line x1="42.0" y1="76.0" x2="363.0" y2="76.0" style="stroke:rgb(255,0,0);stroke-width:2" />
<line x1="225.95836943965736" y1="-20.114790413261176" x2="452.93964620053913" y2="206.8664863476206" style="stroke:rgb(255,0,0);stroke-width:2" />
<line x1="424.0" y1="41.99999999999997" x2="424.0" y2="363.0" style="stroke:rgb(255,0,0);stroke-width:2" />
<line x1="520.1147904132612" y1="225.95836943965736" x2="293.1335136523794" y2="452.93964620053913" style="stroke:rgb(255,0,0);stroke-width:2" />
<line x1="458.0" y1="424.0" x2="137.00000000000003" y2="424.0" style="stroke:rgb(255,0,0);stroke-width:2" />
<line x1="274.0416305603427" y1="520.1147904132612" x2="47.06035379946087" y2="293.13351365237946" style="stroke:rgb(255,0,0);stroke-width:2" />
<line x1="68.0" y1="198.0" x2="243.0" y2="254.0" style="stroke:rgb(255,0,0);stroke-width:2" />
<line x1="158.07611844574882" y1="84.53701320234788" x2="242.22182540694797" y2="247.87867965644037" style="stroke:rgb(255,0,0);stroke-width:2" />
<line x1="302.0" y1="68.0" x2="246.0" y2="243.0" style="stroke:rgb(255,0,0);stroke-width:2" />
<line x1="415.4629867976521" y1="158.07611844574882" x2="252.12132034355963" y2="242.22182540694797" style="stroke:rgb(255,0,0);stroke-width:2" />
<line x1="432.0" y1="302.0" x2="257.0" y2="246.0" style="stroke:rgb(255,0,0);stroke-width:2" />
<line x1="341.9238815542512" y1="415.4629867976521" x2="257.77817459305203" y2="252.12132034355963" style="stroke:rgb(255,0,0);stroke-width:2" />
<line x1="198.00000000000003" y1="432.0" x2="254.0" y2="257.0" style="stroke:rgb(255,0,0);stroke-width:2" />
<line x1="84.53701320234791" y1="341.92388155425124" x2="247.87867965644037" y2="257.77817459305203" style="stroke:rgb(255,0,0);stroke-width:2" />
<line x1="241.0" y1="378.0" x2="120.0" y2="468.0" style="stroke:rgb(255,0,0);stroke-width:2" />
<line x1="153.126370977443" y1="334.14570696119915" x2="3.926840147081464" y2="312.22539674441623" style="stroke:rgb(255,0,0);stroke-width:2" />
<line x1="122.0" y1="241.0" x2="32.0" y2="120.0" style="stroke:rgb(255,0,0);stroke-width:2" />
<line x1="165.85429303880085" y1="153.126370977443" x2="187.77460325558377" y2="3.926840147081464" style="stroke:rgb(255,0,0);stroke-width:2" />
<line x1="259.0" y1="122.0" x2="380.0" y2="31.99999999999997" style="stroke:rgb(255,0,0);stroke-width:2" />
<line x1="346.873629022557" y1="165.85429303880082" x2="496.07315985291854" y2="187.77460325558377" style="stroke:rgb(255,0,0);stroke-width:2" />
<line x1="378.0" y1="259.0" x2="468.0" y2="380.0" style="stroke:rgb(255,0,0);stroke-width:2" />
<line x1="334.14570696119915" y1="346.873629022557" x2="312.22539674441623" y2="496.07315985291854" style="stroke:rgb(255,0,0);stroke-width:2" />
<line x1="148.0" y1="324.0" x2="74.0" y2="0.0" style="stroke:rgb(255,0,0);stroke-width:2" />
<line x1="125.54920651116764" y1="230.20101012677668" x2="302.3259018078045" y2="-51.227488785469234" style="stroke:rgb(255,0,0);stroke-width:2" />
<line x1="176.0" y1="148.0" x2="500.0" y2="73.99999999999997" style="stroke:rgb(255,0,0);stroke-width:2" />
<line x1="269.7989898732233" y1="125.54920651116764" x2="551.2274887854692" y2="302.3259018078045" style="stroke:rgb(255,0,0);stroke-width:2" />
<line x1="352.0" y1="176.0" x2="426.0" y2="500.0" style="stroke:rgb(255,0,0);stroke-width:2" />
<line x1="374.45079348883235" y1="269.7989898732233" x2="197.67409819219552" y2="551.2274887854693" style="stroke:rgb(255,0,0);stroke-width:2" />
<line x1="324.0" y1="352.0" x2="2.842170943040401e-14" y2="426.00000000000006" style="stroke:rgb(255,0,0);stroke-width:2" />
<line x1="230.20101012677668" y1="374.45079348883235" x2="-51.227488785469234" y2="197.67409819219557" style="stroke:rgb(255,0,0);stroke-width:2" />
<line x1="106.0" y1="332.0" x2="63.0" y2="383.0" style="stroke:rgb(255,0,0);stroke-width:2" />
<line x1="90.19386745184025" y1="206.15937956643407" x2="23.725830020304784" y2="211.81623381592647" style="stroke:rgb(255,0,0);stroke-width:2" />
<line x1="168.0" y1="106.0" x2="117.0" y2="63.0" style="stroke:rgb(255,0,0);stroke-width:2" />
<line x1="293.84062043356596" y1="90.19386745184025" x2="288.18376618407353" y2="23.725830020304784" style="stroke:rgb(255,0,0);stroke-width:2" />
<line x1="394.0" y1="168.0" x2="437.0" y2="116.99999999999997" style="stroke:rgb(255,0,0);stroke-width:2" />
<line x1="409.8061325481598" y1="293.84062043356596" x2="476.2741699796952" y2="288.18376618407353" style="stroke:rgb(255,0,0);stroke-width:2" />
<line x1="332.0" y1="394.0" x2="383.0" y2="437.0" style="stroke:rgb(255,0,0);stroke-width:2" />
<line x1="206.1593795664341" y1="409.8061325481598" x2="211.8162338159265" y2="476.2741699796952" style="stroke:rgb(255,0,0);stroke-width:2" />
<line x1="25.0" y1="166.0" x2="158.0" y2="17.0" style="stroke:rgb(255,0,0);stroke-width:2" />
<line x1="150.2979438526968" y1="31.50400461335684" x2="349.7020561473032" y2="20.190296114372018" style="stroke:rgb(255,0,0);stroke-width:2" />
<line x1="334.0" y1="25.0" x2="483.0" y2="158.0" style="stroke:rgb(255,0,0);stroke-width:2" />
<line x1="468.49599538664313" y1="150.2979438526968" x2="479.809703885628" y2="349.7020561473032" style="stroke:rgb(255,0,0);stroke-width:2" />
<line x1="475.0" y1="334.0" x2="342.0" y2="483.0" style="stroke:rgb(255,0,0);stroke-width:2" />
<line x1="349.7020561473032" y1="468.4959953866432" x2="150.29794385269682" y2="479.809703885628" style="stroke:rgb(255,0,0);stroke-width:2" />
<line x1="166.00000000000006" y1="475.0" x2="17.00000000000003" y2="342.00000000000006" style="stroke:rgb(255,0,0);stroke-width:2" />
<line x1="31.50400461335687" y1="349.70205614730327" x2="20.190296114372046" y2="150.29794385269685" style="stroke:rgb(255,0,0);stroke-width:2" />
<line x1="146.0" y1="135.0" x2="184.0" y2="359.0" style="stroke:rgb(255,0,0);stroke-width:2" />
<line x1="257.778174593052" y1="95.14361492014609" x2="126.25631329235418" y2="280.40559159102156" style="stroke:rgb(255,0,0);stroke-width:2" />
<line x1="365.0" y1="146.0" x2="141.0" y2="184.0" style="stroke:rgb(255,0,0);stroke-width:2" />
<line x1="404.8563850798539" y1="257.778174593052" x2="219.59440840897844" y2="126.25631329235418" style="stroke:rgb(255,0,0);stroke-width:2" />
<line x1="354.0" y1="365.0" x2="316.0" y2="141.0" style="stroke:rgb(255,0,0);stroke-width:2" />
<line x1="242.221825406948" y1="404.8563850798539" x2="373.7436867076458" y2="219.59440840897844" style="stroke:rgb(255,0,0);stroke-width:2" />
<line x1="135.0" y1="354.0" x2="359.0" y2="316.0" style="stroke:rgb(255,0,0);stroke-width:2" />
<line x1="95.14361492014609" y1="242.22182540694803" x2="280.40559159102156" y2="373.7436867076458" style="stroke:rgb(255,0,0);stroke-width:2" />
</svg>
