<svg width="500" height="500">
<rect width="500" height="500" style="fill:rgb(255,255,255)" />
<line x1="333.0" y1="274.1937172774869" x2="281.0" y2="229.0" style="stroke:rgb(255,0,0);stroke-width:2" />
<line x1="292.0867047357155" y1="333.0" x2="286.7695526217005" y2="257.0710678118655" style="stroke:rgb(255,0,0);stroke-width:2" />
<line x1="225.80628272251312" y1="333.0" x2="271.0" y2="281.0" style="stroke:rgb(255,0,0);stroke-width:2" />
<line x1="166.99999999999997" y1="292.0867047357155" x2="242.92893218813452" y2="286.7695526217005" style="stroke:rgb(255,0,0);stroke-width:2" />
<line x1="167.0" y1="225.80628272251312" x2="219.0" y2="271.0" style="stroke:rgb(255,0,0);stroke-width:2" />
<line x1="207.91329526428447" y1="166.99999999999997" x2="213.23044737829952" y2="242.92893218813452" style="stroke:rgb(255,0,0);stroke-width:2" />
<line x1="274.1937172774869" y1="167.0" x2="229.0" y2="219.0" style="stroke:rgb(255,0,0);stroke-width:2" />
<line x1="333.0" y1="207.91329526428447" x2="257.0710678118655" y2="213.23044737829952" style="stroke:rgb(255,0,0);stroke-width:2" />
<line x1="270.8888888888889" y1="167.0" x2="281.0" y2="237.0" style="stroke:rgb(255,0,0);stroke-width:2" />
<line x1="333.0" y1="193.3202328709349" x2="281.1126983722081" y2="262.72792206135784" style="stroke:rgb(255,0,0);stroke-width:2" />
<line x1="333.0" y1="270.8888888888889" x2="263.0" y2="281.0" style="stroke:rgb(255,0,0);stroke-width:2" />
<line x1="306.6797671290651" y1="333.0" x2="237.27207793864216" y2="281.1126983722081" style="stroke:rgb(255,0,0);stroke-width:2" />
<line x1="229.11111111111111" y1="333.0" x2="219.0" y2="263.0" style="stroke:rgb(255,0,0);stroke-width:2" />
<line x1="167.0" y1="306.6797671290651" x2="218.8873016277919" y2="237.27207793864216" style="stroke:rgb(255,0,0);stroke-width:2" />
<line x1="167.0" y1="229.11111111111111" x2="237.0" y2="219.0" style="stroke:rgb(255,0,0);stroke-width:2" />
<line x1="193.32023287093486" y1="167.0" x2="262.72792206135784" y2="218.8873016277919" style="stroke:rgb(255,0,0);stroke-width:2" />
<line x1="306.3265306122449" y1="333.0" x2="265.0" y2="303.0" style="stroke:rgb(255,0,0);stroke-width:2" />
<line x1="228.67466050604702" y1="333.0" x2="223.1299423149112" y2="298.0832611206852" style="stroke:rgb(255,0,0);stroke-width:2" />
<line x1="167.0" y1="306.3265306122449" x2="197.0" y2="265.0" style="stroke:rgb(255,0,0);stroke-width:2" />
<line x1="167.0" y1="228.67466050604702" x2="201.91673887931478" y2="223.1299423149112" style="stroke:rgb(255,0,0);stroke-width:2" />
<line x1="193.67346938775506" y1="167.0" x2="235.0" y2="197.0" style="stroke:rgb(255,0,0);stroke-width:2" />
<line x1="271.325339493953" y1="167.0" x2="276.8700576850888" y2="201.91673887931475" style="stroke:rgb(255,0,0);stroke-width:2" />
<line x1="333.0" y1="193.6734693877551" x2="303.0" y2="235.0" style="stroke:rgb(255,0,0);stroke-width:2" />
<line x1="333.0" y1="271.325339493953" x2="298.0832611206852" y2="276.8700576850888" style="stroke:rgb(255,0,0);stroke-width:2" />
<line x1="333.0" y1="229.68" x2="257.0" y2="254.0" style="stroke:rgb(255,0,0);stroke-width:2" />
<line x1="333.0" y1="299.44294896152127" x2="252.12132034355963" y2="257.77817459305203" style="stroke:rgb(255,0,0);stroke-width:2" />
<line x1="270.32" y1="333.0" x2="246.0" y2="257.0" style="stroke:rgb(255,0,0);stroke-width:2" />
<line x1="200.55705103847873" y1="333.0" x2="242.22182540694797" y2="252.12132034355963" style="stroke:rgb(255,0,0);stroke-width:2" />
<line x1="167.0" y1="270.32" x2="243.0" y2="246.0" style="stroke:rgb(255,0,0);stroke-width:2" />
<line x1="167.0" y1="200.55705103847873" x2="247.87867965644037" y2="242.22182540694797" style="stroke:rgb(255,0,0);stroke-width:2" />
<line x1="229.67999999999998" y1="167.0" x2="254.0" y2="243.0" style="stroke:rgb(255,0,0);stroke-width:2" />
<line x1="299.44294896152127" y1="167.0" x2="257.77817459305203" y2="247.87867965644037" style="stroke:rgb(255,0,0);stroke-width:2" />
<line x1="167.0" y1="274.1937172774869" x2="219.0" y2="229.0" style="stroke:rgb(255,0,0);stroke-width:2" />
<line x1="166.99999999999997" y1="207.9132952642845" x2="242.92893218813452" y2="213.23044737829952" style="stroke:rgb(255,0,0);stroke-width:2" />
<line x1="225.80628272251312" y1="167.0" x2="271.0" y2="219.0" style="stroke:rgb(255,0,0);stroke-width:2" />
<line x1="292.0867047357155" y1="166.99999999999997" x2="286.7695526217005" y2="242.92893218813452" style="stroke:rgb(255,0,0);stroke-width:2" />
<line x1="333.0" y1="225.8062827225131" x2="281.0" y2="271.0" style="stroke:rgb(255,0,0);stroke-width:2" />
<line x1="333.0" y1="292.0867047357155" x2="257.0710678118655" y2="286.7695526217005" style="stroke:rgb(255,0,0);stroke-width:2" />
<line x1="274.1937172774869" y1="333.0" x2="229.0" y2="281.0" style="stroke:rgb(255,0,0);stroke-width:2" />
<line x1="207.91329526428453" y1="333.0" x2="213.23044737829952" y2="257.0710678118655" style="stroke:rgb(255,0,0);stroke-width:2" />
<line x1="229.11111111111111" y1="167.0" x2="219.0" y2="237.0" style="stroke:rgb(255,0,0);stroke-width:2" />
<line x1="306.67976712906506" y1="167.0" x2="237.27207793864216" y2="218.8873016277919" style="stroke:rgb(255,0,0);stroke-width:2" />
<line x1="333.0" y1="229.11111111111111" x2="263.0" y2="219.0" style="stroke:rgb(255,0,0);stroke-width:2" />
<line x1="333.0" y1="306.6797671290651" x2="281.1126983722081" y2="237.27207793864216" style="stroke:rgb(255,0,0);stroke-width:2" />
<line x1="270.8888888888889" y1="333.0" x2="281.0" y2="263.0" style="stroke:rgb(255,0,0);stroke-width:2" />
<line x1="193.32023287093492" y1="333.0" x2="262.72792206135784" y2="281.1126983722081" style="stroke:rgb(255,0,0);stroke-width:2" />
<line x1="167.0" y1="270.8888888888889" x2="237.0" y2="281.0" style="stroke:rgb(255,0,0);stroke-width:2" />
<line x1="167.0" y1="193.32023287093494" x2="218.8873016277919" y2="262.72792206135784" style="stroke:rgb(255,0,0);stroke-width:2" />
<line x1="193.67346938775512" y1="333.0" x2="235.0" y2="303.0" style="stroke:rgb(255,0,0);stroke-width:2" />
<line x1="167.0" y1="271.325339493953" x2="201.91673887931478" y2="276.8700576850888" style="stroke:rgb(255,0,0);stroke-width:2" />
<line x1="167.0" y1="193.67346938775512" x2="197.0" y2="235.0" style="stroke:rgb(255,0,0);stroke-width:2" />
<line x1="228.67466050604702" y1="167.0" x2="223.1299423149112" y2="201.91673887931478" style="stroke:rgb(255,0,0);stroke-width:2" />
<line x1="306.3265306122449" y1="167.0" x2="265.0" y2="197.0" style="stroke:rgb(255,0,0);stroke-width:2" />
<line x1="333.0" y1="228.674660506047" x2="298.0832611206852" y2="223.12994231491118" style="stroke:rgb(255,0,0);stroke-width:2" />
<line x1="333.0" y1="306.3265306122449" x2="303.0" y2="265.0" style="stroke:rgb(255,0,0);stroke-width:2" />
<line x1="271.325339493953" y1="333.0" x2="276.8700576850888" y2="298.0832611206852" style="stroke:rgb(255,0,0);stroke-width:2" />
<line x1="167.0" y1="229.68" x2="243.0" y2="254.0" style="stroke:rgb(255,0,0);stroke-width:2" />
<line x1="200.55705103847868" y1="167.0" x2="242.22182540694797" y2="247.87867965644037" style="stroke:rgb(255,0,0);stroke-width:2" />
<line x1="270.32" y1="167.0" x2="246.0" y2="243.0" style="stroke:rgb(255,0,0);stroke-width:2" />
<line x1="333.0" y1="200.55705103847868" x2="252.12132034355963" y2="242.22182540694797" style="stroke:rgb(255,0,0);stroke-width:2" />
<line x1="333.0" y1="270.32" x2="257.0" y2="246.0" style="stroke:rgb(255,0,0);stroke-width:2" />
<line x1="299.4429489615213" y1="333.0" x2="257.77817459305203" y2="252.12132034355963" style="stroke:rgb(255,0,0);stroke-width:2" />
<line x1="229.68" y1="333.0" x2="254.0" y2="257.0" style="stroke:rgb(255,0,0);stroke-width:2" />
<line x1="167.0" y1="299.4429489615213" x2="247.87867965644037" y2="257.77817459305203" style="stroke:rgb(255,0,0);stroke-width:2" />
</svg>
