<svg width="500" height="500">
<rect width="500" height="500" style="fill:rgb(255,255,255)" />
<line x1="282" y1="411" x2="398" y2="364" style="stroke:rgb(255,0,0);stroke-width:2" />
<line x1="493" y1="261" x2="285" y2="302" style="stroke:rgb(255,0,0);stroke-width:2" />
<line x1="265" y1="44" x2="497" y2="361" style="stroke:rgb(255,0,0);stroke-width:2" />
<line x1="335" y1="244" x2="444" y2="382" style="stroke:rgb(255,0,0);stroke-width:2" />
<line x1="281" y1="458" x2="278" y2="408" style="stroke:rgb(255,0,0);stroke-width:2" />
<line x1="464" y1="342" x2="440" y2="277" style="stroke:rgb(255,0,0);stroke-width:2" />
<line x1="368" y1="204" x2="461" y2="366" style="stroke:rgb(255,0,0);stroke-width:2" />
<line x1="444" y1="241" x2="362" y2="480" style="stroke:rgb(255,0,0);stroke-width:2" />
<line x1="439" y1="1" x2="499" y2="491" style="stroke:rgb(255,0,0);stroke-width:2" />
<line x1="326" y1="291" x2="307" y2="76" style="stroke:rgb(255,0,0);stroke-width:2" />
<line x1="465" y1="329" x2="326" y2="6" style="stroke:rgb(255,0,0);stroke-width:2" />
<line x1="290" y1="392" x2="440" y2="499" style="stroke:rgb(255,0,0);stroke-width:2" />
<line x1="426" y1="84" x2="384" y2="479" style="stroke:rgb(255,0,0);stroke-width:2" />
<line x1="332" y1="47" x2="282" y2="292" style="stroke:rgb(255,0,0);stroke-width:2" />
<line x1="396" y1="31" x2="285" y2="306" style="stroke:rgb(255,0,0);stroke-width:2" />
<line x1="431" y1="316" x2="340" y2="60" style="stroke:rgb(255,0,0);stroke-width:2" />
<line x1="357" y1="326" x2="463" y2="22" style="stroke:rgb(255,0,0);stroke-width:2" />
<line x1="409" y1="33" x2="497" y2="268" style="stroke:rgb(255,0,0);stroke-width:2" />
<line x1="460" y1="175" x2="252" y2="124" style="stroke:rgb(255,0,0);stroke-width:2" />
<line x1="300" y1="474" x2="254" y2="253" style="stroke:rgb(255,0,0);stroke-width:2" />
<line x1="391" y1="233" x2="278" y2="55" style="stroke:rgb(255,0,0);stroke-width:2" />
<line x1="386" y1="107" x2="438" y2="89" style="stroke:rgb(255,0,0);stroke-width:2" />
<line x1="293" y1="451" x2="346" y2="108" style="stroke:rgb(255,0,0);stroke-width:2" />
<line x1="402" y1="372" x2="287" y2="16" style="stroke:rgb(255,0,0);stroke-width:2" />
<line x1="218.0" y1="411" x2="102.0" y2="364" style="stroke:rgb(255,0,0);stroke-width:2" />
<line x1="7.0" y1="261" x2="215.0" y2="302" style="stroke:rgb(255,0,0);stroke-width:2" />
<line x1="235.0" y1="44" x2="3.0" y2="361" style="stroke:rgb(255,0,0);stroke-width:2" />
<line x1="165.0" y1="244" x2="56.0" y2="382" style="stroke:rgb(255,0,0);stroke-width:2" />
<line x1="219.0" y1="458" x2="222.0" y2="408" style="stroke:rgb(255,0,0);stroke-width:2" />
<line x1="36.0" y1="342" x2="60.0" y2="277" style="stroke:rgb(255,0,0);stroke-width:2" />
<line x1="132.0" y1="204" x2="39.0" y2="366" style="stroke:rgb(255,0,0);stroke-width:2" />
<line x1="56.0" y1="241" x2="138.0" y2="480" style="stroke:rgb(255,0,0);stroke-width:2" />
<line x1="61.0" y1="1" x2="1.0" y2="491" style="stroke:rgb(255,0,0);stroke-width:2" />
<line x1="174.0" y1="291" x2="193.0" y2="76" style="stroke:rgb(255,0,0);stroke-width:2" />
<line x1="35.0" y1="329" x2="174.0" y2="6" style="stroke:rgb(255,0,0);stroke-width:2" />
<line x1="210.0" y1="392" x2="60.0" y2="499" style="stroke:rgb(255,0,0);stroke-width:2" />
<line x1="74.0" y1="84" x2="116.0" y2="479" style="stroke:rgb(255,0,0);stroke-width:2" />
<line x1="168.0" y1="47" x2="218.0" y2="292" style="stroke:rgb(255,0,0);stroke-width:2" />
<line x1="104.0" y1="31" x2="215.0" y2="306" style="stroke:rgb(255,0,0);stroke-width:2" />
<line x1="69.0" y1="316" x2="160.0" y2="60" style="stroke:rgb(255,0,0);stroke-width:2" />
<line x1="143.0" y1="326" x2="37.0" y2="22" style="stroke:rgb(255,0,0);stroke-width:2" />
<line x1="91.0" y1="33" x2="3.0" y2="268" style="stroke:rgb(255,0,0);stroke-width:2" />
<line x1="40.0" y1="175" x2="248.0" y2="124" style="stroke:rgb(255,0,0);stroke-width:2" />
<line x1="200.0" y1="474" x2="246.0" y2="253" style="stroke:rgb(255,0,0);stroke-width:2" />
<line x1="109.0" y1="233" x2="222.0" y2="55" style="stroke:rgb(255,0,0);stroke-width:2" />
<line x1="114.0" y1="107" x2="62.0" y2="89" style="stroke:rgb(255,0,0);stroke-width:2" />
<line x1="207.0" y1="451" x2="154.0" y2="108" style="stroke:rgb(255,0,0);stroke-width:2" />
<line x1="98.0" y1="372" x2="213.0" y2="16" style="stroke:rgb(255,0,0);stroke-width:2" />
<line x1="282.0" y1="411.0" x2="398.0" y2="364.0" style="stroke:rgb(255,0,0);stroke-width:2" />
<line x1="158.78322522693537" y1="386.4716087690037" x2="274.04163056034264" y2="435.26197667087547" style="stroke:rgb(255,0,0);stroke-width:2" />
<line x1="89.0" y1="282.0" x2="136.0" y2="398.0" style="stroke:rgb(255,0,0);stroke-width:2" />
<line x1="113.5283912309963" y1="158.78322522693537" x2="64.73802332912453" y2="274.04163056034264" style="stroke:rgb(255,0,0);stroke-width:2" />
<line x1="217.99999999999997" y1="89.0" x2="102.0" y2="136.0" style="stroke:rgb(255,0,0);stroke-width:2" />
<line x1="341.2167747730646" y1="113.5283912309963" x2="225.95836943965736" y2="64.73802332912453" style="stroke:rgb(255,0,0);stroke-width:2" />
<line x1="411.0" y1="217.99999999999997" x2="364.0" y2="101.99999999999997" style="stroke:rgb(255,0,0);stroke-width:2" />
<line x1="386.4716087690037" y1="341.21677477306457" x2="435.26197667087547" y2="225.95836943965736" style="stroke:rgb(255,0,0);stroke-width:2" />
<line x1="493.0" y1="261.0" x2="285.0" y2="302.0" style="stroke:rgb(255,0,0);stroke-width:2" />
<line x1="414.04877323527904" y1="429.60512242138304" x2="237.9791847198287" y2="311.5182899632296" style="stroke:rgb(255,0,0);stroke-width:2" />
<line x1="239.0" y1="493.0" x2="198.0" y2="285.0" style="stroke:rgb(255,0,0);stroke-width:2" />
<line x1="70.39487757861693" y1="414.04877323527904" x2="188.48171003677038" y2="237.9791847198287" style="stroke:rgb(255,0,0);stroke-width:2" />
<line x1="7.0" y1="239.00000000000003" x2="215.0" y2="198.0" style="stroke:rgb(255,0,0);stroke-width:2" />
<line x1="85.95122676472093" y1="70.39487757861693" x2="262.0208152801713" y2="188.48171003677038" style="stroke:rgb(255,0,0);stroke-width:2" />
<line x1="260.99999999999994" y1="7.0" x2="302.0" y2="215.0" style="stroke:rgb(255,0,0);stroke-width:2" />
<line x1="429.60512242138304" y1="85.95122676472093" x2="311.5182899632296" y2="262.0208152801713" style="stroke:rgb(255,0,0);stroke-width:2" />
<line x1="265.0" y1="44.0" x2="497.0" y2="361.0" style="stroke:rgb(255,0,0);stroke-width:2" />
<line x1="406.270598642227" y1="114.94260479336941" x2="346.1665222413705" y2="503.144227664784" style="stroke:rgb(255,0,0);stroke-width:2" />
<line x1="456.0" y1="265.0" x2="139.0" y2="497.0" style="stroke:rgb(255,0,0);stroke-width:2" />
<line x1="385.0573952066306" y1="406.270598642227" x2="-3.1442276647840117" y2="346.1665222413705" style="stroke:rgb(255,0,0);stroke-width:2" />
<line x1="235.00000000000003" y1="456.0" x2="3.0" y2="139.00000000000003" style="stroke:rgb(255,0,0);stroke-width:2" />
<line x1="93.72940135777301" y1="385.05739520663064" x2="153.8334777586295" y2="-3.1442276647840117" style="stroke:rgb(255,0,0);stroke-width:2" />
<line x1="44.0" y1="235.00000000000003" x2="360.99999999999994" y2="2.9999999999999716" style="stroke:rgb(255,0,0);stroke-width:2" />
<line x1="114.94260479336938" y1="93.72940135777304" x2="503.144227664784" y2="153.83347775862947" style="stroke:rgb(255,0,0);stroke-width:2" />
<line x1="335.0" y1="244.0" x2="444.0" y2="382.0" style="stroke:rgb(255,0,0);stroke-width:2" />
<line x1="314.34671708797583" y1="305.86143571373725" x2="293.84062043356596" y2="480.5168106668145" style="stroke:rgb(255,0,0);stroke-width:2" />
<line x1="256.0" y1="335.0" x2="118.0" y2="444.0" style="stroke:rgb(255,0,0);stroke-width:2" />
<line x1="194.13856428626275" y1="314.34671708797583" x2="19.48318933318552" y2="293.84062043356596" style="stroke:rgb(255,0,0);stroke-width:2" />
<line x1="165.0" y1="256.0" x2="55.99999999999997" y2="118.00000000000003" style="stroke:rgb(255,0,0);stroke-width:2" />
<line x1="185.65328291202417" y1="194.13856428626275" x2="206.159379566434" y2="19.483189333185493" style="stroke:rgb(255,0,0);stroke-width:2" />
<line x1="243.99999999999997" y1="165.0" x2="382.0" y2="55.99999999999997" style="stroke:rgb(255,0,0);stroke-width:2" />
<line x1="305.86143571373725" y1="185.65328291202417" x2="480.5168106668145" y2="206.15937956643398" style="stroke:rgb(255,0,0);stroke-width:2" />
<line x1="281.0" y1="458.0" x2="278.0" y2="408.0" style="stroke:rgb(255,0,0);stroke-width:2" />
<line x1="124.8420997299811" y1="418.99852070358486" x2="158.07611844574882" y2="381.5218613006979" style="stroke:rgb(255,0,0);stroke-width:2" />
<line x1="42.0" y1="281.0" x2="92.0" y2="278.0" style="stroke:rgb(255,0,0);stroke-width:2" />
<line x1="81.00147929641511" y1="124.8420997299811" x2="118.47813869930215" y2="158.07611844574882" style="stroke:rgb(255,0,0);stroke-width:2" />
<line x1="218.99999999999997" y1="42.0" x2="221.99999999999997" y2="92.0" style="stroke:rgb(255,0,0);stroke-width:2" />
<line x1="375.1579002700189" y1="81.00147929641511" x2="341.9238815542512" y2="118.47813869930215" style="stroke:rgb(255,0,0);stroke-width:2" />
<line x1="458.0" y1="218.99999999999997" x2="408.0" y2="221.99999999999997" style="stroke:rgb(255,0,0);stroke-width:2" />
<line x1="418.99852070358486" y1="375.1579002700189" x2="381.5218613006979" y2="341.9238815542511" style="stroke:rgb(255,0,0);stroke-width:2" />
<line x1="464.0" y1="342.0" x2="440.0" y2="277.0" style="stroke:rgb(255,0,0);stroke-width:2" />
<line x1="336.2670273047588" y1="466.3746750430835" x2="365.25840533340727" y2="403.4421715174808" style="stroke:rgb(255,0,0);stroke-width:2" />
<line x1="158.0" y1="464.0" x2="223.0" y2="440.0" style="stroke:rgb(255,0,0);stroke-width:2" />
<line x1="33.62532495691647" y1="336.2670273047588" x2="96.5578284825192" y2="365.25840533340727" style="stroke:rgb(255,0,0);stroke-width:2" />
<line x1="36.0" y1="158.00000000000003" x2="60.0" y2="223.00000000000003" style="stroke:rgb(255,0,0);stroke-width:2" />
<line x1="163.7329726952412" y1="33.625324956916444" x2="134.74159466659273" y2="96.5578284825192" style="stroke:rgb(255,0,0);stroke-width:2" />
<line x1="341.99999999999994" y1="35.99999999999997" x2="276.99999999999994" y2="60.0" style="stroke:rgb(255,0,0);stroke-width:2" />
<line x1="466.3746750430835" y1="163.73297269524116" x2="403.4421715174808" y2="134.74159466659273" style="stroke:rgb(255,0,0);stroke-width:2" />
<line x1="368.0" y1="204.0" x2="461.0" y2="366.0" style="stroke:rgb(255,0,0);stroke-width:2" />
<line x1="365.9655121145938" y1="300.91168824543144" x2="317.17514421272205" y2="481.22391744800103" style="stroke:rgb(255,0,0);stroke-width:2" />
<line x1="296.0" y1="368.0" x2="134.0" y2="461.0" style="stroke:rgb(255,0,0);stroke-width:2" />
<line x1="199.0883117545686" y1="365.9655121145938" x2="18.776082551998968" y2="317.17514421272205" style="stroke:rgb(255,0,0);stroke-width:2" />
<line x1="132.0" y1="296.0" x2="39.0" y2="134.00000000000003" style="stroke:rgb(255,0,0);stroke-width:2" />
<line x1="134.03448788540618" y1="199.0883117545686" x2="182.82485578727795" y2="18.776082551998968" style="stroke:rgb(255,0,0);stroke-width:2" />
<line x1="203.99999999999997" y1="132.0" x2="365.99999999999994" y2="38.99999999999997" style="stroke:rgb(255,0,0);stroke-width:2" />
<line x1="300.9116882454314" y1="134.03448788540618" x2="481.22391744800103" y2="182.82485578727793" style="stroke:rgb(255,0,0);stroke-width:2" />
<line x1="444.0" y1="241.0" x2="362.0" y2="480.0" style="stroke:rgb(255,0,0);stroke-width:2" />
<line x1="393.54267658086917" y1="380.8147545195113" x2="166.5613998199874" y2="491.8305191657993" style="stroke:rgb(255,0,0);stroke-width:2" />
<line x1="259.0" y1="444.0" x2="20.0" y2="362.0" style="stroke:rgb(255,0,0);stroke-width:2" />
<line x1="119.1852454804887" y1="393.54267658086917" x2="8.169480834200755" y2="166.5613998199874" style="stroke:rgb(255,0,0);stroke-width:2" />
<line x1="56.0" y1="259.0" x2="137.99999999999997" y2="20.0" style="stroke:rgb(255,0,0);stroke-width:2" />
<line x1="106.45732341913083" y1="119.1852454804887" x2="333.4386001800126" y2="8.169480834200726" style="stroke:rgb(255,0,0);stroke-width:2" />
<line x1="240.99999999999997" y1="56.0" x2="480.0" y2="137.99999999999994" style="stroke:rgb(255,0,0);stroke-width:2" />
<line x1="380.81475451951127" y1="106.45732341913083" x2="491.8305191657993" y2="333.43860018001254" style="stroke:rgb(255,0,0);stroke-width:2" />
<line x1="439.0" y1="1.0" x2="499.0" y2="491.0" style="stroke:rgb(255,0,0);stroke-width:2" />
<line x1="559.7127701597078" y1="207.57359312880715" x2="255.6568542494924" y2="596.4823227814082" style="stroke:rgb(255,0,0);stroke-width:2" />
<line x1="499.0" y1="439.0" x2="9.000000000000028" y2="499.0" style="stroke:rgb(255,0,0);stroke-width:2" />
<line x1="292.42640687119285" y1="559.7127701597078" x2="-96.48232278140824" y2="255.6568542494924" style="stroke:rgb(255,0,0);stroke-width:2" />
<line x1="61.00000000000003" y1="499.0" x2="0.9999999999999716" y2="9.000000000000028" style="stroke:rgb(255,0,0);stroke-width:2" />
<line x1="-59.712770159707816" y1="292.42640687119285" x2="244.34314575050757" y2="-96.4823227814083" style="stroke:rgb(255,0,0);stroke-width:2" />
<line x1="0.9999999999999716" y1="61.00000000000006" x2="490.99999999999994" y2="0.9999999999999432" style="stroke:rgb(255,0,0);stroke-width:2" />
<line x1="207.5735931288071" y1="-59.712770159707816" x2="596.4823227814082" y2="244.34314575050755" style="stroke:rgb(255,0,0);stroke-width:2" />
<line x1="326.0" y1="291.0" x2="307.0" y2="76.0" style="stroke:rgb(255,0,0);stroke-width:2" />
<line x1="274.7487373415292" y1="332.73149339882605" x2="413.34166645409243" y2="167.26850660117393" style="stroke:rgb(255,0,0);stroke-width:2" />
<line x1="209.0" y1="326.0" x2="424.0" y2="307.0" style="stroke:rgb(255,0,0);stroke-width:2" />
<line x1="167.26850660117395" y1="274.7487373415292" x2="332.73149339882605" y2="413.34166645409243" style="stroke:rgb(255,0,0);stroke-width:2" />
<line x1="174.0" y1="209.0" x2="193.00000000000003" y2="424.0" style="stroke:rgb(255,0,0);stroke-width:2" />
<line x1="225.2512626584708" y1="167.26850660117395" x2="86.65833354590754" y2="332.7314933988261" style="stroke:rgb(255,0,0);stroke-width:2" />
<line x1="291.0" y1="174.0" x2="76.0" y2="193.00000000000003" style="stroke:rgb(255,0,0);stroke-width:2" />
<line x1="332.73149339882605" y1="225.2512626584708" x2="167.2685066011739" y2="86.65833354590754" style="stroke:rgb(255,0,0);stroke-width:2" />
<line x1="465.0" y1="329.0" x2="326.0" y2="6.0" style="stroke:rgb(255,0,0);stroke-width:2" />
<line x1="346.16652224137044" y1="457.88939366884495" x2="476.2741699796952" y2="131.20606076066002" style="stroke:rgb(255,0,0);stroke-width:2" />
<line x1="171.0" y1="465.0" x2="494.0" y2="326.0" style="stroke:rgb(255,0,0);stroke-width:2" />
<line x1="42.110606331155054" y1="346.16652224137044" x2="368.79393923934" y2="476.2741699796952" style="stroke:rgb(255,0,0);stroke-width:2" />
<line x1="35.0" y1="171.00000000000003" x2="174.00000000000003" y2="494.0" style="stroke:rgb(255,0,0);stroke-width:2" />
<line x1="153.8334777586295" y1="42.110606331155054" x2="23.725830020304812" y2="368.79393923934003" style="stroke:rgb(255,0,0);stroke-width:2" />
<line x1="328.99999999999994" y1="34.99999999999997" x2="6.0" y2="174.00000000000006" style="stroke:rgb(255,0,0);stroke-width:2" />
<line x1="457.88939366884495" y1="153.8334777586295" x2="131.20606076065997" y2="23.72583002030484" style="stroke:rgb(255,0,0);stroke-width:2" />
<line x1="290.0" y1="392.0" x2="440.0" y2="499.0" style="stroke:rgb(255,0,0);stroke-width:2" />
<line x1="177.87510831897217" y1="378.69343417595167" x2="208.28069990999373" y2="560.4198769408944" style="stroke:rgb(255,0,0);stroke-width:2" />
<line x1="108.0" y1="290.0" x2="1.0" y2="440.0" style="stroke:rgb(255,0,0);stroke-width:2" />
<line x1="121.30656582404836" y1="177.87510831897217" x2="-60.41987694089437" y2="208.28069990999373" style="stroke:rgb(255,0,0);stroke-width:2" />
<line x1="210.0" y1="108.0" x2="59.99999999999997" y2="1.0000000000000284" style="stroke:rgb(255,0,0);stroke-width:2" />
<line x1="322.12489168102786" y1="121.30656582404833" x2="291.71930009000624" y2="-60.41987694089437" style="stroke:rgb(255,0,0);stroke-width:2" />
<line x1="392.0" y1="209.99999999999997" x2="499.0" y2="59.99999999999994" style="stroke:rgb(255,0,0);stroke-width:2" />
<line x1="378.69343417595167" y1="322.1248916810278" x2="560.4198769408944" y2="291.7193000900062" style="stroke:rgb(255,0,0);stroke-width:2" />
<line x1="426.0" y1="84.0" x2="384.0" y2="479.0" style="stroke:rgb(255,0,0);stroke-width:2" />
<line x1="491.8305191657993" y1="257.0710678118654" x2="182.824855787278" y2="506.6797615707168" style="stroke:rgb(255,0,0);stroke-width:2" />
<line x1="416.0" y1="426.0" x2="21.0" y2="384.0" style="stroke:rgb(255,0,0);stroke-width:2" />
<line x1="242.92893218813455" y1="491.8305191657993" x2="-6.679761570716778" y2="182.824855787278" style="stroke:rgb(255,0,0);stroke-width:2" />
<line x1="74.00000000000003" y1="416.0" x2="115.99999999999997" y2="21.00000000000003" style="stroke:rgb(255,0,0);stroke-width:2" />
<line x1="8.169480834200726" y1="242.92893218813458" x2="317.175144212722" y2="-6.679761570716778" style="stroke:rgb(255,0,0);stroke-width:2" />
<line x1="83.99999999999997" y1="74.00000000000003" x2="479.0" y2="115.99999999999997" style="stroke:rgb(255,0,0);stroke-width:2" />
<line x1="257.0710678118654" y1="8.169480834200755" x2="506.6797615707168" y2="317.175144212722" style="stroke:rgb(255,0,0);stroke-width:2" />
<line x1="332.0" y1="47.0" x2="282.0" y2="292.0" style="stroke:rgb(255,0,0);stroke-width:2" />
<line x1="451.5254326381661" y1="164.4400794764277" x2="242.92893218813452" y2="302.3259018078045" style="stroke:rgb(255,0,0);stroke-width:2" />
<line x1="453.0" y1="332.0" x2="208.0" y2="282.0" style="stroke:rgb(255,0,0);stroke-width:2" />
<line x1="335.55992052357226" y1="451.5254326381661" x2="197.6740981921955" y2="242.92893218813452" style="stroke:rgb(255,0,0);stroke-width:2" />
<line x1="168.00000000000003" y1="453.0" x2="218.0" y2="208.0" style="stroke:rgb(255,0,0);stroke-width:2" />
<line x1="48.47456736183395" y1="335.55992052357226" x2="257.0710678118655" y2="197.6740981921955" style="stroke:rgb(255,0,0);stroke-width:2" />
<line x1="46.99999999999997" y1="168.00000000000006" x2="292.0" y2="218.0" style="stroke:rgb(255,0,0);stroke-width:2" />
<line x1="164.4400794764277" y1="48.47456736183398" x2="302.3259018078045" y2="257.0710678118655" style="stroke:rgb(255,0,0);stroke-width:2" />
<line x1="396.0" y1="31.0" x2="285.0" y2="306.0" style="stroke:rgb(255,0,0);stroke-width:2" />
<line x1="508.0939751330899" y1="198.381204973382" x2="235.1507575950825" y2="314.34671708797583" style="stroke:rgb(255,0,0);stroke-width:2" />
<line x1="469.0" y1="396.0" x2="194.0" y2="285.0" style="stroke:rgb(255,0,0);stroke-width:2" />
<line x1="301.618795026618" y1="508.0939751330899" x2="185.65328291202417" y2="235.1507575950825" style="stroke:rgb(255,0,0);stroke-width:2" />
<line x1="104.00000000000003" y1="469.0" x2="215.0" y2="194.0" style="stroke:rgb(255,0,0);stroke-width:2" />
<line x1="-8.093975133089884" y1="301.618795026618" x2="264.8492424049175" y2="185.65328291202417" style="stroke:rgb(255,0,0);stroke-width:2" />
<line x1="30.99999999999997" y1="104.00000000000003" x2="306.0" y2="215.0" style="stroke:rgb(255,0,0);stroke-width:2" />
<line x1="198.38120497338198" y1="-8.093975133089828" x2="314.34671708797583" y2="264.8492424049175" style="stroke:rgb(255,0,0);stroke-width:2" />
<line x1="431.0" y1="316.0" x2="340.0" y2="60.0" style="stroke:rgb(255,0,0);stroke-width:2" />
<line x1="331.317279836453" y1="424.6553749530772" x2="447.9898987322333" y2="179.28932188134524" style="stroke:rgb(255,0,0);stroke-width:2" />
<line x1="184.0" y1="431.0" x2="440.0" y2="340.0" style="stroke:rgb(255,0,0);stroke-width:2" />
<line x1="75.34462504692277" y1="331.317279836453" x2="320.71067811865476" y2="447.9898987322333" style="stroke:rgb(255,0,0);stroke-width:2" />
<line x1="69.0" y1="184.00000000000003" x2="160.00000000000003" y2="440.0" style="stroke:rgb(255,0,0);stroke-width:2" />
<line x1="168.682720163547" y1="75.34462504692277" x2="52.010101267766686" y2="320.71067811865476" style="stroke:rgb(255,0,0);stroke-width:2" />
<line x1="316.0" y1="69.0" x2="59.99999999999997" y2="160.00000000000003" style="stroke:rgb(255,0,0);stroke-width:2" />
<line x1="424.6553749530772" y1="168.682720163547" x2="179.2893218813452" y2="52.010101267766686" style="stroke:rgb(255,0,0);stroke-width:2" />
<line x1="357.0" y1="326.0" x2="463.0" y2="22.0" style="stroke:rgb(255,0,0);stroke-width:2" />
<line x1="271.920310216783" y1="379.4005409571382" x2="561.8340905032675" y2="239.39339828220176" style="stroke:rgb(255,0,0);stroke-width:2" />
<line x1="174.0" y1="357.0" x2="478.0" y2="463.0" style="stroke:rgb(255,0,0);stroke-width:2" />
<line x1="120.59945904286181" y1="271.920310216783" x2="260.60660171779824" y2="561.8340905032675" style="stroke:rgb(255,0,0);stroke-width:2" />
<line x1="143.0" y1="174.0" x2="37.00000000000003" y2="478.0" style="stroke:rgb(255,0,0);stroke-width:2" />
<line x1="228.07968978321702" y1="120.59945904286178" x2="-61.834090503267475" y2="260.60660171779824" style="stroke:rgb(255,0,0);stroke-width:2" />
<line x1="326.0" y1="143.0" x2="21.99999999999997" y2="37.00000000000003" style="stroke:rgb(255,0,0);stroke-width:2" />
<line x1="379.4005409571382" y1="228.079689783217" x2="239.39339828220173" y2="-61.834090503267475" style="stroke:rgb(255,0,0);stroke-width:2" />
<line x1="409.0" y1="33.0" x2="497.0" y2="268.0" style="stroke:rgb(255,0,0);stroke-width:2" />
<line x1="515.8721497261419" y1="208.9878066911802" x2="411.92745289171944" y2="437.3832970144351" style="stroke:rgb(255,0,0);stroke-width:2" />
<line x1="467.0" y1="409.0" x2="232.0" y2="497.0" style="stroke:rgb(255,0,0);stroke-width:2" />
<line x1="291.0121933088198" y1="515.8721497261419" x2="62.61670298556493" y2="411.92745289171944" style="stroke:rgb(255,0,0);stroke-width:2" />
<line x1="91.00000000000003" y1="467.0" x2="3.0" y2="232.00000000000003" style="stroke:rgb(255,0,0);stroke-width:2" />
<line x1="-15.872149726141856" y1="291.0121933088198" x2="88.07254710828056" y2="62.61670298556493" style="stroke:rgb(255,0,0);stroke-width:2" />
<line x1="32.99999999999997" y1="91.00000000000003" x2="267.99999999999994" y2="3.0" style="stroke:rgb(255,0,0);stroke-width:2" />
<line x1="208.98780669118017" y1="-15.872149726141856" x2="437.3832970144351" y2="88.07254710828056" style="stroke:rgb(255,0,0);stroke-width:2" />
<line x1="460.0" y1="175.0" x2="252.0" y2="124.0" style="stroke:rgb(255,0,0);stroke-width:2" />
<line x1="451.5254326381661" y1="345.4594154601839" x2="340.5096679918781" y2="162.31875913286808" style="stroke:rgb(255,0,0);stroke-width:2" />
<line x1="325.0" y1="460.0" x2="376.0" y2="252.0" style="stroke:rgb(255,0,0);stroke-width:2" />
<line x1="154.5405845398161" y1="451.5254326381661" x2="337.6812408671319" y2="340.5096679918781" style="stroke:rgb(255,0,0);stroke-width:2" />
<line x1="40.0" y1="325.0" x2="248.00000000000003" y2="376.0" style="stroke:rgb(255,0,0);stroke-width:2" />
<line x1="48.47456736183392" y1="154.5405845398161" x2="159.49033200812192" y2="337.6812408671319" style="stroke:rgb(255,0,0);stroke-width:2" />
<line x1="174.99999999999994" y1="40.0" x2="124.0" y2="248.00000000000003" style="stroke:rgb(255,0,0);stroke-width:2" />
<line x1="345.4594154601839" y1="48.47456736183392" x2="162.31875913286808" y2="159.49033200812192" style="stroke:rgb(255,0,0);stroke-width:2" />
<line x1="300.0" y1="474.0" x2="254.0" y2="253.0" style="stroke:rgb(255,0,0);stroke-width:2" />
<line x1="126.96342007354076" y1="443.747258045114" x2="250.70710678118655" y2="254.94974746830584" style="stroke:rgb(255,0,0);stroke-width:2" />
<line x1="26.0" y1="300.0" x2="247.0" y2="254.0" style="stroke:rgb(255,0,0);stroke-width:2" />
<line x1="56.25274195488598" y1="126.96342007354076" x2="245.05025253169416" y2="250.70710678118655" style="stroke:rgb(255,0,0);stroke-width:2" />
<line x1="199.99999999999997" y1="26.0" x2="246.0" y2="247.0" style="stroke:rgb(255,0,0);stroke-width:2" />
<line x1="373.03657992645924" y1="56.25274195488595" x2="249.29289321881345" y2="245.05025253169416" style="stroke:rgb(255,0,0);stroke-width:2" />
<line x1="474.0" y1="199.99999999999994" x2="253.0" y2="246.0" style="stroke:rgb(255,0,0);stroke-width:2" />
<line x1="443.74725804511405" y1="373.03657992645924" x2="254.94974746830584" y2="249.29289321881345" style="stroke:rgb(255,0,0);stroke-width:2" />
<line x1="391.0" y1="233.0" x2="278.0" y2="55.0" style="stroke:rgb(255,0,0);stroke-width:2" />
<line x1="361.7228714274745" y1="337.6812408671319" x2="407.68481220460006" y2="131.91316754184655" style="stroke:rgb(255,0,0);stroke-width:2" />
<line x1="267.0" y1="391.0" x2="445.0" y2="278.0" style="stroke:rgb(255,0,0);stroke-width:2" />
<line x1="162.3187591328681" y1="361.7228714274745" x2="368.0868324581535" y2="407.68481220460006" style="stroke:rgb(255,0,0);stroke-width:2" />
<line x1="109.0" y1="267.0" x2="222.00000000000003" y2="445.0" style="stroke:rgb(255,0,0);stroke-width:2" />
<line x1="138.27712857252547" y1="162.3187591328681" x2="92.31518779539994" y2="368.0868324581535" style="stroke:rgb(255,0,0);stroke-width:2" />
<line x1="232.99999999999997" y1="109.0" x2="55.0" y2="222.00000000000003" style="stroke:rgb(255,0,0);stroke-width:2" />
<line x1="337.68124086713186" y1="138.27712857252547" x2="131.91316754184652" y2="92.31518779539994" style="stroke:rgb(255,0,0);stroke-width:2" />
<line x1="386.0" y1="107.0" x2="438.0" y2="89.0" style="stroke:rgb(255,0,0);stroke-width:2" />
<line x1="447.28279195104676" y1="245.05025253169416" x2="496.7802666341051" y2="269.09188309203677" style="stroke:rgb(255,0,0);stroke-width:2" />
<line x1="393.0" y1="386.0" x2="411.0" y2="438.0" style="stroke:rgb(255,0,0);stroke-width:2" />
<line x1="254.94974746830584" y1="447.28279195104676" x2="230.90811690796323" y2="496.7802666341051" style="stroke:rgb(255,0,0);stroke-width:2" />
<line x1="114.00000000000003" y1="393.0" x2="62.00000000000003" y2="411.0" style="stroke:rgb(255,0,0);stroke-width:2" />
<line x1="52.71720804895324" y1="254.94974746830587" x2="3.2197333658949105" y2="230.90811690796323" style="stroke:rgb(255,0,0);stroke-width:2" />
<line x1="106.99999999999997" y1="114.00000000000003" x2="88.99999999999997" y2="62.00000000000003" style="stroke:rgb(255,0,0);stroke-width:2" />
<line x1="245.05025253169413" y1="52.71720804895324" x2="269.0918830920367" y2="3.2197333658949105" style="stroke:rgb(255,0,0);stroke-width:2" />
<line x1="293.0" y1="451.0" x2="346.0" y2="108.0" style="stroke:rgb(255,0,0);stroke-width:2" />
<line x1="138.2771285725255" y1="422.5340546095176" x2="418.2914139223983" y2="217.4730880654188" style="stroke:rgb(255,0,0);stroke-width:2" />
<line x1="49.0" y1="293.0" x2="392.0" y2="346.0" style="stroke:rgb(255,0,0);stroke-width:2" />
<line x1="77.4659453904824" y1="138.2771285725255" x2="282.5269119345812" y2="418.2914139223983" style="stroke:rgb(255,0,0);stroke-width:2" />
<line x1="206.99999999999997" y1="49.0" x2="154.0" y2="392.0" style="stroke:rgb(255,0,0);stroke-width:2" />
<line x1="361.7228714274745" y1="77.46594539048237" x2="81.7085860776017" y2="282.5269119345812" style="stroke:rgb(255,0,0);stroke-width:2" />
<line x1="451.0" y1="206.99999999999997" x2="107.99999999999997" y2="154.00000000000003" style="stroke:rgb(255,0,0);stroke-width:2" />
<line x1="422.5340546095176" y1="361.72287142747444" x2="217.47308806541878" y2="81.7085860776017" style="stroke:rgb(255,0,0);stroke-width:2" />
<line x1="402.0" y1="372.0" x2="287.0" y2="16.0" style="stroke:rgb(255,0,0);stroke-width:2" />
<line x1="271.2132034355964" y1="443.747258045114" x2="441.62593770155434" y2="110.69996410625015" style="stroke:rgb(255,0,0);stroke-width:2" />
<line x1="128.0" y1="402.0" x2="484.0" y2="287.0" style="stroke:rgb(255,0,0);stroke-width:2" />
<line x1="56.252741954886005" y1="271.2132034355964" x2="389.30003589374985" y2="441.62593770155434" style="stroke:rgb(255,0,0);stroke-width:2" />
<line x1="97.99999999999997" y1="128.0" x2="213.00000000000003" y2="484.0" style="stroke:rgb(255,0,0);stroke-width:2" />
<line x1="228.78679656440352" y1="56.25274195488598" x2="58.37406229844564" y2="389.3000358937499" style="stroke:rgb(255,0,0);stroke-width:2" />
<line x1="372.0" y1="97.99999999999997" x2="16.0" y2="213.00000000000006" style="stroke:rgb(255,0,0);stroke-width:2" />
<line x1="443.747258045114" y1="228.78679656440352" x2="110.69996410625009" y2="58.37406229844564" style="stroke:rgb(255,0,0);stroke-width:2" />
<line x1="218.0" y1="411.0" x2="102.0" y2="364.0" style="stroke:rgb(255,0,0);stroke-width:2" />
<line x1="113.52839123099633" y1="341.2167747730646" x2="64.73802332912453" y2="225.95836943965742" style="stroke:rgb(255,0,0);stroke-width:2" />
<line x1="89.0" y1="218.0" x2="136.0" y2="102.0" style="stroke:rgb(255,0,0);stroke-width:2" />
<line x1="158.78322522693537" y1="113.52839123099633" x2="274.0416305603426" y2="64.73802332912453" style="stroke:rgb(255,0,0);stroke-width:2" />
<line x1="282.0" y1="89.0" x2="398.0" y2="136.0" style="stroke:rgb(255,0,0);stroke-width:2" />
<line x1="386.47160876900364" y1="158.78322522693534" x2="435.26197667087547" y2="274.0416305603426" style="stroke:rgb(255,0,0);stroke-width:2" />
<line x1="411.0" y1="282.0" x2="364.0" y2="398.0" style="stroke:rgb(255,0,0);stroke-width:2" />
<line x1="341.2167747730647" y1="386.47160876900364" x2="225.95836943965742" y2="435.26197667087547" style="stroke:rgb(255,0,0);stroke-width:2" />
<line x1="7.0" y1="261.0" x2="215.0" y2="302.0" style="stroke:rgb(255,0,0);stroke-width:2" />
<line x1="70.3948775786169" y1="85.95122676472099" x2="188.48171003677038" y2="262.0208152801713" style="stroke:rgb(255,0,0);stroke-width:2" />
<line x1="239.0" y1="7.0" x2="198.0" y2="215.0" style="stroke:rgb(255,0,0);stroke-width:2" />
<line x1="414.048773235279" y1="70.3948775786169" x2="237.97918471982868" y2="188.48171003677038" style="stroke:rgb(255,0,0);stroke-width:2" />
<line x1="493.0" y1="238.99999999999997" x2="285.0" y2="198.0" style="stroke:rgb(255,0,0);stroke-width:2" />
<line x1="429.60512242138316" y1="414.048773235279" x2="311.5182899632296" y2="237.97918471982868" style="stroke:rgb(255,0,0);stroke-width:2" />
<line x1="261.00000000000006" y1="493.0" x2="302.0" y2="285.0" style="stroke:rgb(255,0,0);stroke-width:2" />
<line x1="85.95122676472101" y1="429.60512242138316" x2="262.0208152801713" y2="311.5182899632296" style="stroke:rgb(255,0,0);stroke-width:2" />
<line x1="235.0" y1="44.0" x2="3.0" y2="361.0" style="stroke:rgb(255,0,0);stroke-width:2" />
<line x1="385.05739520663053" y1="93.72940135777299" x2="-3.1442276647840117" y2="153.83347775862956" style="stroke:rgb(255,0,0);stroke-width:2" />
<line x1="456.0" y1="235.0" x2="139.0" y2="3.0" style="stroke:rgb(255,0,0);stroke-width:2" />
<line x1="406.270598642227" y1="385.05739520663053" x2="346.16652224137044" y2="-3.1442276647840117" style="stroke:rgb(255,0,0);stroke-width:2" />
<line x1="265.0" y1="456.0" x2="497.0" y2="138.99999999999997" style="stroke:rgb(255,0,0);stroke-width:2" />
<line x1="114.94260479336944" y1="406.270598642227" x2="503.14422766478407" y2="346.16652224137044" style="stroke:rgb(255,0,0);stroke-width:2" />
<line x1="44.0" y1="265.00000000000006" x2="361.00000000000006" y2="497.0" style="stroke:rgb(255,0,0);stroke-width:2" />
<line x1="93.72940135777296" y1="114.94260479336947" x2="153.8334777586296" y2="503.144227664784" style="stroke:rgb(255,0,0);stroke-width:2" />
<line x1="165.0" y1="244.0" x2="56.0" y2="382.0" style="stroke:rgb(255,0,0);stroke-width:2" />
<line x1="194.13856428626275" y1="185.65328291202417" x2="19.48318933318552" y2="206.15937956643404" style="stroke:rgb(255,0,0);stroke-width:2" />
<line x1="256.0" y1="165.0" x2="118.0" y2="56.0" style="stroke:rgb(255,0,0);stroke-width:2" />
<line x1="314.34671708797583" y1="194.13856428626275" x2="293.84062043356596" y2="19.48318933318552" style="stroke:rgb(255,0,0);stroke-width:2" />
<line x1="335.0" y1="256.0" x2="444.0" y2="117.99999999999997" style="stroke:rgb(255,0,0);stroke-width:2" />
<line x1="305.86143571373725" y1="314.34671708797583" x2="480.51681066681454" y2="293.84062043356596" style="stroke:rgb(255,0,0);stroke-width:2" />
<line x1="244.00000000000003" y1="335.0" x2="382.0" y2="444.0" style="stroke:rgb(255,0,0);stroke-width:2" />
<line x1="185.65328291202417" y1="305.86143571373725" x2="206.1593795664341" y2="480.5168106668145" style="stroke:rgb(255,0,0);stroke-width:2" />
<line x1="219.0" y1="458.0" x2="222.0" y2="408.0" style="stroke:rgb(255,0,0);stroke-width:2" />
<line x1="81.00147929641514" y1="375.1579002700189" x2="118.47813869930218" y2="341.9238815542512" style="stroke:rgb(255,0,0);stroke-width:2" />
<line x1="42.0" y1="219.0" x2="92.0" y2="222.0" style="stroke:rgb(255,0,0);stroke-width:2" />
<line x1="124.84209972998107" y1="81.00147929641514" x2="158.07611844574882" y2="118.47813869930218" style="stroke:rgb(255,0,0);stroke-width:2" />
<line x1="281.0" y1="42.0" x2="278.0" y2="92.0" style="stroke:rgb(255,0,0);stroke-width:2" />
<line x1="418.99852070358486" y1="124.84209972998107" x2="381.5218613006978" y2="158.0761184457488" style="stroke:rgb(255,0,0);stroke-width:2" />
<line x1="458.0" y1="280.99999999999994" x2="408.0" y2="278.0" style="stroke:rgb(255,0,0);stroke-width:2" />
<line x1="375.15790027001896" y1="418.99852070358486" x2="341.92388155425124" y2="381.5218613006978" style="stroke:rgb(255,0,0);stroke-width:2" />
<line x1="36.0" y1="342.0" x2="60.0" y2="277.0" style="stroke:rgb(255,0,0);stroke-width:2" />
<line x1="33.62532495691647" y1="163.7329726952412" x2="96.5578284825192" y2="134.7415946665928" style="stroke:rgb(255,0,0);stroke-width:2" />
<line x1="158.0" y1="36.0" x2="223.0" y2="60.0" style="stroke:rgb(255,0,0);stroke-width:2" />
<line x1="336.2670273047588" y1="33.62532495691647" x2="365.2584053334072" y2="96.5578284825192" style="stroke:rgb(255,0,0);stroke-width:2" />
<line x1="464.0" y1="157.99999999999997" x2="440.0" y2="222.99999999999997" style="stroke:rgb(255,0,0);stroke-width:2" />
<line x1="466.3746750430836" y1="336.2670273047588" x2="403.44217151748086" y2="365.2584053334072" style="stroke:rgb(255,0,0);stroke-width:2" />
<line x1="342.00000000000006" y1="464.0" x2="277.00000000000006" y2="440.0" style="stroke:rgb(255,0,0);stroke-width:2" />
<line x1="163.73297269524124" y1="466.3746750430836" x2="134.7415946665928" y2="403.4421715174808" style="stroke:rgb(255,0,0);stroke-width:2" />
<line x1="132.0" y1="204.0" x2="39.0" y2="366.0" style="stroke:rgb(255,0,0);stroke-width:2" />
<line x1="199.08831175456856" y1="134.0344878854062" x2="18.776082551998968" y2="182.824855787278" style="stroke:rgb(255,0,0);stroke-width:2" />
<line x1="296.0" y1="132.0" x2="134.0" y2="39.0" style="stroke:rgb(255,0,0);stroke-width:2" />
<line x1="365.9655121145938" y1="199.08831175456856" x2="317.175144212722" y2="18.776082551998968" style="stroke:rgb(255,0,0);stroke-width:2" />
<line x1="368.0" y1="296.0" x2="461.0" y2="133.99999999999997" style="stroke:rgb(255,0,0);stroke-width:2" />
<line x1="300.91168824543144" y1="365.9655121145938" x2="481.2239174480011" y2="317.175144212722" style="stroke:rgb(255,0,0);stroke-width:2" />
<line x1="204.00000000000003" y1="368.0" x2="366.00000000000006" y2="461.0" style="stroke:rgb(255,0,0);stroke-width:2" />
<line x1="134.03448788540624" y1="300.91168824543144" x2="182.82485578727807" y2="481.2239174480011" style="stroke:rgb(255,0,0);stroke-width:2" />
<line x1="56.0" y1="241.0" x2="138.0" y2="480.0" style="stroke:rgb(255,0,0);stroke-width:2" />
<line x1="119.1852454804887" y1="106.45732341913086" x2="8.169480834200783" y2="333.4386001800126" style="stroke:rgb(255,0,0);stroke-width:2" />
<line x1="259.0" y1="56.0" x2="20.0" y2="138.0" style="stroke:rgb(255,0,0);stroke-width:2" />
<line x1="393.54267658086917" y1="119.1852454804887" x2="166.56139981998737" y2="8.169480834200783" style="stroke:rgb(255,0,0);stroke-width:2" />
<line x1="444.0" y1="259.0" x2="362.0" y2="20.0" style="stroke:rgb(255,0,0);stroke-width:2" />
<line x1="380.8147545195113" y1="393.54267658086917" x2="491.8305191657993" y2="166.56139981998734" style="stroke:rgb(255,0,0);stroke-width:2" />
<line x1="241.00000000000003" y1="444.0" x2="480.0" y2="361.99999999999994" style="stroke:rgb(255,0,0);stroke-width:2" />
<line x1="106.45732341913089" y1="380.8147545195113" x2="333.43860018001266" y2="491.8305191657992" style="stroke:rgb(255,0,0);stroke-width:2" />
<line x1="61.0" y1="1.0" x2="1.0" y2="491.0" style="stroke:rgb(255,0,0);stroke-width:2" />
<line x1="292.42640687119285" y1="-59.712770159707816" x2="-96.48232278140824" y2="244.34314575050766" style="stroke:rgb(255,0,0);stroke-width:2" />
<line x1="499.0" y1="60.99999999999997" x2="8.999999999999972" y2="1.0000000000000284" style="stroke:rgb(255,0,0);stroke-width:2" />
<line x1="559.7127701597078" y1="292.42640687119285" x2="255.65685424949234" y2="-96.48232278140824" style="stroke:rgb(255,0,0);stroke-width:2" />
<line x1="439.0" y1="499.0" x2="499.0" y2="8.999999999999972" style="stroke:rgb(255,0,0);stroke-width:2" />
<line x1="207.5735931288072" y1="559.7127701597078" x2="596.4823227814084" y2="255.6568542494923" style="stroke:rgb(255,0,0);stroke-width:2" />
<line x1="1.0000000000000284" y1="439.00000000000006" x2="491.00000000000006" y2="498.99999999999994" style="stroke:rgb(255,0,0);stroke-width:2" />
<line x1="-59.712770159707816" y1="207.57359312880723" x2="244.34314575050772" y2="596.4823227814082" style="stroke:rgb(255,0,0);stroke-width:2" />
<line x1="174.0" y1="291.0" x2="193.0" y2="76.0" style="stroke:rgb(255,0,0);stroke-width:2" />
<line x1="167.26850660117395" y1="225.25126265847084" x2="332.73149339882605" y2="86.65833354590751" style="stroke:rgb(255,0,0);stroke-width:2" />
<line x1="209.0" y1="174.0" x2="424.0" y2="193.0" style="stroke:rgb(255,0,0);stroke-width:2" />
<line x1="274.74873734152914" y1="167.26850660117395" x2="413.3416664540925" y2="332.73149339882605" style="stroke:rgb(255,0,0);stroke-width:2" />
<line x1="326.0" y1="209.0" x2="307.0" y2="424.0" style="stroke:rgb(255,0,0);stroke-width:2" />
<line x1="332.73149339882605" y1="274.74873734152914" x2="167.26850660117395" y2="413.3416664540925" style="stroke:rgb(255,0,0);stroke-width:2" />
<line x1="291.0" y1="326.0" x2="76.0" y2="307.0" style="stroke:rgb(255,0,0);stroke-width:2" />
<line x1="225.25126265847086" y1="332.73149339882605" x2="86.65833354590751" y2="167.26850660117398" style="stroke:rgb(255,0,0);stroke-width:2" />
<line x1="35.0" y1="329.0" x2="174.0" y2="6.0" style="stroke:rgb(255,0,0);stroke-width:2" />
<line x1="42.110606331155026" y1="153.83347775862956" x2="368.7939392393399" y2="23.725830020304784" style="stroke:rgb(255,0,0);stroke-width:2" />
<line x1="171.0" y1="35.0" x2="494.0" y2="174.0" style="stroke:rgb(255,0,0);stroke-width:2" />
<line x1="346.16652224137044" y1="42.110606331155026" x2="476.2741699796952" y2="368.7939392393399" style="stroke:rgb(255,0,0);stroke-width:2" />
<line x1="465.0" y1="170.99999999999997" x2="326.0" y2="494.0" style="stroke:rgb(255,0,0);stroke-width:2" />
<line x1="457.889393668845" y1="346.16652224137044" x2="131.20606076066005" y2="476.2741699796952" style="stroke:rgb(255,0,0);stroke-width:2" />
<line x1="329.00000000000006" y1="465.0" x2="6.0" y2="326.00000000000006" style="stroke:rgb(255,0,0);stroke-width:2" />
<line x1="153.8334777586296" y1="457.889393668845" x2="23.725830020304784" y2="131.20606076066008" style="stroke:rgb(255,0,0);stroke-width:2" />
<line x1="210.0" y1="392.0" x2="60.0" y2="499.0" style="stroke:rgb(255,0,0);stroke-width:2" />
<line x1="121.30656582404836" y1="322.12489168102786" x2="-60.41987694089437" y2="291.7193000900063" style="stroke:rgb(255,0,0);stroke-width:2" />
<line x1="108.0" y1="210.0" x2="1.0" y2="60.00000000000003" style="stroke:rgb(255,0,0);stroke-width:2" />
<line x1="177.87510831897214" y1="121.30656582404836" x2="208.28069990999367" y2="-60.41987694089437" style="stroke:rgb(255,0,0);stroke-width:2" />
<line x1="290.0" y1="108.0" x2="440.0" y2="0.9999999999999716" style="stroke:rgb(255,0,0);stroke-width:2" />
<line x1="378.69343417595167" y1="177.87510831897214" x2="560.4198769408944" y2="208.28069990999364" style="stroke:rgb(255,0,0);stroke-width:2" />
<line x1="392.0" y1="290.0" x2="499.0" y2="439.99999999999994" style="stroke:rgb(255,0,0);stroke-width:2" />
<line x1="322.12489168102786" y1="378.69343417595167" x2="291.71930009000636" y2="560.4198769408944" style="stroke:rgb(255,0,0);stroke-width:2" />
<line x1="74.0" y1="84.0" x2="116.0" y2="479.0" style="stroke:rgb(255,0,0);stroke-width:2" />
<line x1="242.92893218813452" y1="8.169480834200755" x2="-6.679761570716721" y2="317.175144212722" style="stroke:rgb(255,0,0);stroke-width:2" />
<line x1="416.0" y1="74.0" x2="21.0" y2="116.0" style="stroke:rgb(255,0,0);stroke-width:2" />
<line x1="491.8305191657993" y1="242.92893218813452" x2="182.82485578727798" y2="-6.679761570716721" style="stroke:rgb(255,0,0);stroke-width:2" />
<line x1="426.0" y1="416.0" x2="384.0" y2="20.99999999999997" style="stroke:rgb(255,0,0);stroke-width:2" />
<line x1="257.07106781186553" y1="491.8305191657993" x2="506.6797615707168" y2="182.82485578727795" style="stroke:rgb(255,0,0);stroke-width:2" />
<line x1="84.00000000000003" y1="426.0" x2="479.0" y2="384.0" style="stroke:rgb(255,0,0);stroke-width:2" />
<line x1="8.169480834200755" y1="257.07106781186553" x2="317.17514421272205" y2="506.6797615707168" style="stroke:rgb(255,0,0);stroke-width:2" />
<line x1="168.0" y1="47.0" x2="218.0" y2="292.0" style="stroke:rgb(255,0,0);stroke-width:2" />
<line x1="335.55992052357226" y1="48.47456736183395" x2="197.6740981921955" y2="257.0710678118655" style="stroke:rgb(255,0,0);stroke-width:2" />
<line x1="453.0" y1="168.0" x2="208.0" y2="218.0" style="stroke:rgb(255,0,0);stroke-width:2" />
<line x1="451.5254326381661" y1="335.55992052357226" x2="242.92893218813452" y2="197.6740981921955" style="stroke:rgb(255,0,0);stroke-width:2" />
<line x1="332.0" y1="453.0" x2="282.0" y2="208.0" style="stroke:rgb(255,0,0);stroke-width:2" />
<line x1="164.44007947642777" y1="451.5254326381661" x2="302.32590180780454" y2="242.92893218813452" style="stroke:rgb(255,0,0);stroke-width:2" />
<line x1="47.00000000000003" y1="332.00000000000006" x2="292.0" y2="282.0" style="stroke:rgb(255,0,0);stroke-width:2" />
<line x1="48.47456736183395" y1="164.4400794764278" x2="257.0710678118655" y2="302.3259018078045" style="stroke:rgb(255,0,0);stroke-width:2" />
<line x1="104.0" y1="31.0" x2="215.0" y2="306.0" style="stroke:rgb(255,0,0);stroke-width:2" />
<line x1="301.61879502661793" y1="-8.093975133089828" x2="185.65328291202417" y2="264.8492424049175" style="stroke:rgb(255,0,0);stroke-width:2" />
<line x1="469.0" y1="104.0" x2="194.0" y2="215.0" style="stroke:rgb(255,0,0);stroke-width:2" />
<line x1="508.0939751330898" y1="301.61879502661793" x2="235.1507575950825" y2="185.65328291202417" style="stroke:rgb(255,0,0);stroke-width:2" />
<line x1="396.0" y1="469.0" x2="285.0" y2="194.0" style="stroke:rgb(255,0,0);stroke-width:2" />
<line x1="198.38120497338207" y1="508.0939751330899" x2="314.34671708797583" y2="235.1507575950825" style="stroke:rgb(255,0,0);stroke-width:2" />
<line x1="31.00000000000003" y1="396.0" x2="306.0" y2="285.0" style="stroke:rgb(255,0,0);stroke-width:2" />
<line x1="-8.093975133089884" y1="198.38120497338207" x2="264.8492424049175" y2="314.34671708797583" style="stroke:rgb(255,0,0);stroke-width:2" />
<line x1="69.0" y1="316.0" x2="160.0" y2="60.0" style="stroke:rgb(255,0,0);stroke-width:2" />
<line x1="75.34462504692277" y1="168.68272016354706" x2="320.71067811865476" y2="52.010101267766686" style="stroke:rgb(255,0,0);stroke-width:2" />
<line x1="184.0" y1="69.0" x2="440.0" y2="160.0" style="stroke:rgb(255,0,0);stroke-width:2" />
<line x1="331.31727983645294" y1="75.34462504692277" x2="447.9898987322333" y2="320.71067811865476" style="stroke:rgb(255,0,0);stroke-width:2" />
<line x1="431.0" y1="183.99999999999997" x2="340.0" y2="440.0" style="stroke:rgb(255,0,0);stroke-width:2" />
<line x1="424.6553749530773" y1="331.31727983645294" x2="179.2893218813453" y2="447.9898987322333" style="stroke:rgb(255,0,0);stroke-width:2" />
<line x1="316.0" y1="431.0" x2="60.00000000000003" y2="340.0" style="stroke:rgb(255,0,0);stroke-width:2" />
<line x1="168.68272016354706" y1="424.6553749530773" x2="52.010101267766686" y2="179.2893218813453" style="stroke:rgb(255,0,0);stroke-width:2" />
<line x1="143.0" y1="326.0" x2="37.0" y2="22.0" style="stroke:rgb(255,0,0);stroke-width:2" />
<line x1="120.59945904286181" y1="228.07968978321702" x2="260.6066017177982" y2="-61.834090503267475" style="stroke:rgb(255,0,0);stroke-width:2" />
<line x1="174.0" y1="143.0" x2="478.0" y2="37.0" style="stroke:rgb(255,0,0);stroke-width:2" />
<line x1="271.920310216783" y1="120.59945904286181" x2="561.8340905032675" y2="260.6066017177982" style="stroke:rgb(255,0,0);stroke-width:2" />
<line x1="357.0" y1="174.0" x2="463.0" y2="478.0" style="stroke:rgb(255,0,0);stroke-width:2" />
<line x1="379.4005409571382" y1="271.920310216783" x2="239.39339828220182" y2="561.8340905032675" style="stroke:rgb(255,0,0);stroke-width:2" />
<line x1="326.0" y1="357.0" x2="22.00000000000003" y2="463.0" style="stroke:rgb(255,0,0);stroke-width:2" />
<line x1="228.07968978321705" y1="379.4005409571382" x2="-61.834090503267475" y2="239.39339828220184" style="stroke:rgb(255,0,0);stroke-width:2" />
<line x1="91.0" y1="33.0" x2="3.0" y2="268.0" style="stroke:rgb(255,0,0);stroke-width:2" />
<line x1="291.01219330881975" y1="-15.872149726141856" x2="62.6167029855649" y2="88.07254710828062" style="stroke:rgb(255,0,0);stroke-width:2" />
<line x1="467.0" y1="91.0" x2="232.0" y2="3.0" style="stroke:rgb(255,0,0);stroke-width:2" />
<line x1="515.8721497261419" y1="291.01219330881975" x2="411.9274528917194" y2="62.6167029855649" style="stroke:rgb(255,0,0);stroke-width:2" />
<line x1="409.0" y1="467.0" x2="497.0" y2="231.99999999999997" style="stroke:rgb(255,0,0);stroke-width:2" />
<line x1="208.98780669118028" y1="515.872149726142" x2="437.38329701443513" y2="411.9274528917194" style="stroke:rgb(255,0,0);stroke-width:2" />
<line x1="33.00000000000003" y1="409.0" x2="268.00000000000006" y2="497.0" style="stroke:rgb(255,0,0);stroke-width:2" />
<line x1="-15.872149726141856" y1="208.9878066911803" x2="88.07254710828067" y2="437.38329701443513" style="stroke:rgb(255,0,0);stroke-width:2" />
<line x1="40.0" y1="175.0" x2="248.0" y2="124.0" style="stroke:rgb(255,0,0);stroke-width:2" />
<line x1="154.54058453981608" y1="48.47456736183398" x2="337.6812408671319" y2="159.49033200812192" style="stroke:rgb(255,0,0);stroke-width:2" />
<line x1="325.0" y1="40.0" x2="376.0" y2="248.0" style="stroke:rgb(255,0,0);stroke-width:2" />
<line x1="451.525432638166" y1="154.54058453981608" x2="340.5096679918781" y2="337.6812408671319" style="stroke:rgb(255,0,0);stroke-width:2" />
<line x1="460.0" y1="325.0" x2="252.00000000000003" y2="376.0" style="stroke:rgb(255,0,0);stroke-width:2" />
<line x1="345.45941546018395" y1="451.525432638166" x2="162.3187591328681" y2="340.50966799187813" style="stroke:rgb(255,0,0);stroke-width:2" />
<line x1="175.00000000000006" y1="460.0" x2="124.0" y2="252.00000000000003" style="stroke:rgb(255,0,0);stroke-width:2" />
<line x1="48.47456736183398" y1="345.45941546018395" x2="159.4903320081219" y2="162.31875913286814" style="stroke:rgb(255,0,0);stroke-width:2" />
<line x1="200.0" y1="474.0" x2="246.0" y2="253.0" style="stroke:rgb(255,0,0);stroke-width:2" />
<line x1="56.252741954886005" y1="373.03657992645924" x2="245.05025253169416" y2="249.29289321881345" style="stroke:rgb(255,0,0);stroke-width:2" />
<line x1="26.0" y1="200.0" x2="247.0" y2="246.0" style="stroke:rgb(255,0,0);stroke-width:2" />
<line x1="126.96342007354073" y1="56.252741954886005" x2="250.70710678118655" y2="245.05025253169416" style="stroke:rgb(255,0,0);stroke-width:2" />
<line x1="300.0" y1="26.0" x2="254.0" y2="247.0" style="stroke:rgb(255,0,0);stroke-width:2" />
<line x1="443.747258045114" y1="126.9634200735407" x2="254.94974746830584" y2="250.70710678118655" style="stroke:rgb(255,0,0);stroke-width:2" />
<line x1="474.0" y1="299.99999999999994" x2="253.0" y2="254.0" style="stroke:rgb(255,0,0);stroke-width:2" />
<line x1="373.0365799264593" y1="443.747258045114" x2="249.29289321881345" y2="254.94974746830584" style="stroke:rgb(255,0,0);stroke-width:2" />
<line x1="109.0" y1="233.0" x2="222.0" y2="55.0" style="stroke:rgb(255,0,0);stroke-width:2" />
<line x1="162.31875913286808" y1="138.2771285725255" x2="368.0868324581534" y2="92.31518779539991" style="stroke:rgb(255,0,0);stroke-width:2" />
<line x1="267.0" y1="109.0" x2="445.0" y2="222.0" style="stroke:rgb(255,0,0);stroke-width:2" />
<line x1="361.7228714274745" y1="162.31875913286808" x2="407.6848122046001" y2="368.0868324581534" style="stroke:rgb(255,0,0);stroke-width:2" />
<line x1="391.0" y1="267.0" x2="278.0" y2="445.0" style="stroke:rgb(255,0,0);stroke-width:2" />
<line x1="337.6812408671319" y1="361.7228714274745" x2="131.91316754184658" y2="407.6848122046001" style="stroke:rgb(255,0,0);stroke-width:2" />
<line x1="233.00000000000003" y1="391.0" x2="55.0" y2="278.00000000000006" style="stroke:rgb(255,0,0);stroke-width:2" />
<line x1="138.2771285725255" y1="337.6812408671319" x2="92.31518779539988" y2="131.91316754184658" style="stroke:rgb(255,0,0);stroke-width:2" />
<line x1="114.0" y1="107.0" x2="62.0" y2="89.0" style="stroke:rgb(255,0,0);stroke-width:2" />
<line x1="254.94974746830582" y1="52.71720804895324" x2="230.90811690796318" y2="3.2197333658949105" style="stroke:rgb(255,0,0);stroke-width:2" />
<line x1="393.0" y1="114.0" x2="411.0" y2="62.0" style="stroke:rgb(255,0,0);stroke-width:2" />
<line x1="447.28279195104676" y1="254.94974746830582" x2="496.7802666341051" y2="230.90811690796318" style="stroke:rgb(255,0,0);stroke-width:2" />
<line x1="386.0" y1="393.0" x2="438.0" y2="411.0" style="stroke:rgb(255,0,0);stroke-width:2" />
<line x1="245.05025253169418" y1="447.28279195104676" x2="269.0918830920368" y2="496.7802666341051" style="stroke:rgb(255,0,0);stroke-width:2" />
<line x1="107.00000000000003" y1="386.0" x2="89.00000000000003" y2="438.0" style="stroke:rgb(255,0,0);stroke-width:2" />
<line x1="52.71720804895324" y1="245.0502525316942" x2="3.2197333658949105" y2="269.0918830920368" style="stroke:rgb(255,0,0);stroke-width:2" />
<line x1="207.0" y1="451.0" x2="154.0" y2="108.0" style="stroke:rgb(255,0,0);stroke-width:2" />
<line x1="77.46594539048243" y1="361.7228714274745" x2="282.52691193458116" y2="81.7085860776017" style="stroke:rgb(255,0,0);stroke-width:2" />
<line x1="49.0" y1="207.0" x2="392.0" y2="154.0" style="stroke:rgb(255,0,0);stroke-width:2" />
<line x1="138.27712857252547" y1="77.46594539048243" x2="418.2914139223983" y2="282.52691193458116" style="stroke:rgb(255,0,0);stroke-width:2" />
<line x1="293.0" y1="49.0" x2="346.0" y2="392.0" style="stroke:rgb(255,0,0);stroke-width:2" />
<line x1="422.5340546095176" y1="138.27712857252544" x2="217.47308806541884" y2="418.2914139223983" style="stroke:rgb(255,0,0);stroke-width:2" />
<line x1="451.0" y1="292.99999999999994" x2="108.00000000000003" y2="346.0" style="stroke:rgb(255,0,0);stroke-width:2" />
<line x1="361.72287142747456" y1="422.53405460951757" x2="81.7085860776017" y2="217.47308806541884" style="stroke:rgb(255,0,0);stroke-width:2" />
<line x1="98.0" y1="372.0" x2="213.0" y2="16.0" style="stroke:rgb(255,0,0);stroke-width:2" />
<line x1="56.252741954886005" y1="228.78679656440357" x2="389.30003589374985" y2="58.37406229844561" style="stroke:rgb(255,0,0);stroke-width:2" />
<line x1="127.99999999999999" y1="98.0" x2="484.0" y2="213.0" style="stroke:rgb(255,0,0);stroke-width:2" />
<line x1="271.2132034355964" y1="56.252741954886005" x2="441.6259377015544" y2="389.30003589374985" style="stroke:rgb(255,0,0);stroke-width:2" />
<line x1="402.0" y1="127.99999999999999" x2="287.0" y2="484.0" style="stroke:rgb(255,0,0);stroke-width:2" />
<line x1="443.74725804511405" y1="271.21320343559637" x2="110.69996410625018" y2="441.6259377015544" style="stroke:rgb(255,0,0);stroke-width:2" />
<line x1="372.0" y1="402.0" x2="16.0" y2="287.00000000000006" style="stroke:rgb(255,0,0);stroke-width:2" />
<line x1="228.78679656440363" y1="443.747258045114" x2="58.37406229844561" y2="110.69996410625018" style="stroke:rgb(255,0,0);stroke-width:2" />
</svg>
