<svg width="500" height="500">
<rect width="500" height="500" style="fill:rgb(255,255,255)" />
<line x1="330.20950013114856" y1="271.76846608256886" x2="281.0" y2="229.0" style="stroke:rgb(255,0,0);stroke-width:2" />
<line x1="292.0867047357155" y1="333.0" x2="287.3580067712821" y2="265.47419306789095" style="stroke:rgb(255,0,0);stroke-width:2" />
<line x1="228.23153391743114" y1="330.20950013114856" x2="271.0" y2="281.0" style="stroke:rgb(255,0,0);stroke-width:2" />
<line x1="166.99999999999997" y1="292.0867047357155" x2="234.52580693210905" y2="287.3580067712821" style="stroke:rgb(255,0,0);stroke-width:2" />
<line x1="169.79049986885144" y1="228.23153391743114" x2="219.0" y2="271.0" style="stroke:rgb(255,0,0);stroke-width:2" />
<line x1="207.91329526428447" y1="166.99999999999997" x2="212.6419932287179" y2="234.52580693210905" style="stroke:rgb(255,0,0);stroke-width:2" />
<line x1="271.76846608256886" y1="169.79049986885144" x2="229.0" y2="219.0" style="stroke:rgb(255,0,0);stroke-width:2" />
<line x1="333.0" y1="207.91329526428447" x2="265.47419306789095" y2="212.6419932287179" style="stroke:rgb(255,0,0);stroke-width:2" />
<line x1="271.3598691384951" y1="170.26063249727366" x2="281.0" y2="237.0" style="stroke:rgb(255,0,0);stroke-width:2" />
<line x1="333.0" y1="193.3202328709349" x2="286.5491846683014" y2="255.45573909385644" style="stroke:rgb(255,0,0);stroke-width:2" />
<line x1="329.73936750272634" y1="271.3598691384951" x2="263.0" y2="281.0" style="stroke:rgb(255,0,0);stroke-width:2" />
<line x1="306.6797671290651" y1="333.0" x2="244.54426090614356" y2="286.5491846683014" style="stroke:rgb(255,0,0);stroke-width:2" />
<line x1="228.64013086150493" y1="329.73936750272634" x2="219.0" y2="263.0" style="stroke:rgb(255,0,0);stroke-width:2" />
<line x1="167.0" y1="306.6797671290651" x2="213.45081533169864" y2="244.54426090614356" style="stroke:rgb(255,0,0);stroke-width:2" />
<line x1="170.2606324972737" y1="228.64013086150493" x2="237.0" y2="219.0" style="stroke:rgb(255,0,0);stroke-width:2" />
<line x1="193.32023287093486" y1="167.0" x2="255.45573909385644" y2="213.45081533169864" style="stroke:rgb(255,0,0);stroke-width:2" />
<line x1="306.3265306122449" y1="333.0" x2="274.2520858164482" y2="309.71632896305124" style="stroke:rgb(255,0,0);stroke-width:2" />
<line x1="228.23153391743114" y1="330.20950013114856" x2="223.1299423149112" y2="298.0832611206852" style="stroke:rgb(255,0,0);stroke-width:2" />
<line x1="167.0" y1="306.3265306122449" x2="190.28367103694873" y2="274.2520858164482" style="stroke:rgb(255,0,0);stroke-width:2" />
<line x1="169.79049986885144" y1="228.23153391743114" x2="201.91673887931478" y2="223.1299423149112" style="stroke:rgb(255,0,0);stroke-width:2" />
<line x1="193.67346938775506" y1="167.0" x2="225.74791418355184" y2="190.28367103694876" style="stroke:rgb(255,0,0);stroke-width:2" />
<line x1="271.76846608256886" y1="169.79049986885144" x2="276.8700576850888" y2="201.91673887931475" style="stroke:rgb(255,0,0);stroke-width:2" />
<line x1="333.0" y1="193.6734693877551" x2="309.71632896305124" y2="225.74791418355184" style="stroke:rgb(255,0,0);stroke-width:2" />
<line x1="330.20950013114856" y1="271.76846608256886" x2="298.0832611206852" y2="276.8700576850888" style="stroke:rgb(255,0,0);stroke-width:2" />
<line x1="333.0" y1="229.68" x2="258.4988895871541" y2="253.52035533211068" style="stroke:rgb(255,0,0);stroke-width:2" />
<line x1="333.0" y1="299.44294896152127" x2="253.52035533211068" y2="258.49888958715405" style="stroke:rgb(255,0,0);stroke-width:2" />
<line x1="270.32" y1="333.0" x2="246.47964466788932" y2="258.4988895871541" style="stroke:rgb(255,0,0);stroke-width:2" />
<line x1="200.55705103847873" y1="333.0" x2="241.50111041284592" y2="253.52035533211068" style="stroke:rgb(255,0,0);stroke-width:2" />
<line x1="167.0" y1="270.32" x2="241.50111041284592" y2="246.47964466788932" style="stroke:rgb(255,0,0);stroke-width:2" />
<line x1="167.0" y1="200.55705103847873" x2="246.47964466788932" y2="241.50111041284592" style="stroke:rgb(255,0,0);stroke-width:2" />
<line x1="229.67999999999998" y1="167.0" x2="253.52035533211068" y2="241.50111041284592" style="stroke:rgb(255,0,0);stroke-width:2" />
<line x1="299.44294896152127" y1="167.0" x2="258.49888958715405" y2="246.47964466788932" style="stroke:rgb(255,0,0);stroke-width:2" />
<line x1="169.79049986885144" y1="271.76846608256886" x2="219.0" y2="229.0" style="stroke:rgb(255,0,0);stroke-width:2" />
<line x1="166.99999999999997" y1="207.9132952642845" x2="234.52580693210905" y2="212.6419932287179" style="stroke:rgb(255,0,0);stroke-width:2" />
<line x1="228.23153391743114" y1="169.79049986885144" x2="271.0" y2="219.0" style="stroke:rgb(255,0,0);stroke-width:2" />
<line x1="292.0867047357155" y1="166.99999999999997" x2="287.35800677128213" y2="234.52580693210905" style="stroke:rgb(255,0,0);stroke-width:2" />
<line x1="330.20950013114856" y1="228.2315339174311" x2="281.0" y2="271.0" style="stroke:rgb(255,0,0);stroke-width:2" />
<line x1="333.0" y1="292.0867047357155" x2="265.47419306789095" y2="287.3580067712821" style="stroke:rgb(255,0,0);stroke-width:2" />
<line x1="271.76846608256886" y1="330.20950013114856" x2="229.0" y2="281.0" style="stroke:rgb(255,0,0);stroke-width:2" />
<line x1="207.91329526428453" y1="333.0" x2="212.64199322871792" y2="265.47419306789095" style="stroke:rgb(255,0,0);stroke-width:2" />
<line x1="228.64013086150493" y1="170.2606324972737" x2="219.0" y2="237.0" style="stroke:rgb(255,0,0);stroke-width:2" />
<line x1="306.67976712906506" y1="167.0" x2="244.54426090614353" y2="213.45081533169864" style="stroke:rgb(255,0,0);stroke-width:2" />
<line x1="329.7393675027263" y1="228.6401308615049" x2="263.0" y2="219.0" style="stroke:rgb(255,0,0);stroke-width:2" />
<line x1="333.0" y1="306.6797671290651" x2="286.5491846683014" y2="244.54426090614356" style="stroke:rgb(255,0,0);stroke-width:2" />
<line x1="271.3598691384951" y1="329.73936750272634" x2="281.0" y2="263.0" style="stroke:rgb(255,0,0);stroke-width:2" />
<line x1="193.32023287093492" y1="333.0" x2="255.45573909385644" y2="286.5491846683014" style="stroke:rgb(255,0,0);stroke-width:2" />
<line x1="170.26063249727366" y1="271.3598691384951" x2="237.0" y2="281.0" style="stroke:rgb(255,0,0);stroke-width:2" />
<line x1="167.0" y1="193.32023287093494" x2="213.45081533169864" y2="255.45573909385644" style="stroke:rgb(255,0,0);stroke-width:2" />
<line x1="193.67346938775512" y1="333.0" x2="225.74791418355187" y2="309.71632896305124" style="stroke:rgb(255,0,0);stroke-width:2" />
<line x1="169.79049986885144" y1="271.76846608256886" x2="201.91673887931478" y2="276.8700576850888" style="stroke:rgb(255,0,0);stroke-width:2" />
<line x1="167.0" y1="193.67346938775512" x2="190.28367103694876" y2="225.74791418355187" style="stroke:rgb(255,0,0);stroke-width:2" />
<line x1="228.23153391743114" y1="169.79049986885144" x2="223.1299423149112" y2="201.91673887931478" style="stroke:rgb(255,0,0);stroke-width:2" />
<line x1="306.3265306122449" y1="167.0" x2="274.2520858164482" y2="190.2836710369487" style="stroke:rgb(255,0,0);stroke-width:2" />
<line x1="330.20950013114856" y1="228.2315339174311" x2="298.0832611206852" y2="223.12994231491118" style="stroke:rgb(255,0,0);stroke-width:2" />
<line x1="333.0" y1="306.3265306122449" x2="309.7163289630513" y2="274.2520858164482" style="stroke:rgb(255,0,0);stroke-width:2" />
<line x1="271.76846608256886" y1="330.20950013114856" x2="276.8700576850888" y2="298.0832611206852" style="stroke:rgb(255,0,0);stroke-width:2" />
<line x1="167.0" y1="229.68" x2="241.50111041284592" y2="253.52035533211068" style="stroke:rgb(255,0,0);stroke-width:2" />
<line x1="200.55705103847868" y1="167.0" x2="241.50111041284592" y2="246.47964466788932" style="stroke:rgb(255,0,0);stroke-width:2" />
<line x1="270.32" y1="167.0" x2="246.47964466788932" y2="241.50111041284592" style="stroke:rgb(255,0,0);stroke-width:2" />
<line x1="333.0" y1="200.55705103847868" x2="253.52035533211068" y2="241.50111041284592" style="stroke:rgb(255,0,0);stroke-width:2" />
<line x1="333.0" y1="270.32" x2="258.49888958715405" y2="246.47964466788932" style="stroke:rgb(255,0,0);stroke-width:2" />
<line x1="299.4429489615213" y1="333.0" x2="258.4988895871541" y2="253.52035533211068" style="stroke:rgb(255,0,0);stroke-width:2" />
<line x1="229.68" y1="333.0" x2="253.52035533211068" y2="258.49888958715405" style="stroke:rgb(255,0,0);stroke-width:2" />
<line x1="167.0" y1="299.4429489615213" x2="246.47964466788932" y2="258.4988895871541" style="stroke:rgb(255,0,0);stroke-width:2" />
</svg>
