<svg width="500" height="500">
<rect width="500" height="500" style="fill:rgb(255,255,255)" />
<line x1="163.20950013114856" y1="104.76846608256886" x2="114.0" y2="62.0" style="stroke:rgb(255,0,0);stroke-width:2" />
<line x1="125.0867047357155" y1="166.0" x2="120.35800677128208" y2="98.47419306789095" style="stroke:rgb(255,0,0);stroke-width:2" />
<line x1="61.231533917431136" y1="163.20950013114856" x2="104.0" y2="114.0" style="stroke:rgb(255,0,0);stroke-width:2" />
<line x1="-2.842170943040401e-14" y1="125.0867047357155" x2="67.52580693210905" y2="120.35800677128208" style="stroke:rgb(255,0,0);stroke-width:2" />
<line x1="2.790499868851441" y1="61.231533917431136" x2="52.0" y2="104.0" style="stroke:rgb(255,0,0);stroke-width:2" />
<line x1="40.91329526428447" y1="-2.842170943040401e-14" x2="45.641993228717894" y2="67.52580693210905" style="stroke:rgb(255,0,0);stroke-width:2" />
<line x1="104.76846608256886" y1="2.790499868851441" x2="62.0" y2="52.0" style="stroke:rgb(255,0,0);stroke-width:2" />
<line x1="166.0" y1="40.91329526428447" x2="98.47419306789095" y2="45.641993228717894" style="stroke:rgb(255,0,0);stroke-width:2" />
<line x1="104.35986913849513" y1="3.2606324972736616" x2="114.0" y2="70.0" style="stroke:rgb(255,0,0);stroke-width:2" />
<line x1="166.0" y1="26.320232870934888" x2="119.5491846683014" y2="88.45573909385644" style="stroke:rgb(255,0,0);stroke-width:2" />
<line x1="162.73936750272634" y1="104.35986913849513" x2="96.0" y2="114.0" style="stroke:rgb(255,0,0);stroke-width:2" />
<line x1="139.6797671290651" y1="166.0" x2="77.54426090614356" y2="119.5491846683014" style="stroke:rgb(255,0,0);stroke-width:2" />
<line x1="61.64013086150493" y1="162.73936750272634" x2="52.0" y2="96.0" style="stroke:rgb(255,0,0);stroke-width:2" />
<line x1="0.0" y1="139.6797671290651" x2="46.450815331698635" y2="77.54426090614356" style="stroke:rgb(255,0,0);stroke-width:2" />
<line x1="3.26063249727369" y1="61.64013086150493" x2="70.0" y2="52.0" style="stroke:rgb(255,0,0);stroke-width:2" />
<line x1="26.32023287093486" y1="0.0" x2="88.45573909385644" y2="46.450815331698635" style="stroke:rgb(255,0,0);stroke-width:2" />
<line x1="139.32653061224488" y1="166.0" x2="107.25208581644819" y2="142.71632896305124" style="stroke:rgb(255,0,0);stroke-width:2" />
<line x1="61.231533917431136" y1="163.20950013114856" x2="56.129942314911204" y2="131.08326112068522" style="stroke:rgb(255,0,0);stroke-width:2" />
<line x1="0.0" y1="139.32653061224488" x2="23.283671036948732" y2="107.25208581644819" style="stroke:rgb(255,0,0);stroke-width:2" />
<line x1="2.790499868851441" y1="61.231533917431136" x2="34.91673887931478" y2="56.129942314911204" style="stroke:rgb(255,0,0);stroke-width:2" />
<line x1="26.673469387755063" y1="0.0" x2="58.74791418355184" y2="23.28367103694876" style="stroke:rgb(255,0,0);stroke-width:2" />
<line x1="104.76846608256886" y1="2.790499868851441" x2="109.8700576850888" y2="34.91673887931475" style="stroke:rgb(255,0,0);stroke-width:2" />
<line x1="166.0" y1="26.67346938775509" x2="142.71632896305124" y2="58.74791418355184" style="stroke:rgb(255,0,0);stroke-width:2" />
<line x1="163.20950013114856" y1="104.76846608256886" x2="131.08326112068522" y2="109.8700576850888" style="stroke:rgb(255,0,0);stroke-width:2" />
<line x1="166.0" y1="62.68000000000001" x2="91.49888958715411" y2="86.52035533211068" style="stroke:rgb(255,0,0);stroke-width:2" />
<line x1="166.0" y1="132.44294896152127" x2="86.52035533211068" y2="91.49888958715405" style="stroke:rgb(255,0,0);stroke-width:2" />
<line x1="103.32" y1="166.0" x2="79.47964466788932" y2="91.49888958715411" style="stroke:rgb(255,0,0);stroke-width:2" />
<line x1="33.55705103847873" y1="166.0" x2="74.50111041284592" y2="86.52035533211068" style="stroke:rgb(255,0,0);stroke-width:2" />
<line x1="0.0" y1="103.32" x2="74.50111041284592" y2="79.47964466788932" style="stroke:rgb(255,0,0);stroke-width:2" />
<line x1="0.0" y1="33.55705103847873" x2="79.47964466788932" y2="74.50111041284592" style="stroke:rgb(255,0,0);stroke-width:2" />
<line x1="62.67999999999998" y1="0.0" x2="86.52035533211068" y2="74.50111041284592" style="stroke:rgb(255,0,0);stroke-width:2" />
<line x1="132.44294896152127" y1="0.0" x2="91.49888958715405" y2="79.47964466788932" style="stroke:rgb(255,0,0);stroke-width:2" />
<line x1="2.790499868851441" y1="104.76846608256886" x2="52.0" y2="62.0" style="stroke:rgb(255,0,0);stroke-width:2" />
<line x1="-2.842170943040401e-14" y1="40.9132952642845" x2="67.52580693210905" y2="45.641993228717894" style="stroke:rgb(255,0,0);stroke-width:2" />
<line x1="61.231533917431136" y1="2.790499868851441" x2="104.0" y2="52.0" style="stroke:rgb(255,0,0);stroke-width:2" />
<line x1="125.0867047357155" y1="-2.842170943040401e-14" x2="120.35800677128213" y2="67.52580693210905" style="stroke:rgb(255,0,0);stroke-width:2" />
<line x1="163.20950013114856" y1="61.23153391743111" x2="114.0" y2="104.0" style="stroke:rgb(255,0,0);stroke-width:2" />
<line x1="166.0" y1="125.0867047357155" x2="98.47419306789095" y2="120.35800677128208" style="stroke:rgb(255,0,0);stroke-width:2" />
<line x1="104.76846608256886" y1="163.20950013114856" x2="62.0" y2="114.0" style="stroke:rgb(255,0,0);stroke-width:2" />
<line x1="40.91329526428453" y1="166.0" x2="45.64199322871792" y2="98.47419306789095" style="stroke:rgb(255,0,0);stroke-width:2" />
<line x1="61.64013086150493" y1="3.26063249727369" x2="52.0" y2="70.0" style="stroke:rgb(255,0,0);stroke-width:2" />
<line x1="139.67976712906506" y1="0.0" x2="77.54426090614353" y2="46.450815331698635" style="stroke:rgb(255,0,0);stroke-width:2" />
<line x1="162.73936750272628" y1="61.6401308615049" x2="96.0" y2="52.0" style="stroke:rgb(255,0,0);stroke-width:2" />
<line x1="166.0" y1="139.6797671290651" x2="119.5491846683014" y2="77.54426090614356" style="stroke:rgb(255,0,0);stroke-width:2" />
<line x1="104.35986913849513" y1="162.73936750272634" x2="114.0" y2="96.0" style="stroke:rgb(255,0,0);stroke-width:2" />
<line x1="26.320232870934916" y1="166.0" x2="88.45573909385644" y2="119.5491846683014" style="stroke:rgb(255,0,0);stroke-width:2" />
<line x1="3.2606324972736616" y1="104.35986913849513" x2="70.0" y2="114.0" style="stroke:rgb(255,0,0);stroke-width:2" />
<line x1="0.0" y1="26.320232870934944" x2="46.450815331698635" y2="88.45573909385644" style="stroke:rgb(255,0,0);stroke-width:2" />
<line x1="26.67346938775512" y1="166.0" x2="58.74791418355187" y2="142.71632896305124" style="stroke:rgb(255,0,0);stroke-width:2" />
<line x1="2.790499868851441" y1="104.76846608256886" x2="34.91673887931478" y2="109.8700576850888" style="stroke:rgb(255,0,0);stroke-width:2" />
<line x1="0.0" y1="26.67346938775512" x2="23.28367103694876" y2="58.74791418355187" style="stroke:rgb(255,0,0);stroke-width:2" />
<line x1="61.231533917431136" y1="2.790499868851441" x2="56.129942314911204" y2="34.91673887931478" style="stroke:rgb(255,0,0);stroke-width:2" />
<line x1="139.32653061224488" y1="0.0" x2="107.25208581644819" y2="23.283671036948704" style="stroke:rgb(255,0,0);stroke-width:2" />
<line x1="163.20950013114856" y1="61.23153391743111" x2="131.08326112068522" y2="56.129942314911176" style="stroke:rgb(255,0,0);stroke-width:2" />
<line x1="166.0" y1="139.32653061224488" x2="142.7163289630513" y2="107.25208581644819" style="stroke:rgb(255,0,0);stroke-width:2" />
<line x1="104.76846608256886" y1="163.20950013114856" x2="109.8700576850888" y2="131.08326112068522" style="stroke:rgb(255,0,0);stroke-width:2" />
<line x1="0.0" y1="62.68000000000001" x2="74.50111041284592" y2="86.52035533211068" style="stroke:rgb(255,0,0);stroke-width:2" />
<line x1="33.557051038478676" y1="0.0" x2="74.50111041284592" y2="79.47964466788932" style="stroke:rgb(255,0,0);stroke-width:2" />
<line x1="103.32" y1="0.0" x2="79.47964466788932" y2="74.50111041284592" style="stroke:rgb(255,0,0);stroke-width:2" />
<line x1="166.0" y1="33.557051038478676" x2="86.52035533211068" y2="74.50111041284592" style="stroke:rgb(255,0,0);stroke-width:2" />
<line x1="166.0" y1="103.32" x2="91.49888958715405" y2="79.47964466788932" style="stroke:rgb(255,0,0);stroke-width:2" />
<line x1="132.44294896152132" y1="166.0" x2="91.49888958715411" y2="86.52035533211068" style="stroke:rgb(255,0,0);stroke-width:2" />
<line x1="62.68000000000001" y1="166.0" x2="86.52035533211068" y2="91.49888958715405" style="stroke:rgb(255,0,0);stroke-width:2" />
<line x1="0.0" y1="132.44294896152132" x2="79.47964466788932" y2="91.49888958715411" style="stroke:rgb(255,0,0);stroke-width:2" />
<line x1="330.20950013114856" y1="104.76846608256886" x2="281.0" y2="62.0" style="stroke:rgb(255,0,0);stroke-width:2" />
<line x1="292.0867047357155" y1="166.0" x2="287.3580067712821" y2="98.47419306789095" style="stroke:rgb(255,0,0);stroke-width:2" />
<line x1="228.23153391743114" y1="163.20950013114856" x2="271.0" y2="114.0" style="stroke:rgb(255,0,0);stroke-width:2" />
<line x1="166.99999999999997" y1="125.0867047357155" x2="234.52580693210905" y2="120.35800677128208" style="stroke:rgb(255,0,0);stroke-width:2" />
<line x1="169.79049986885144" y1="61.231533917431136" x2="219.0" y2="104.0" style="stroke:rgb(255,0,0);stroke-width:2" />
<line x1="207.91329526428447" y1="-2.842170943040401e-14" x2="212.6419932287179" y2="67.52580693210905" style="stroke:rgb(255,0,0);stroke-width:2" />
<line x1="271.76846608256886" y1="2.790499868851441" x2="229.0" y2="52.0" style="stroke:rgb(255,0,0);stroke-width:2" />
<line x1="333.0" y1="40.91329526428447" x2="265.47419306789095" y2="45.641993228717894" style="stroke:rgb(255,0,0);stroke-width:2" />
<line x1="271.3598691384951" y1="3.2606324972736616" x2="281.0" y2="70.0" style="stroke:rgb(255,0,0);stroke-width:2" />
<line x1="333.0" y1="26.320232870934888" x2="286.5491846683014" y2="88.45573909385644" style="stroke:rgb(255,0,0);stroke-width:2" />
<line x1="329.73936750272634" y1="104.35986913849513" x2="263.0" y2="114.0" style="stroke:rgb(255,0,0);stroke-width:2" />
<line x1="306.6797671290651" y1="166.0" x2="244.54426090614356" y2="119.5491846683014" style="stroke:rgb(255,0,0);stroke-width:2" />
<line x1="228.64013086150493" y1="162.73936750272634" x2="219.0" y2="96.0" style="stroke:rgb(255,0,0);stroke-width:2" />
<line x1="167.0" y1="139.6797671290651" x2="213.45081533169864" y2="77.54426090614356" style="stroke:rgb(255,0,0);stroke-width:2" />
<line x1="170.2606324972737" y1="61.64013086150493" x2="237.0" y2="52.0" style="stroke:rgb(255,0,0);stroke-width:2" />
<line x1="193.32023287093486" y1="0.0" x2="255.45573909385644" y2="46.450815331698635" style="stroke:rgb(255,0,0);stroke-width:2" />
<line x1="306.3265306122449" y1="166.0" x2="274.2520858164482" y2="142.71632896305124" style="stroke:rgb(255,0,0);stroke-width:2" />
<line x1="228.23153391743114" y1="163.20950013114856" x2="223.1299423149112" y2="131.08326112068522" style="stroke:rgb(255,0,0);stroke-width:2" />
<line x1="167.0" y1="139.32653061224488" x2="190.28367103694873" y2="107.25208581644819" style="stroke:rgb(255,0,0);stroke-width:2" />
<line x1="169.79049986885144" y1="61.231533917431136" x2="201.91673887931478" y2="56.129942314911204" style="stroke:rgb(255,0,0);stroke-width:2" />
<line x1="193.67346938775506" y1="0.0" x2="225.74791418355184" y2="23.28367103694876" style="stroke:rgb(255,0,0);stroke-width:2" />
<line x1="271.76846608256886" y1="2.790499868851441" x2="276.8700576850888" y2="34.91673887931475" style="stroke:rgb(255,0,0);stroke-width:2" />
<line x1="333.0" y1="26.67346938775509" x2="309.71632896305124" y2="58.74791418355184" style="stroke:rgb(255,0,0);stroke-width:2" />
<line x1="330.20950013114856" y1="104.76846608256886" x2="298.0832611206852" y2="109.8700576850888" style="stroke:rgb(255,0,0);stroke-width:2" />
<line x1="333.0" y1="62.68000000000001" x2="258.4988895871541" y2="86.52035533211068" style="stroke:rgb(255,0,0);stroke-width:2" />
<line x1="333.0" y1="132.44294896152127" x2="253.52035533211068" y2="91.49888958715405" style="stroke:rgb(255,0,0);stroke-width:2" />
<line x1="270.32" y1="166.0" x2="246.47964466788932" y2="91.49888958715411" style="stroke:rgb(255,0,0);stroke-width:2" />
<line x1="200.55705103847873" y1="166.0" x2="241.50111041284592" y2="86.52035533211068" style="stroke:rgb(255,0,0);stroke-width:2" />
<line x1="167.0" y1="103.32" x2="241.50111041284592" y2="79.47964466788932" style="stroke:rgb(255,0,0);stroke-width:2" />
<line x1="167.0" y1="33.55705103847873" x2="246.47964466788932" y2="74.50111041284592" style="stroke:rgb(255,0,0);stroke-width:2" />
<line x1="229.67999999999998" y1="0.0" x2="253.52035533211068" y2="74.50111041284592" style="stroke:rgb(255,0,0);stroke-width:2" />
<line x1="299.44294896152127" y1="0.0" x2="258.49888958715405" y2="79.47964466788932" style="stroke:rgb(255,0,0);stroke-width:2" />
<line x1="169.79049986885144" y1="104.76846608256886" x2="219.0" y2="62.0" style="stroke:rgb(255,0,0);stroke-width:2" />
<line x1="166.99999999999997" y1="40.9132952642845" x2="234.52580693210905" y2="45.641993228717894" style="stroke:rgb(255,0,0);stroke-width:2" />
<line x1="228.23153391743114" y1="2.790499868851441" x2="271.0" y2="52.0" style="stroke:rgb(255,0,0);stroke-width:2" />
<line x1="292.0867047357155" y1="-2.842170943040401e-14" x2="287.35800677128213" y2="67.52580693210905" style="stroke:rgb(255,0,0);stroke-width:2" />
<line x1="330.20950013114856" y1="61.23153391743111" x2="281.0" y2="104.0" style="stroke:rgb(255,0,0);stroke-width:2" />
<line x1="333.0" y1="125.0867047357155" x2="265.47419306789095" y2="120.35800677128208" style="stroke:rgb(255,0,0);stroke-width:2" />
<line x1="271.76846608256886" y1="163.20950013114856" x2="229.0" y2="114.0" style="stroke:rgb(255,0,0);stroke-width:2" />
<line x1="207.91329526428453" y1="166.0" x2="212.64199322871792" y2="98.47419306789095" style="stroke:rgb(255,0,0);stroke-width:2" />
<line x1="228.64013086150493" y1="3.26063249727369" x2="219.0" y2="70.0" style="stroke:rgb(255,0,0);stroke-width:2" />
<line x1="306.67976712906506" y1="0.0" x2="244.54426090614353" y2="46.450815331698635" style="stroke:rgb(255,0,0);stroke-width:2" />
<line x1="329.7393675027263" y1="61.6401308615049" x2="263.0" y2="52.0" style="stroke:rgb(255,0,0);stroke-width:2" />
<line x1="333.0" y1="139.6797671290651" x2="286.5491846683014" y2="77.54426090614356" style="stroke:rgb(255,0,0);stroke-width:2" />
<line x1="271.3598691384951" y1="162.73936750272634" x2="281.0" y2="96.0" style="stroke:rgb(255,0,0);stroke-width:2" />
<line x1="193.32023287093492" y1="166.0" x2="255.45573909385644" y2="119.5491846683014" style="stroke:rgb(255,0,0);stroke-width:2" />
<line x1="170.26063249727366" y1="104.35986913849513" x2="237.0" y2="114.0" style="stroke:rgb(255,0,0);stroke-width:2" />
<line x1="167.0" y1="26.320232870934944" x2="213.45081533169864" y2="88.45573909385644" style="stroke:rgb(255,0,0);stroke-width:2" />
<line x1="193.67346938775512" y1="166.0" x2="225.74791418355187" y2="142.71632896305124" style="stroke:rgb(255,0,0);stroke-width:2" />
<line x1="169.79049986885144" y1="104.76846608256886" x2="201.91673887931478" y2="109.8700576850888" style="stroke:rgb(255,0,0);stroke-width:2" />
<line x1="167.0" y1="26.67346938775512" x2="190.28367103694876" y2="58.74791418355187" style="stroke:rgb(255,0,0);stroke-width:2" />
<line x1="228.23153391743114" y1="2.790499868851441" x2="223.1299423149112" y2="34.91673887931478" style="stroke:rgb(255,0,0);stroke-width:2" />
<line x1="306.3265306122449" y1="0.0" x2="274.2520858164482" y2="23.283671036948704" style="stroke:rgb(255,0,0);stroke-width:2" />
<line x1="330.20950013114856" y1="61.23153391743111" x2="298.0832611206852" y2="56.129942314911176" style="stroke:rgb(255,0,0);stroke-width:2" />
<line x1="333.0" y1="139.32653061224488" x2="309.7163289630513" y2="107.25208581644819" style="stroke:rgb(255,0,0);stroke-width:2" />
<line x1="271.76846608256886" y1="163.20950013114856" x2="276.8700576850888" y2="131.08326112068522" style="stroke:rgb(255,0,0);stroke-width:2" />
<line x1="167.0" y1="62.68000000000001" x2="241.50111041284592" y2="86.52035533211068" style="stroke:rgb(255,0,0);stroke-width:2" />
<line x1="200.55705103847868" y1="0.0" x2="241.50111041284592" y2="79.47964466788932" style="stroke:rgb(255,0,0);stroke-width:2" />
<line x1="270.32" y1="0.0" x2="246.47964466788932" y2="74.50111041284592" style="stroke:rgb(255,0,0);stroke-width:2" />
<line x1="333.0" y1="33.557051038478676" x2="253.52035533211068" y2="74.50111041284592" style="stroke:rgb(255,0,0);stroke-width:2" />
<line x1="333.0" y1="103.32" x2="258.49888958715405" y2="79.47964466788932" style="stroke:rgb(255,0,0);stroke-width:2" />
<line x1="299.4429489615213" y1="166.0" x2="258.4988895871541" y2="86.52035533211068" style="stroke:rgb(255,0,0);stroke-width:2" />
<line x1="229.68" y1="166.0" x2="253.52035533211068" y2="91.49888958715405" style="stroke:rgb(255,0,0);stroke-width:2" />
<line x1="167.0" y1="132.44294896152132" x2="246.47964466788932" y2="91.49888958715411" style="stroke:rgb(255,0,0);stroke-width:2" />
<line x1="497.20950013114856" y1="104.76846608256886" x2="448.0" y2="62.0" style="stroke:rgb(255,0,0);stroke-width:2" />
<line x1="459.0867047357155" y1="166.0" x2="454.3580067712821" y2="98.47419306789095" style="stroke:rgb(255,0,0);stroke-width:2" />
<line x1="395.23153391743114" y1="163.20950013114856" x2="438.0" y2="114.0" style="stroke:rgb(255,0,0);stroke-width:2" />
<line x1="334.0" y1="125.0867047357155" x2="401.52580693210905" y2="120.35800677128208" style="stroke:rgb(255,0,0);stroke-width:2" />
<line x1="336.79049986885144" y1="61.231533917431136" x2="386.0" y2="104.0" style="stroke:rgb(255,0,0);stroke-width:2" />
<line x1="374.91329526428444" y1="-2.842170943040401e-14" x2="379.64199322871787" y2="67.52580693210905" style="stroke:rgb(255,0,0);stroke-width:2" />
<line x1="438.76846608256886" y1="2.790499868851441" x2="396.0" y2="52.0" style="stroke:rgb(255,0,0);stroke-width:2" />
<line x1="500.0" y1="40.91329526428447" x2="432.47419306789095" y2="45.641993228717894" style="stroke:rgb(255,0,0);stroke-width:2" />
<line x1="438.3598691384951" y1="3.2606324972736616" x2="448.0" y2="70.0" style="stroke:rgb(255,0,0);stroke-width:2" />
<line x1="500.0" y1="26.320232870934888" x2="453.5491846683014" y2="88.45573909385644" style="stroke:rgb(255,0,0);stroke-width:2" />
<line x1="496.73936750272634" y1="104.35986913849513" x2="430.0" y2="114.0" style="stroke:rgb(255,0,0);stroke-width:2" />
<line x1="473.6797671290651" y1="166.0" x2="411.54426090614356" y2="119.5491846683014" style="stroke:rgb(255,0,0);stroke-width:2" />
<line x1="395.64013086150493" y1="162.73936750272634" x2="386.0" y2="96.0" style="stroke:rgb(255,0,0);stroke-width:2" />
<line x1="334.0" y1="139.6797671290651" x2="380.45081533169866" y2="77.54426090614356" style="stroke:rgb(255,0,0);stroke-width:2" />
<line x1="337.2606324972737" y1="61.64013086150493" x2="404.0" y2="52.0" style="stroke:rgb(255,0,0);stroke-width:2" />
<line x1="360.3202328709349" y1="0.0" x2="422.45573909385644" y2="46.450815331698635" style="stroke:rgb(255,0,0);stroke-width:2" />
<line x1="473.3265306122449" y1="166.0" x2="441.2520858164482" y2="142.71632896305124" style="stroke:rgb(255,0,0);stroke-width:2" />
<line x1="395.23153391743114" y1="163.20950013114856" x2="390.1299423149112" y2="131.08326112068522" style="stroke:rgb(255,0,0);stroke-width:2" />
<line x1="334.0" y1="139.32653061224488" x2="357.2836710369487" y2="107.25208581644819" style="stroke:rgb(255,0,0);stroke-width:2" />
<line x1="336.79049986885144" y1="61.231533917431136" x2="368.9167388793148" y2="56.129942314911204" style="stroke:rgb(255,0,0);stroke-width:2" />
<line x1="360.67346938775506" y1="0.0" x2="392.74791418355187" y2="23.28367103694876" style="stroke:rgb(255,0,0);stroke-width:2" />
<line x1="438.76846608256886" y1="2.790499868851441" x2="443.8700576850888" y2="34.91673887931475" style="stroke:rgb(255,0,0);stroke-width:2" />
<line x1="500.0" y1="26.67346938775509" x2="476.71632896305124" y2="58.74791418355184" style="stroke:rgb(255,0,0);stroke-width:2" />
<line x1="497.20950013114856" y1="104.76846608256886" x2="465.0832611206852" y2="109.8700576850888" style="stroke:rgb(255,0,0);stroke-width:2" />
<line x1="500.0" y1="62.68000000000001" x2="425.4988895871541" y2="86.52035533211068" style="stroke:rgb(255,0,0);stroke-width:2" />
<line x1="500.0" y1="132.44294896152127" x2="420.5203553321107" y2="91.49888958715405" style="stroke:rgb(255,0,0);stroke-width:2" />
<line x1="437.32" y1="166.0" x2="413.4796446678893" y2="91.49888958715411" style="stroke:rgb(255,0,0);stroke-width:2" />
<line x1="367.55705103847873" y1="166.0" x2="408.50111041284595" y2="86.52035533211068" style="stroke:rgb(255,0,0);stroke-width:2" />
<line x1="334.0" y1="103.32" x2="408.50111041284595" y2="79.47964466788932" style="stroke:rgb(255,0,0);stroke-width:2" />
<line x1="334.0" y1="33.55705103847873" x2="413.4796446678893" y2="74.50111041284592" style="stroke:rgb(255,0,0);stroke-width:2" />
<line x1="396.67999999999995" y1="0.0" x2="420.5203553321107" y2="74.50111041284592" style="stroke:rgb(255,0,0);stroke-width:2" />
<line x1="466.44294896152127" y1="0.0" x2="425.49888958715405" y2="79.47964466788932" style="stroke:rgb(255,0,0);stroke-width:2" />
<line x1="336.79049986885144" y1="104.76846608256886" x2="386.0" y2="62.0" style="stroke:rgb(255,0,0);stroke-width:2" />
<line x1="334.0" y1="40.9132952642845" x2="401.52580693210905" y2="45.641993228717894" style="stroke:rgb(255,0,0);stroke-width:2" />
<line x1="395.23153391743114" y1="2.790499868851441" x2="438.0" y2="52.0" style="stroke:rgb(255,0,0);stroke-width:2" />
<line x1="459.0867047357155" y1="-2.842170943040401e-14" x2="454.35800677128213" y2="67.52580693210905" style="stroke:rgb(255,0,0);stroke-width:2" />
<line x1="497.20950013114856" y1="61.23153391743111" x2="448.0" y2="104.0" style="stroke:rgb(255,0,0);stroke-width:2" />
<line x1="500.0" y1="125.0867047357155" x2="432.47419306789095" y2="120.35800677128208" style="stroke:rgb(255,0,0);stroke-width:2" />
<line x1="438.76846608256886" y1="163.20950013114856" x2="396.0" y2="114.0" style="stroke:rgb(255,0,0);stroke-width:2" />
<line x1="374.91329526428456" y1="166.0" x2="379.6419932287179" y2="98.47419306789095" style="stroke:rgb(255,0,0);stroke-width:2" />
<line x1="395.64013086150493" y1="3.26063249727369" x2="386.0" y2="70.0" style="stroke:rgb(255,0,0);stroke-width:2" />
<line x1="473.67976712906506" y1="0.0" x2="411.54426090614356" y2="46.450815331698635" style="stroke:rgb(255,0,0);stroke-width:2" />
<line x1="496.7393675027263" y1="61.6401308615049" x2="430.0" y2="52.0" style="stroke:rgb(255,0,0);stroke-width:2" />
<line x1="500.0" y1="139.6797671290651" x2="453.5491846683014" y2="77.54426090614356" style="stroke:rgb(255,0,0);stroke-width:2" />
<line x1="438.3598691384951" y1="162.73936750272634" x2="448.0" y2="96.0" style="stroke:rgb(255,0,0);stroke-width:2" />
<line x1="360.3202328709349" y1="166.0" x2="422.45573909385644" y2="119.5491846683014" style="stroke:rgb(255,0,0);stroke-width:2" />
<line x1="337.26063249727366" y1="104.35986913849513" x2="404.0" y2="114.0" style="stroke:rgb(255,0,0);stroke-width:2" />
<line x1="334.0" y1="26.320232870934944" x2="380.45081533169866" y2="88.45573909385644" style="stroke:rgb(255,0,0);stroke-width:2" />
<line x1="360.6734693877551" y1="166.0" x2="392.74791418355187" y2="142.71632896305124" style="stroke:rgb(255,0,0);stroke-width:2" />
<line x1="336.79049986885144" y1="104.76846608256886" x2="368.9167388793148" y2="109.8700576850888" style="stroke:rgb(255,0,0);stroke-width:2" />
<line x1="334.0" y1="26.67346938775512" x2="357.28367103694876" y2="58.74791418355187" style="stroke:rgb(255,0,0);stroke-width:2" />
<line x1="395.23153391743114" y1="2.790499868851441" x2="390.1299423149112" y2="34.91673887931478" style="stroke:rgb(255,0,0);stroke-width:2" />
<line x1="473.3265306122449" y1="0.0" x2="441.2520858164482" y2="23.283671036948704" style="stroke:rgb(255,0,0);stroke-width:2" />
<line x1="497.20950013114856" y1="61.23153391743111" x2="465.0832611206852" y2="56.129942314911176" style="stroke:rgb(255,0,0);stroke-width:2" />
<line x1="500.0" y1="139.32653061224488" x2="476.7163289630513" y2="107.25208581644819" style="stroke:rgb(255,0,0);stroke-width:2" />
<line x1="438.76846608256886" y1="163.20950013114856" x2="443.8700576850888" y2="131.08326112068522" style="stroke:rgb(255,0,0);stroke-width:2" />
<line x1="334.0" y1="62.68000000000001" x2="408.50111041284595" y2="86.52035533211068" style="stroke:rgb(255,0,0);stroke-width:2" />
<line x1="367.5570510384787" y1="0.0" x2="408.50111041284595" y2="79.47964466788932" style="stroke:rgb(255,0,0);stroke-width:2" />
<line x1="437.32" y1="0.0" x2="413.4796446678893" y2="74.50111041284592" style="stroke:rgb(255,0,0);stroke-width:2" />
<line x1="500.0" y1="33.557051038478676" x2="420.5203553321107" y2="74.50111041284592" style="stroke:rgb(255,0,0);stroke-width:2" />
<line x1="500.0" y1="103.32" x2="425.49888958715405" y2="79.47964466788932" style="stroke:rgb(255,0,0);stroke-width:2" />
<line x1="466.4429489615213" y1="166.0" x2="425.4988895871541" y2="86.52035533211068" style="stroke:rgb(255,0,0);stroke-width:2" />
<line x1="396.68" y1="166.0" x2="420.5203553321107" y2="91.49888958715405" style="stroke:rgb(255,0,0);stroke-width:2" />
<line x1="334.0" y1="132.44294896152132" x2="413.4796446678893" y2="91.49888958715411" style="stroke:rgb(255,0,0);stroke-width:2" />
<line x1="163.20950013114856" y1="271.76846608256886" x2="114.0" y2="229.0" style="stroke:rgb(255,0,0);stroke-width:2" />
<line x1="125.0867047357155" y1="333.0" x2="120.35800677128208" y2="265.47419306789095" style="stroke:rgb(255,0,0);stroke-width:2" />
<line x1="61.231533917431136" y1="330.20950013114856" x2="104.0" y2="281.0" style="stroke:rgb(255,0,0);stroke-width:2" />
<line x1="-2.842170943040401e-14" y1="292.0867047357155" x2="67.52580693210905" y2="287.3580067712821" style="stroke:rgb(255,0,0);stroke-width:2" />
<line x1="2.790499868851441" y1="228.23153391743114" x2="52.0" y2="271.0" style="stroke:rgb(255,0,0);stroke-width:2" />
<line x1="40.91329526428447" y1="166.99999999999997" x2="45.641993228717894" y2="234.52580693210905" style="stroke:rgb(255,0,0);stroke-width:2" />
<line x1="104.76846608256886" y1="169.79049986885144" x2="62.0" y2="219.0" style="stroke:rgb(255,0,0);stroke-width:2" />
<line x1="166.0" y1="207.91329526428447" x2="98.47419306789095" y2="212.6419932287179" style="stroke:rgb(255,0,0);stroke-width:2" />
<line x1="104.35986913849513" y1="170.26063249727366" x2="114.0" y2="237.0" style="stroke:rgb(255,0,0);stroke-width:2" />
<line x1="166.0" y1="193.3202328709349" x2="119.5491846683014" y2="255.45573909385644" style="stroke:rgb(255,0,0);stroke-width:2" />
<line x1="162.73936750272634" y1="271.3598691384951" x2="96.0" y2="281.0" style="stroke:rgb(255,0,0);stroke-width:2" />
<line x1="139.6797671290651" y1="333.0" x2="77.54426090614356" y2="286.5491846683014" style="stroke:rgb(255,0,0);stroke-width:2" />
<line x1="61.64013086150493" y1="329.73936750272634" x2="52.0" y2="263.0" style="stroke:rgb(255,0,0);stroke-width:2" />
<line x1="0.0" y1="306.6797671290651" x2="46.450815331698635" y2="244.54426090614356" style="stroke:rgb(255,0,0);stroke-width:2" />
<line x1="3.26063249727369" y1="228.64013086150493" x2="70.0" y2="219.0" style="stroke:rgb(255,0,0);stroke-width:2" />
<line x1="26.32023287093486" y1="167.0" x2="88.45573909385644" y2="213.45081533169864" style="stroke:rgb(255,0,0);stroke-width:2" />
<line x1="139.32653061224488" y1="333.0" x2="107.25208581644819" y2="309.71632896305124" style="stroke:rgb(255,0,0);stroke-width:2" />
<line x1="61.231533917431136" y1="330.20950013114856" x2="56.129942314911204" y2="298.0832611206852" style="stroke:rgb(255,0,0);stroke-width:2" />
<line x1="0.0" y1="306.3265306122449" x2="23.283671036948732" y2="274.2520858164482" style="stroke:rgb(255,0,0);stroke-width:2" />
<line x1="2.790499868851441" y1="228.23153391743114" x2="34.91673887931478" y2="223.1299423149112" style="stroke:rgb(255,0,0);stroke-width:2" />
<line x1="26.673469387755063" y1="167.0" x2="58.74791418355184" y2="190.28367103694876" style="stroke:rgb(255,0,0);stroke-width:2" />
<line x1="104.76846608256886" y1="169.79049986885144" x2="109.8700576850888" y2="201.91673887931475" style="stroke:rgb(255,0,0);stroke-width:2" />
<line x1="166.0" y1="193.6734693877551" x2="142.71632896305124" y2="225.74791418355184" style="stroke:rgb(255,0,0);stroke-width:2" />
<line x1="163.20950013114856" y1="271.76846608256886" x2="131.08326112068522" y2="276.8700576850888" style="stroke:rgb(255,0,0);stroke-width:2" />
<line x1="166.0" y1="229.68" x2="91.49888958715411" y2="253.52035533211068" style="stroke:rgb(255,0,0);stroke-width:2" />
<line x1="166.0" y1="299.44294896152127" x2="86.52035533211068" y2="258.49888958715405" style="stroke:rgb(255,0,0);stroke-width:2" />
<line x1="103.32" y1="333.0" x2="79.47964466788932" y2="258.4988895871541" style="stroke:rgb(255,0,0);stroke-width:2" />
<line x1="33.55705103847873" y1="333.0" x2="74.50111041284592" y2="253.52035533211068" style="stroke:rgb(255,0,0);stroke-width:2" />
<line x1="0.0" y1="270.32" x2="74.50111041284592" y2="246.47964466788932" style="stroke:rgb(255,0,0);stroke-width:2" />
<line x1="0.0" y1="200.55705103847873" x2="79.47964466788932" y2="241.50111041284592" style="stroke:rgb(255,0,0);stroke-width:2" />
<line x1="62.67999999999998" y1="167.0" x2="86.52035533211068" y2="241.50111041284592" style="stroke:rgb(255,0,0);stroke-width:2" />
<line x1="132.44294896152127" y1="167.0" x2="91.49888958715405" y2="246.47964466788932" style="stroke:rgb(255,0,0);stroke-width:2" />
<line x1="2.790499868851441" y1="271.76846608256886" x2="52.0" y2="229.0" style="stroke:rgb(255,0,0);stroke-width:2" />
<line x1="-2.842170943040401e-14" y1="207.9132952642845" x2="67.52580693210905" y2="212.6419932287179" style="stroke:rgb(255,0,0);stroke-width:2" />
<line x1="61.231533917431136" y1="169.79049986885144" x2="104.0" y2="219.0" style="stroke:rgb(255,0,0);stroke-width:2" />
<line x1="125.0867047357155" y1="166.99999999999997" x2="120.35800677128213" y2="234.52580693210905" style="stroke:rgb(255,0,0);stroke-width:2" />
<line x1="163.20950013114856" y1="228.2315339174311" x2="114.0" y2="271.0" style="stroke:rgb(255,0,0);stroke-width:2" />
<line x1="166.0" y1="292.0867047357155" x2="98.47419306789095" y2="287.3580067712821" style="stroke:rgb(255,0,0);stroke-width:2" />
<line x1="104.76846608256886" y1="330.20950013114856" x2="62.0" y2="281.0" style="stroke:rgb(255,0,0);stroke-width:2" />
<line x1="40.91329526428453" y1="333.0" x2="45.64199322871792" y2="265.47419306789095" style="stroke:rgb(255,0,0);stroke-width:2" />
<line x1="61.64013086150493" y1="170.2606324972737" x2="52.0" y2="237.0" style="stroke:rgb(255,0,0);stroke-width:2" />
<line x1="139.67976712906506" y1="167.0" x2="77.54426090614353" y2="213.45081533169864" style="stroke:rgb(255,0,0);stroke-width:2" />
<line x1="162.73936750272628" y1="228.6401308615049" x2="96.0" y2="219.0" style="stroke:rgb(255,0,0);stroke-width:2" />
<line x1="166.0" y1="306.6797671290651" x2="119.5491846683014" y2="244.54426090614356" style="stroke:rgb(255,0,0);stroke-width:2" />
<line x1="104.35986913849513" y1="329.73936750272634" x2="114.0" y2="263.0" style="stroke:rgb(255,0,0);stroke-width:2" />
<line x1="26.320232870934916" y1="333.0" x2="88.45573909385644" y2="286.5491846683014" style="stroke:rgb(255,0,0);stroke-width:2" />
<line x1="3.2606324972736616" y1="271.3598691384951" x2="70.0" y2="281.0" style="stroke:rgb(255,0,0);stroke-width:2" />
<line x1="0.0" y1="193.32023287093494" x2="46.450815331698635" y2="255.45573909385644" style="stroke:rgb(255,0,0);stroke-width:2" />
<line x1="26.67346938775512" y1="333.0" x2="58.74791418355187" y2="309.71632896305124" style="stroke:rgb(255,0,0);stroke-width:2" />
<line x1="2.790499868851441" y1="271.76846608256886" x2="34.91673887931478" y2="276.8700576850888" style="stroke:rgb(255,0,0);stroke-width:2" />
<line x1="0.0" y1="193.67346938775512" x2="23.28367103694876" y2="225.74791418355187" style="stroke:rgb(255,0,0);stroke-width:2" />
<line x1="61.231533917431136" y1="169.79049986885144" x2="56.129942314911204" y2="201.91673887931478" style="stroke:rgb(255,0,0);stroke-width:2" />
<line x1="139.32653061224488" y1="167.0" x2="107.25208581644819" y2="190.2836710369487" style="stroke:rgb(255,0,0);stroke-width:2" />
<line x1="163.20950013114856" y1="228.2315339174311" x2="131.08326112068522" y2="223.12994231491118" style="stroke:rgb(255,0,0);stroke-width:2" />
<line x1="166.0" y1="306.3265306122449" x2="142.7163289630513" y2="274.2520858164482" style="stroke:rgb(255,0,0);stroke-width:2" />
<line x1="104.76846608256886" y1="330.20950013114856" x2="109.8700576850888" y2="298.0832611206852" style="stroke:rgb(255,0,0);stroke-width:2" />
<line x1="0.0" y1="229.68" x2="74.50111041284592" y2="253.52035533211068" style="stroke:rgb(255,0,0);stroke-width:2" />
<line x1="33.557051038478676" y1="167.0" x2="74.50111041284592" y2="246.47964466788932" style="stroke:rgb(255,0,0);stroke-width:2" />
<line x1="103.32" y1="167.0" x2="79.47964466788932" y2="241.50111041284592" style="stroke:rgb(255,0,0);stroke-width:2" />
<line x1="166.0" y1="200.55705103847868" x2="86.52035533211068" y2="241.50111041284592" style="stroke:rgb(255,0,0);stroke-width:2" />
<line x1="166.0" y1="270.32" x2="91.49888958715405" y2="246.47964466788932" style="stroke:rgb(255,0,0);stroke-width:2" />
<line x1="132.44294896152132" y1="333.0" x2="91.49888958715411" y2="253.52035533211068" style="stroke:rgb(255,0,0);stroke-width:2" />
<line x1="62.68000000000001" y1="333.0" x2="86.52035533211068" y2="258.49888958715405" style="stroke:rgb(255,0,0);stroke-width:2" />
<line x1="0.0" y1="299.4429489615213" x2="79.47964466788932" y2="258.4988895871541" style="stroke:rgb(255,0,0);stroke-width:2" />
<line x1="330.20950013114856" y1="271.76846608256886" x2="281.0" y2="229.0" style="stroke:rgb(255,0,0);stroke-width:2" />
<line x1="292.0867047357155" y1="333.0" x2="287.3580067712821" y2="265.47419306789095" style="stroke:rgb(255,0,0);stroke-width:2" />
<line x1="228.23153391743114" y1="330.20950013114856" x2="271.0" y2="281.0" style="stroke:rgb(255,0,0);stroke-width:2" />
<line x1="166.99999999999997" y1="292.0867047357155" x2="234.52580693210905" y2="287.3580067712821" style="stroke:rgb(255,0,0);stroke-width:2" />
<line x1="169.79049986885144" y1="228.23153391743114" x2="219.0" y2="271.0" style="stroke:rgb(255,0,0);stroke-width:2" />
<line x1="207.91329526428447" y1="166.99999999999997" x2="212.6419932287179" y2="234.52580693210905" style="stroke:rgb(255,0,0);stroke-width:2" />
<line x1="271.76846608256886" y1="169.79049986885144" x2="229.0" y2="219.0" style="stroke:rgb(255,0,0);stroke-width:2" />
<line x1="333.0" y1="207.91329526428447" x2="265.47419306789095" y2="212.6419932287179" style="stroke:rgb(255,0,0);stroke-width:2" />
<line x1="271.3598691384951" y1="170.26063249727366" x2="281.0" y2="237.0" style="stroke:rgb(255,0,0);stroke-width:2" />
<line x1="333.0" y1="193.3202328709349" x2="286.5491846683014" y2="255.45573909385644" style="stroke:rgb(255,0,0);stroke-width:2" />
<line x1="329.73936750272634" y1="271.3598691384951" x2="263.0" y2="281.0" style="stroke:rgb(255,0,0);stroke-width:2" />
<line x1="306.6797671290651" y1="333.0" x2="244.54426090614356" y2="286.5491846683014" style="stroke:rgb(255,0,0);stroke-width:2" />
<line x1="228.64013086150493" y1="329.73936750272634" x2="219.0" y2="263.0" style="stroke:rgb(255,0,0);stroke-width:2" />
<line x1="167.0" y1="306.6797671290651" x2="213.45081533169864" y2="244.54426090614356" style="stroke:rgb(255,0,0);stroke-width:2" />
<line x1="170.2606324972737" y1="228.64013086150493" x2="237.0" y2="219.0" style="stroke:rgb(255,0,0);stroke-width:2" />
<line x1="193.32023287093486" y1="167.0" x2="255.45573909385644" y2="213.45081533169864" style="stroke:rgb(255,0,0);stroke-width:2" />
<line x1="306.3265306122449" y1="333.0" x2="274.2520858164482" y2="309.71632896305124" style="stroke:rgb(255,0,0);stroke-width:2" />
<line x1="228.23153391743114" y1="330.20950013114856" x2="223.1299423149112" y2="298.0832611206852" style="stroke:rgb(255,0,0);stroke-width:2" />
<line x1="167.0" y1="306.3265306122449" x2="190.28367103694873" y2="274.2520858164482" style="stroke:rgb(255,0,0);stroke-width:2" />
<line x1="169.79049986885144" y1="228.23153391743114" x2="201.91673887931478" y2="223.1299423149112" style="stroke:rgb(255,0,0);stroke-width:2" />
<line x1="193.67346938775506" y1="167.0" x2="225.74791418355184" y2="190.28367103694876" style="stroke:rgb(255,0,0);stroke-width:2" />
<line x1="271.76846608256886" y1="169.79049986885144" x2="276.8700576850888" y2="201.91673887931475" style="stroke:rgb(255,0,0);stroke-width:2" />
<line x1="333.0" y1="193.6734693877551" x2="309.71632896305124" y2="225.74791418355184" style="stroke:rgb(255,0,0);stroke-width:2" />
<line x1="330.20950013114856" y1="271.76846608256886" x2="298.0832611206852" y2="276.8700576850888" style="stroke:rgb(255,0,0);stroke-width:2" />
<line x1="333.0" y1="229.68" x2="258.4988895871541" y2="253.52035533211068" style="stroke:rgb(255,0,0);stroke-width:2" />
<line x1="333.0" y1="299.44294896152127" x2="253.52035533211068" y2="258.49888958715405" style="stroke:rgb(255,0,0);stroke-width:2" />
<line x1="270.32" y1="333.0" x2="246.47964466788932" y2="258.4988895871541" style="stroke:rgb(255,0,0);stroke-width:2" />
<line x1="200.55705103847873" y1="333.0" x2="241.50111041284592" y2="253.52035533211068" style="stroke:rgb(255,0,0);stroke-width:2" />
<line x1="167.0" y1="270.32" x2="241.50111041284592" y2="246.47964466788932" style="stroke:rgb(255,0,0);stroke-width:2" />
<line x1="167.0" y1="200.55705103847873" x2="246.47964466788932" y2="241.50111041284592" style="stroke:rgb(255,0,0);stroke-width:2" />
<line x1="229.67999999999998" y1="167.0" x2="253.52035533211068" y2="241.50111041284592" style="stroke:rgb(255,0,0);stroke-width:2" />
<line x1="299.44294896152127" y1="167.0" x2="258.49888958715405" y2="246.47964466788932" style="stroke:rgb(255,0,0);stroke-width:2" />
<line x1="169.79049986885144" y1="271.76846608256886" x2="219.0" y2="229.0" style="stroke:rgb(255,0,0);stroke-width:2" />
<line x1="166.99999999999997" y1="207.9132952642845" x2="234.52580693210905" y2="212.6419932287179" style="stroke:rgb(255,0,0);stroke-width:2" />
<line x1="228.23153391743114" y1="169.79049986885144" x2="271.0" y2="219.0" style="stroke:rgb(255,0,0);stroke-width:2" />
<line x1="292.0867047357155" y1="166.99999999999997" x2="287.35800677128213" y2="234.52580693210905" style="stroke:rgb(255,0,0);stroke-width:2" />
<line x1="330.20950013114856" y1="228.2315339174311" x2="281.0" y2="271.0" style="stroke:rgb(255,0,0);stroke-width:2" />
<line x1="333.0" y1="292.0867047357155" x2="265.47419306789095" y2="287.3580067712821" style="stroke:rgb(255,0,0);stroke-width:2" />
<line x1="271.76846608256886" y1="330.20950013114856" x2="229.0" y2="281.0" style="stroke:rgb(255,0,0);stroke-width:2" />
<line x1="207.91329526428453" y1="333.0" x2="212.64199322871792" y2="265.47419306789095" style="stroke:rgb(255,0,0);stroke-width:2" />
<line x1="228.64013086150493" y1="170.2606324972737" x2="219.0" y2="237.0" style="stroke:rgb(255,0,0);stroke-width:2" />
<line x1="306.67976712906506" y1="167.0" x2="244.54426090614353" y2="213.45081533169864" style="stroke:rgb(255,0,0);stroke-width:2" />
<line x1="329.7393675027263" y1="228.6401308615049" x2="263.0" y2="219.0" style="stroke:rgb(255,0,0);stroke-width:2" />
<line x1="333.0" y1="306.6797671290651" x2="286.5491846683014" y2="244.54426090614356" style="stroke:rgb(255,0,0);stroke-width:2" />
<line x1="271.3598691384951" y1="329.73936750272634" x2="281.0" y2="263.0" style="stroke:rgb(255,0,0);stroke-width:2" />
<line x1="193.32023287093492" y1="333.0" x2="255.45573909385644" y2="286.5491846683014" style="stroke:rgb(255,0,0);stroke-width:2" />
<line x1="170.26063249727366" y1="271.3598691384951" x2="237.0" y2="281.0" style="stroke:rgb(255,0,0);stroke-width:2" />
<line x1="167.0" y1="193.32023287093494" x2="213.45081533169864" y2="255.45573909385644" style="stroke:rgb(255,0,0);stroke-width:2" />
<line x1="193.67346938775512" y1="333.0" x2="225.74791418355187" y2="309.71632896305124" style="stroke:rgb(255,0,0);stroke-width:2" />
<line x1="169.79049986885144" y1="271.76846608256886" x2="201.91673887931478" y2="276.8700576850888" style="stroke:rgb(255,0,0);stroke-width:2" />
<line x1="167.0" y1="193.67346938775512" x2="190.28367103694876" y2="225.74791418355187" style="stroke:rgb(255,0,0);stroke-width:2" />
<line x1="228.23153391743114" y1="169.79049986885144" x2="223.1299423149112" y2="201.91673887931478" style="stroke:rgb(255,0,0);stroke-width:2" />
<line x1="306.3265306122449" y1="167.0" x2="274.2520858164482" y2="190.2836710369487" style="stroke:rgb(255,0,0);stroke-width:2" />
<line x1="330.20950013114856" y1="228.2315339174311" x2="298.0832611206852" y2="223.12994231491118" style="stroke:rgb(255,0,0);stroke-width:2" />
<line x1="333.0" y1="306.3265306122449" x2="309.7163289630513" y2="274.2520858164482" style="stroke:rgb(255,0,0);stroke-width:2" />
<line x1="271.76846608256886" y1="330.20950013114856" x2="276.8700576850888" y2="298.0832611206852" style="stroke:rgb(255,0,0);stroke-width:2" />
<line x1="167.0" y1="229.68" x2="241.50111041284592" y2="253.52035533211068" style="stroke:rgb(255,0,0);stroke-width:2" />
<line x1="200.55705103847868" y1="167.0" x2="241.50111041284592" y2="246.47964466788932" style="stroke:rgb(255,0,0);stroke-width:2" />
<line x1="270.32" y1="167.0" x2="246.47964466788932" y2="241.50111041284592" style="stroke:rgb(255,0,0);stroke-width:2" />
<line x1="333.0" y1="200.55705103847868" x2="253.52035533211068" y2="241.50111041284592" style="stroke:rgb(255,0,0);stroke-width:2" />
<line x1="333.0" y1="270.32" x2="258.49888958715405" y2="246.47964466788932" style="stroke:rgb(255,0,0);stroke-width:2" />
<line x1="299.4429489615213" y1="333.0" x2="258.4988895871541" y2="253.52035533211068" style="stroke:rgb(255,0,0);stroke-width:2" />
<line x1="229.68" y1="333.0" x2="253.52035533211068" y2="258.49888958715405" style="stroke:rgb(255,0,0);stroke-width:2" />
<line x1="167.0" y1="299.4429489615213" x2="246.47964466788932" y2="258.4988895871541" style="stroke:rgb(255,0,0);stroke-width:2" />
<line x1="497.20950013114856" y1="271.76846608256886" x2="448.0" y2="229.0" style="stroke:rgb(255,0,0);stroke-width:2" />
<line x1="459.0867047357155" y1="333.0" x2="454.3580067712821" y2="265.47419306789095" style="stroke:rgb(255,0,0);stroke-width:2" />
<line x1="395.23153391743114" y1="330.20950013114856" x2="438.0" y2="281.0" style="stroke:rgb(255,0,0);stroke-width:2" />
<line x1="334.0" y1="292.0867047357155" x2="401.52580693210905" y2="287.3580067712821" style="stroke:rgb(255,0,0);stroke-width:2" />
<line x1="336.79049986885144" y1="228.23153391743114" x2="386.0" y2="271.0" style="stroke:rgb(255,0,0);stroke-width:2" />
<line x1="374.91329526428444" y1="166.99999999999997" x2="379.64199322871787" y2="234.52580693210905" style="stroke:rgb(255,0,0);stroke-width:2" />
<line x1="438.76846608256886" y1="169.79049986885144" x2="396.0" y2="219.0" style="stroke:rgb(255,0,0);stroke-width:2" />
<line x1="500.0" y1="207.91329526428447" x2="432.47419306789095" y2="212.6419932287179" style="stroke:rgb(255,0,0);stroke-width:2" />
<line x1="438.3598691384951" y1="170.26063249727366" x2="448.0" y2="237.0" style="stroke:rgb(255,0,0);stroke-width:2" />
<line x1="500.0" y1="193.3202328709349" x2="453.5491846683014" y2="255.45573909385644" style="stroke:rgb(255,0,0);stroke-width:2" />
<line x1="496.73936750272634" y1="271.3598691384951" x2="430.0" y2="281.0" style="stroke:rgb(255,0,0);stroke-width:2" />
<line x1="473.6797671290651" y1="333.0" x2="411.54426090614356" y2="286.5491846683014" style="stroke:rgb(255,0,0);stroke-width:2" />
<line x1="395.64013086150493" y1="329.73936750272634" x2="386.0" y2="263.0" style="stroke:rgb(255,0,0);stroke-width:2" />
<line x1="334.0" y1="306.6797671290651" x2="380.45081533169866" y2="244.54426090614356" style="stroke:rgb(255,0,0);stroke-width:2" />
<line x1="337.2606324972737" y1="228.64013086150493" x2="404.0" y2="219.0" style="stroke:rgb(255,0,0);stroke-width:2" />
<line x1="360.3202328709349" y1="167.0" x2="422.45573909385644" y2="213.45081533169864" style="stroke:rgb(255,0,0);stroke-width:2" />
<line x1="473.3265306122449" y1="333.0" x2="441.2520858164482" y2="309.71632896305124" style="stroke:rgb(255,0,0);stroke-width:2" />
<line x1="395.23153391743114" y1="330.20950013114856" x2="390.1299423149112" y2="298.0832611206852" style="stroke:rgb(255,0,0);stroke-width:2" />
<line x1="334.0" y1="306.3265306122449" x2="357.2836710369487" y2="274.2520858164482" style="stroke:rgb(255,0,0);stroke-width:2" />
<line x1="336.79049986885144" y1="228.23153391743114" x2="368.9167388793148" y2="223.1299423149112" style="stroke:rgb(255,0,0);stroke-width:2" />
<line x1="360.67346938775506" y1="167.0" x2="392.74791418355187" y2="190.28367103694876" style="stroke:rgb(255,0,0);stroke-width:2" />
<line x1="438.76846608256886" y1="169.79049986885144" x2="443.8700576850888" y2="201.91673887931475" style="stroke:rgb(255,0,0);stroke-width:2" />
<line x1="500.0" y1="193.6734693877551" x2="476.71632896305124" y2="225.74791418355184" style="stroke:rgb(255,0,0);stroke-width:2" />
<line x1="497.20950013114856" y1="271.76846608256886" x2="465.0832611206852" y2="276.8700576850888" style="stroke:rgb(255,0,0);stroke-width:2" />
<line x1="500.0" y1="229.68" x2="425.4988895871541" y2="253.52035533211068" style="stroke:rgb(255,0,0);stroke-width:2" />
<line x1="500.0" y1="299.44294896152127" x2="420.5203553321107" y2="258.49888958715405" style="stroke:rgb(255,0,0);stroke-width:2" />
<line x1="437.32" y1="333.0" x2="413.4796446678893" y2="258.4988895871541" style="stroke:rgb(255,0,0);stroke-width:2" />
<line x1="367.55705103847873" y1="333.0" x2="408.50111041284595" y2="253.52035533211068" style="stroke:rgb(255,0,0);stroke-width:2" />
<line x1="334.0" y1="270.32" x2="408.50111041284595" y2="246.47964466788932" style="stroke:rgb(255,0,0);stroke-width:2" />
<line x1="334.0" y1="200.55705103847873" x2="413.4796446678893" y2="241.50111041284592" style="stroke:rgb(255,0,0);stroke-width:2" />
<line x1="396.67999999999995" y1="167.0" x2="420.5203553321107" y2="241.50111041284592" style="stroke:rgb(255,0,0);stroke-width:2" />
<line x1="466.44294896152127" y1="167.0" x2="425.49888958715405" y2="246.47964466788932" style="stroke:rgb(255,0,0);stroke-width:2" />
<line x1="336.79049986885144" y1="271.76846608256886" x2="386.0" y2="229.0" style="stroke:rgb(255,0,0);stroke-width:2" />
<line x1="334.0" y1="207.9132952642845" x2="401.52580693210905" y2="212.6419932287179" style="stroke:rgb(255,0,0);stroke-width:2" />
<line x1="395.23153391743114" y1="169.79049986885144" x2="438.0" y2="219.0" style="stroke:rgb(255,0,0);stroke-width:2" />
<line x1="459.0867047357155" y1="166.99999999999997" x2="454.35800677128213" y2="234.52580693210905" style="stroke:rgb(255,0,0);stroke-width:2" />
<line x1="497.20950013114856" y1="228.2315339174311" x2="448.0" y2="271.0" style="stroke:rgb(255,0,0);stroke-width:2" />
<line x1="500.0" y1="292.0867047357155" x2="432.47419306789095" y2="287.3580067712821" style="stroke:rgb(255,0,0);stroke-width:2" />
<line x1="438.76846608256886" y1="330.20950013114856" x2="396.0" y2="281.0" style="stroke:rgb(255,0,0);stroke-width:2" />
<line x1="374.91329526428456" y1="333.0" x2="379.6419932287179" y2="265.47419306789095" style="stroke:rgb(255,0,0);stroke-width:2" />
<line x1="395.64013086150493" y1="170.2606324972737" x2="386.0" y2="237.0" style="stroke:rgb(255,0,0);stroke-width:2" />
<line x1="473.67976712906506" y1="167.0" x2="411.54426090614356" y2="213.45081533169864" style="stroke:rgb(255,0,0);stroke-width:2" />
<line x1="496.7393675027263" y1="228.6401308615049" x2="430.0" y2="219.0" style="stroke:rgb(255,0,0);stroke-width:2" />
<line x1="500.0" y1="306.6797671290651" x2="453.5491846683014" y2="244.54426090614356" style="stroke:rgb(255,0,0);stroke-width:2" />
<line x1="438.3598691384951" y1="329.73936750272634" x2="448.0" y2="263.0" style="stroke:rgb(255,0,0);stroke-width:2" />
<line x1="360.3202328709349" y1="333.0" x2="422.45573909385644" y2="286.5491846683014" style="stroke:rgb(255,0,0);stroke-width:2" />
<line x1="337.26063249727366" y1="271.3598691384951" x2="404.0" y2="281.0" style="stroke:rgb(255,0,0);stroke-width:2" />
<line x1="334.0" y1="193.32023287093494" x2="380.45081533169866" y2="255.45573909385644" style="stroke:rgb(255,0,0);stroke-width:2" />
<line x1="360.6734693877551" y1="333.0" x2="392.74791418355187" y2="309.71632896305124" style="stroke:rgb(255,0,0);stroke-width:2" />
<line x1="336.79049986885144" y1="271.76846608256886" x2="368.9167388793148" y2="276.8700576850888" style="stroke:rgb(255,0,0);stroke-width:2" />
<line x1="334.0" y1="193.67346938775512" x2="357.28367103694876" y2="225.74791418355187" style="stroke:rgb(255,0,0);stroke-width:2" />
<line x1="395.23153391743114" y1="169.79049986885144" x2="390.1299423149112" y2="201.91673887931478" style="stroke:rgb(255,0,0);stroke-width:2" />
<line x1="473.3265306122449" y1="167.0" x2="441.2520858164482" y2="190.2836710369487" style="stroke:rgb(255,0,0);stroke-width:2" />
<line x1="497.20950013114856" y1="228.2315339174311" x2="465.0832611206852" y2="223.12994231491118" style="stroke:rgb(255,0,0);stroke-width:2" />
<line x1="500.0" y1="306.3265306122449" x2="476.7163289630513" y2="274.2520858164482" style="stroke:rgb(255,0,0);stroke-width:2" />
<line x1="438.76846608256886" y1="330.20950013114856" x2="443.8700576850888" y2="298.0832611206852" style="stroke:rgb(255,0,0);stroke-width:2" />
<line x1="334.0" y1="229.68" x2="408.50111041284595" y2="253.52035533211068" style="stroke:rgb(255,0,0);stroke-width:2" />
<line x1="367.5570510384787" y1="167.0" x2="408.50111041284595" y2="246.47964466788932" style="stroke:rgb(255,0,0);stroke-width:2" />
<line x1="437.32" y1="167.0" x2="413.4796446678893" y2="241.50111041284592" style="stroke:rgb(255,0,0);stroke-width:2" />
<line x1="500.0" y1="200.55705103847868" x2="420.5203553321107" y2="241.50111041284592" style="stroke:rgb(255,0,0);stroke-width:2" />
<line x1="500.0" y1="270.32" x2="425.49888958715405" y2="246.47964466788932" style="stroke:rgb(255,0,0);stroke-width:2" />
<line x1="466.4429489615213" y1="333.0" x2="425.4988895871541" y2="253.52035533211068" style="stroke:rgb(255,0,0);stroke-width:2" />
<line x1="396.68" y1="333.0" x2="420.5203553321107" y2="258.49888958715405" style="stroke:rgb(255,0,0);stroke-width:2" />
<line x1="334.0" y1="299.4429489615213" x2="413.4796446678893" y2="258.4988895871541" style="stroke:rgb(255,0,0);stroke-width:2" />
<line x1="163.20950013114856" y1="438.76846608256886" x2="114.0" y2="396.0" style="stroke:rgb(255,0,0);stroke-width:2" />
<line x1="125.0867047357155" y1="500.0" x2="120.35800677128208" y2="432.47419306789095" style="stroke:rgb(255,0,0);stroke-width:2" />
<line x1="61.231533917431136" y1="497.20950013114856" x2="104.0" y2="448.0" style="stroke:rgb(255,0,0);stroke-width:2" />
<line x1="-2.842170943040401e-14" y1="459.0867047357155" x2="67.52580693210905" y2="454.3580067712821" style="stroke:rgb(255,0,0);stroke-width:2" />
<line x1="2.790499868851441" y1="395.23153391743114" x2="52.0" y2="438.0" style="stroke:rgb(255,0,0);stroke-width:2" />
<line x1="40.91329526428447" y1="334.0" x2="45.641993228717894" y2="401.52580693210905" style="stroke:rgb(255,0,0);stroke-width:2" />
<line x1="104.76846608256886" y1="336.79049986885144" x2="62.0" y2="386.0" style="stroke:rgb(255,0,0);stroke-width:2" />
<line x1="166.0" y1="374.91329526428444" x2="98.47419306789095" y2="379.64199322871787" style="stroke:rgb(255,0,0);stroke-width:2" />
<line x1="104.35986913849513" y1="337.26063249727366" x2="114.0" y2="404.0" style="stroke:rgb(255,0,0);stroke-width:2" />
<line x1="166.0" y1="360.3202328709349" x2="119.5491846683014" y2="422.45573909385644" style="stroke:rgb(255,0,0);stroke-width:2" />
<line x1="162.73936750272634" y1="438.3598691384951" x2="96.0" y2="448.0" style="stroke:rgb(255,0,0);stroke-width:2" />
<line x1="139.6797671290651" y1="500.0" x2="77.54426090614356" y2="453.5491846683014" style="stroke:rgb(255,0,0);stroke-width:2" />
<line x1="61.64013086150493" y1="496.73936750272634" x2="52.0" y2="430.0" style="stroke:rgb(255,0,0);stroke-width:2" />
<line x1="0.0" y1="473.6797671290651" x2="46.450815331698635" y2="411.54426090614356" style="stroke:rgb(255,0,0);stroke-width:2" />
<line x1="3.26063249727369" y1="395.64013086150493" x2="70.0" y2="386.0" style="stroke:rgb(255,0,0);stroke-width:2" />
<line x1="26.32023287093486" y1="334.0" x2="88.45573909385644" y2="380.45081533169866" style="stroke:rgb(255,0,0);stroke-width:2" />
<line x1="139.32653061224488" y1="500.0" x2="107.25208581644819" y2="476.71632896305124" style="stroke:rgb(255,0,0);stroke-width:2" />
<line x1="61.231533917431136" y1="497.20950013114856" x2="56.129942314911204" y2="465.0832611206852" style="stroke:rgb(255,0,0);stroke-width:2" />
<line x1="0.0" y1="473.3265306122449" x2="23.283671036948732" y2="441.2520858164482" style="stroke:rgb(255,0,0);stroke-width:2" />
<line x1="2.790499868851441" y1="395.23153391743114" x2="34.91673887931478" y2="390.1299423149112" style="stroke:rgb(255,0,0);stroke-width:2" />
<line x1="26.673469387755063" y1="334.0" x2="58.74791418355184" y2="357.28367103694876" style="stroke:rgb(255,0,0);stroke-width:2" />
<line x1="104.76846608256886" y1="336.79049986885144" x2="109.8700576850888" y2="368.9167388793147" style="stroke:rgb(255,0,0);stroke-width:2" />
<line x1="166.0" y1="360.67346938775506" x2="142.71632896305124" y2="392.74791418355187" style="stroke:rgb(255,0,0);stroke-width:2" />
<line x1="163.20950013114856" y1="438.76846608256886" x2="131.08326112068522" y2="443.8700576850888" style="stroke:rgb(255,0,0);stroke-width:2" />
<line x1="166.0" y1="396.68" x2="91.49888958715411" y2="420.5203553321107" style="stroke:rgb(255,0,0);stroke-width:2" />
<line x1="166.0" y1="466.44294896152127" x2="86.52035533211068" y2="425.49888958715405" style="stroke:rgb(255,0,0);stroke-width:2" />
<line x1="103.32" y1="500.0" x2="79.47964466788932" y2="425.4988895871541" style="stroke:rgb(255,0,0);stroke-width:2" />
<line x1="33.55705103847873" y1="500.0" x2="74.50111041284592" y2="420.5203553321107" style="stroke:rgb(255,0,0);stroke-width:2" />
<line x1="0.0" y1="437.32" x2="74.50111041284592" y2="413.4796446678893" style="stroke:rgb(255,0,0);stroke-width:2" />
<line x1="0.0" y1="367.55705103847873" x2="79.47964466788932" y2="408.50111041284595" style="stroke:rgb(255,0,0);stroke-width:2" />
<line x1="62.67999999999998" y1="334.0" x2="86.52035533211068" y2="408.50111041284595" style="stroke:rgb(255,0,0);stroke-width:2" />
<line x1="132.44294896152127" y1="334.0" x2="91.49888958715405" y2="413.4796446678893" style="stroke:rgb(255,0,0);stroke-width:2" />
<line x1="2.790499868851441" y1="438.76846608256886" x2="52.0" y2="396.0" style="stroke:rgb(255,0,0);stroke-width:2" />
<line x1="-2.842170943040401e-14" y1="374.9132952642845" x2="67.52580693210905" y2="379.64199322871787" style="stroke:rgb(255,0,0);stroke-width:2" />
<line x1="61.231533917431136" y1="336.79049986885144" x2="104.0" y2="386.0" style="stroke:rgb(255,0,0);stroke-width:2" />
<line x1="125.0867047357155" y1="334.0" x2="120.35800677128213" y2="401.52580693210905" style="stroke:rgb(255,0,0);stroke-width:2" />
<line x1="163.20950013114856" y1="395.2315339174311" x2="114.0" y2="438.0" style="stroke:rgb(255,0,0);stroke-width:2" />
<line x1="166.0" y1="459.0867047357155" x2="98.47419306789095" y2="454.3580067712821" style="stroke:rgb(255,0,0);stroke-width:2" />
<line x1="104.76846608256886" y1="497.20950013114856" x2="62.0" y2="448.0" style="stroke:rgb(255,0,0);stroke-width:2" />
<line x1="40.91329526428453" y1="500.0" x2="45.64199322871792" y2="432.47419306789095" style="stroke:rgb(255,0,0);stroke-width:2" />
<line x1="61.64013086150493" y1="337.2606324972737" x2="52.0" y2="404.0" style="stroke:rgb(255,0,0);stroke-width:2" />
<line x1="139.67976712906506" y1="334.0" x2="77.54426090614353" y2="380.45081533169866" style="stroke:rgb(255,0,0);stroke-width:2" />
<line x1="162.73936750272628" y1="395.6401308615049" x2="96.0" y2="386.0" style="stroke:rgb(255,0,0);stroke-width:2" />
<line x1="166.0" y1="473.6797671290651" x2="119.5491846683014" y2="411.54426090614356" style="stroke:rgb(255,0,0);stroke-width:2" />
<line x1="104.35986913849513" y1="496.73936750272634" x2="114.0" y2="430.0" style="stroke:rgb(255,0,0);stroke-width:2" />
<line x1="26.320232870934916" y1="500.0" x2="88.45573909385644" y2="453.5491846683014" style="stroke:rgb(255,0,0);stroke-width:2" />
<line x1="3.2606324972736616" y1="438.3598691384951" x2="70.0" y2="448.0" style="stroke:rgb(255,0,0);stroke-width:2" />
<line x1="0.0" y1="360.32023287093494" x2="46.450815331698635" y2="422.45573909385644" style="stroke:rgb(255,0,0);stroke-width:2" />
<line x1="26.67346938775512" y1="500.0" x2="58.74791418355187" y2="476.71632896305124" style="stroke:rgb(255,0,0);stroke-width:2" />
<line x1="2.790499868851441" y1="438.76846608256886" x2="34.91673887931478" y2="443.8700576850888" style="stroke:rgb(255,0,0);stroke-width:2" />
<line x1="0.0" y1="360.6734693877551" x2="23.28367103694876" y2="392.74791418355187" style="stroke:rgb(255,0,0);stroke-width:2" />
<line x1="61.231533917431136" y1="336.79049986885144" x2="56.129942314911204" y2="368.9167388793148" style="stroke:rgb(255,0,0);stroke-width:2" />
<line x1="139.32653061224488" y1="334.0" x2="107.25208581644819" y2="357.2836710369487" style="stroke:rgb(255,0,0);stroke-width:2" />
<line x1="163.20950013114856" y1="395.2315339174311" x2="131.08326112068522" y2="390.1299423149112" style="stroke:rgb(255,0,0);stroke-width:2" />
<line x1="166.0" y1="473.3265306122449" x2="142.7163289630513" y2="441.2520858164482" style="stroke:rgb(255,0,0);stroke-width:2" />
<line x1="104.76846608256886" y1="497.20950013114856" x2="109.8700576850888" y2="465.0832611206852" style="stroke:rgb(255,0,0);stroke-width:2" />
<line x1="0.0" y1="396.68" x2="74.50111041284592" y2="420.5203553321107" style="stroke:rgb(255,0,0);stroke-width:2" />
<line x1="33.557051038478676" y1="334.0" x2="74.50111041284592" y2="413.4796446678893" style="stroke:rgb(255,0,0);stroke-width:2" />
<line x1="103.32" y1="334.0" x2="79.47964466788932" y2="408.50111041284595" style="stroke:rgb(255,0,0);stroke-width:2" />
<line x1="166.0" y1="367.5570510384787" x2="86.52035533211068" y2="408.50111041284595" style="stroke:rgb(255,0,0);stroke-width:2" />
<line x1="166.0" y1="437.32" x2="91.49888958715405" y2="413.4796446678893" style="stroke:rgb(255,0,0);stroke-width:2" />
<line x1="132.44294896152132" y1="500.0" x2="91.49888958715411" y2="420.5203553321107" style="stroke:rgb(255,0,0);stroke-width:2" />
<line x1="62.68000000000001" y1="500.0" x2="86.52035533211068" y2="425.49888958715405" style="stroke:rgb(255,0,0);stroke-width:2" />
<line x1="0.0" y1="466.4429489615213" x2="79.47964466788932" y2="425.4988895871541" style="stroke:rgb(255,0,0);stroke-width:2" />
<line x1="330.20950013114856" y1="438.76846608256886" x2="281.0" y2="396.0" style="stroke:rgb(255,0,0);stroke-width:2" />
<line x1="292.0867047357155" y1="500.0" x2="287.3580067712821" y2="432.47419306789095" style="stroke:rgb(255,0,0);stroke-width:2" />
<line x1="228.23153391743114" y1="497.20950013114856" x2="271.0" y2="448.0" style="stroke:rgb(255,0,0);stroke-width:2" />
<line x1="166.99999999999997" y1="459.0867047357155" x2="234.52580693210905" y2="454.3580067712821" style="stroke:rgb(255,0,0);stroke-width:2" />
<line x1="169.79049986885144" y1="395.23153391743114" x2="219.0" y2="438.0" style="stroke:rgb(255,0,0);stroke-width:2" />
<line x1="207.91329526428447" y1="334.0" x2="212.6419932287179" y2="401.52580693210905" style="stroke:rgb(255,0,0);stroke-width:2" />
<line x1="271.76846608256886" y1="336.79049986885144" x2="229.0" y2="386.0" style="stroke:rgb(255,0,0);stroke-width:2" />
<line x1="333.0" y1="374.91329526428444" x2="265.47419306789095" y2="379.64199322871787" style="stroke:rgb(255,0,0);stroke-width:2" />
<line x1="271.3598691384951" y1="337.26063249727366" x2="281.0" y2="404.0" style="stroke:rgb(255,0,0);stroke-width:2" />
<line x1="333.0" y1="360.3202328709349" x2="286.5491846683014" y2="422.45573909385644" style="stroke:rgb(255,0,0);stroke-width:2" />
<line x1="329.73936750272634" y1="438.3598691384951" x2="263.0" y2="448.0" style="stroke:rgb(255,0,0);stroke-width:2" />
<line x1="306.6797671290651" y1="500.0" x2="244.54426090614356" y2="453.5491846683014" style="stroke:rgb(255,0,0);stroke-width:2" />
<line x1="228.64013086150493" y1="496.73936750272634" x2="219.0" y2="430.0" style="stroke:rgb(255,0,0);stroke-width:2" />
<line x1="167.0" y1="473.6797671290651" x2="213.45081533169864" y2="411.54426090614356" style="stroke:rgb(255,0,0);stroke-width:2" />
<line x1="170.2606324972737" y1="395.64013086150493" x2="237.0" y2="386.0" style="stroke:rgb(255,0,0);stroke-width:2" />
<line x1="193.32023287093486" y1="334.0" x2="255.45573909385644" y2="380.45081533169866" style="stroke:rgb(255,0,0);stroke-width:2" />
<line x1="306.3265306122449" y1="500.0" x2="274.2520858164482" y2="476.71632896305124" style="stroke:rgb(255,0,0);stroke-width:2" />
<line x1="228.23153391743114" y1="497.20950013114856" x2="223.1299423149112" y2="465.0832611206852" style="stroke:rgb(255,0,0);stroke-width:2" />
<line x1="167.0" y1="473.3265306122449" x2="190.28367103694873" y2="441.2520858164482" style="stroke:rgb(255,0,0);stroke-width:2" />
<line x1="169.79049986885144" y1="395.23153391743114" x2="201.91673887931478" y2="390.1299423149112" style="stroke:rgb(255,0,0);stroke-width:2" />
<line x1="193.67346938775506" y1="334.0" x2="225.74791418355184" y2="357.28367103694876" style="stroke:rgb(255,0,0);stroke-width:2" />
<line x1="271.76846608256886" y1="336.79049986885144" x2="276.8700576850888" y2="368.9167388793147" style="stroke:rgb(255,0,0);stroke-width:2" />
<line x1="333.0" y1="360.67346938775506" x2="309.71632896305124" y2="392.74791418355187" style="stroke:rgb(255,0,0);stroke-width:2" />
<line x1="330.20950013114856" y1="438.76846608256886" x2="298.0832611206852" y2="443.8700576850888" style="stroke:rgb(255,0,0);stroke-width:2" />
<line x1="333.0" y1="396.68" x2="258.4988895871541" y2="420.5203553321107" style="stroke:rgb(255,0,0);stroke-width:2" />
<line x1="333.0" y1="466.44294896152127" x2="253.52035533211068" y2="425.49888958715405" style="stroke:rgb(255,0,0);stroke-width:2" />
<line x1="270.32" y1="500.0" x2="246.47964466788932" y2="425.4988895871541" style="stroke:rgb(255,0,0);stroke-width:2" />
<line x1="200.55705103847873" y1="500.0" x2="241.50111041284592" y2="420.5203553321107" style="stroke:rgb(255,0,0);stroke-width:2" />
<line x1="167.0" y1="437.32" x2="241.50111041284592" y2="413.4796446678893" style="stroke:rgb(255,0,0);stroke-width:2" />
<line x1="167.0" y1="367.55705103847873" x2="246.47964466788932" y2="408.50111041284595" style="stroke:rgb(255,0,0);stroke-width:2" />
<line x1="229.67999999999998" y1="334.0" x2="253.52035533211068" y2="408.50111041284595" style="stroke:rgb(255,0,0);stroke-width:2" />
<line x1="299.44294896152127" y1="334.0" x2="258.49888958715405" y2="413.4796446678893" style="stroke:rgb(255,0,0);stroke-width:2" />
<line x1="169.79049986885144" y1="438.76846608256886" x2="219.0" y2="396.0" style="stroke:rgb(255,0,0);stroke-width:2" />
<line x1="166.99999999999997" y1="374.9132952642845" x2="234.52580693210905" y2="379.64199322871787" style="stroke:rgb(255,0,0);stroke-width:2" />
<line x1="228.23153391743114" y1="336.79049986885144" x2="271.0" y2="386.0" style="stroke:rgb(255,0,0);stroke-width:2" />
<line x1="292.0867047357155" y1="334.0" x2="287.35800677128213" y2="401.52580693210905" style="stroke:rgb(255,0,0);stroke-width:2" />
<line x1="330.20950013114856" y1="395.2315339174311" x2="281.0" y2="438.0" style="stroke:rgb(255,0,0);stroke-width:2" />
<line x1="333.0" y1="459.0867047357155" x2="265.47419306789095" y2="454.3580067712821" style="stroke:rgb(255,0,0);stroke-width:2" />
<line x1="271.76846608256886" y1="497.20950013114856" x2="229.0" y2="448.0" style="stroke:rgb(255,0,0);stroke-width:2" />
<line x1="207.91329526428453" y1="500.0" x2="212.64199322871792" y2="432.47419306789095" style="stroke:rgb(255,0,0);stroke-width:2" />
<line x1="228.64013086150493" y1="337.2606324972737" x2="219.0" y2="404.0" style="stroke:rgb(255,0,0);stroke-width:2" />
<line x1="306.67976712906506" y1="334.0" x2="244.54426090614353" y2="380.45081533169866" style="stroke:rgb(255,0,0);stroke-width:2" />
<line x1="329.7393675027263" y1="395.6401308615049" x2="263.0" y2="386.0" style="stroke:rgb(255,0,0);stroke-width:2" />
<line x1="333.0" y1="473.6797671290651" x2="286.5491846683014" y2="411.54426090614356" style="stroke:rgb(255,0,0);stroke-width:2" />
<line x1="271.3598691384951" y1="496.73936750272634" x2="281.0" y2="430.0" style="stroke:rgb(255,0,0);stroke-width:2" />
<line x1="193.32023287093492" y1="500.0" x2="255.45573909385644" y2="453.5491846683014" style="stroke:rgb(255,0,0);stroke-width:2" />
<line x1="170.26063249727366" y1="438.3598691384951" x2="237.0" y2="448.0" style="stroke:rgb(255,0,0);stroke-width:2" />
<line x1="167.0" y1="360.32023287093494" x2="213.45081533169864" y2="422.45573909385644" style="stroke:rgb(255,0,0);stroke-width:2" />
<line x1="193.67346938775512" y1="500.0" x2="225.74791418355187" y2="476.71632896305124" style="stroke:rgb(255,0,0);stroke-width:2" />
<line x1="169.79049986885144" y1="438.76846608256886" x2="201.91673887931478" y2="443.8700576850888" style="stroke:rgb(255,0,0);stroke-width:2" />
<line x1="167.0" y1="360.6734693877551" x2="190.28367103694876" y2="392.74791418355187" style="stroke:rgb(255,0,0);stroke-width:2" />
<line x1="228.23153391743114" y1="336.79049986885144" x2="223.1299423149112" y2="368.9167388793148" style="stroke:rgb(255,0,0);stroke-width:2" />
<line x1="306.3265306122449" y1="334.0" x2="274.2520858164482" y2="357.2836710369487" style="stroke:rgb(255,0,0);stroke-width:2" />
<line x1="330.20950013114856" y1="395.2315339174311" x2="298.0832611206852" y2="390.1299423149112" style="stroke:rgb(255,0,0);stroke-width:2" />
<line x1="333.0" y1="473.3265306122449" x2="309.7163289630513" y2="441.2520858164482" style="stroke:rgb(255,0,0);stroke-width:2" />
<line x1="271.76846608256886" y1="497.20950013114856" x2="276.8700576850888" y2="465.0832611206852" style="stroke:rgb(255,0,0);stroke-width:2" />
<line x1="167.0" y1="396.68" x2="241.50111041284592" y2="420.5203553321107" style="stroke:rgb(255,0,0);stroke-width:2" />
<line x1="200.55705103847868" y1="334.0" x2="241.50111041284592" y2="413.4796446678893" style="stroke:rgb(255,0,0);stroke-width:2" />
<line x1="270.32" y1="334.0" x2="246.47964466788932" y2="408.50111041284595" style="stroke:rgb(255,0,0);stroke-width:2" />
<line x1="333.0" y1="367.5570510384787" x2="253.52035533211068" y2="408.50111041284595" style="stroke:rgb(255,0,0);stroke-width:2" />
<line x1="333.0" y1="437.32" x2="258.49888958715405" y2="413.4796446678893" style="stroke:rgb(255,0,0);stroke-width:2" />
<line x1="299.4429489615213" y1="500.0" x2="258.4988895871541" y2="420.5203553321107" style="stroke:rgb(255,0,0);stroke-width:2" />
<line x1="229.68" y1="500.0" x2="253.52035533211068" y2="425.49888958715405" style="stroke:rgb(255,0,0);stroke-width:2" />
<line x1="167.0" y1="466.4429489615213" x2="246.47964466788932" y2="425.4988895871541" style="stroke:rgb(255,0,0);stroke-width:2" />
<line x1="497.20950013114856" y1="438.76846608256886" x2="448.0" y2="396.0" style="stroke:rgb(255,0,0);stroke-width:2" />
<line x1="459.0867047357155" y1="500.0" x2="454.3580067712821" y2="432.47419306789095" style="stroke:rgb(255,0,0);stroke-width:2" />
<line x1="395.23153391743114" y1="497.20950013114856" x2="438.0" y2="448.0" style="stroke:rgb(255,0,0);stroke-width:2" />
<line x1="334.0" y1="459.0867047357155" x2="401.52580693210905" y2="454.3580067712821" style="stroke:rgb(255,0,0);stroke-width:2" />
<line x1="336.79049986885144" y1="395.23153391743114" x2="386.0" y2="438.0" style="stroke:rgb(255,0,0);stroke-width:2" />
<line x1="374.91329526428444" y1="334.0" x2="379.64199322871787" y2="401.52580693210905" style="stroke:rgb(255,0,0);stroke-width:2" />
<line x1="438.76846608256886" y1="336.79049986885144" x2="396.0" y2="386.0" style="stroke:rgb(255,0,0);stroke-width:2" />
<line x1="500.0" y1="374.91329526428444" x2="432.47419306789095" y2="379.64199322871787" style="stroke:rgb(255,0,0);stroke-width:2" />
<line x1="438.3598691384951" y1="337.26063249727366" x2="448.0" y2="404.0" style="stroke:rgb(255,0,0);stroke-width:2" />
<line x1="500.0" y1="360.3202328709349" x2="453.5491846683014" y2="422.45573909385644" style="stroke:rgb(255,0,0);stroke-width:2" />
<line x1="496.73936750272634" y1="438.3598691384951" x2="430.0" y2="448.0" style="stroke:rgb(255,0,0);stroke-width:2" />
<line x1="473.6797671290651" y1="500.0" x2="411.54426090614356" y2="453.5491846683014" style="stroke:rgb(255,0,0);stroke-width:2" />
<line x1="395.64013086150493" y1="496.73936750272634" x2="386.0" y2="430.0" style="stroke:rgb(255,0,0);stroke-width:2" />
<line x1="334.0" y1="473.6797671290651" x2="380.45081533169866" y2="411.54426090614356" style="stroke:rgb(255,0,0);stroke-width:2" />
<line x1="337.2606324972737" y1="395.64013086150493" x2="404.0" y2="386.0" style="stroke:rgb(255,0,0);stroke-width:2" />
<line x1="360.3202328709349" y1="334.0" x2="422.45573909385644" y2="380.45081533169866" style="stroke:rgb(255,0,0);stroke-width:2" />
<line x1="473.3265306122449" y1="500.0" x2="441.2520858164482" y2="476.71632896305124" style="stroke:rgb(255,0,0);stroke-width:2" />
<line x1="395.23153391743114" y1="497.20950013114856" x2="390.1299423149112" y2="465.0832611206852" style="stroke:rgb(255,0,0);stroke-width:2" />
<line x1="334.0" y1="473.3265306122449" x2="357.2836710369487" y2="441.2520858164482" style="stroke:rgb(255,0,0);stroke-width:2" />
<line x1="336.79049986885144" y1="395.23153391743114" x2="368.9167388793148" y2="390.1299423149112" style="stroke:rgb(255,0,0);stroke-width:2" />
<line x1="360.67346938775506" y1="334.0" x2="392.74791418355187" y2="357.28367103694876" style="stroke:rgb(255,0,0);stroke-width:2" />
<line x1="438.76846608256886" y1="336.79049986885144" x2="443.8700576850888" y2="368.9167388793147" style="stroke:rgb(255,0,0);stroke-width:2" />
<line x1="500.0" y1="360.67346938775506" x2="476.71632896305124" y2="392.74791418355187" style="stroke:rgb(255,0,0);stroke-width:2" />
<line x1="497.20950013114856" y1="438.76846608256886" x2="465.0832611206852" y2="443.8700576850888" style="stroke:rgb(255,0,0);stroke-width:2" />
<line x1="500.0" y1="396.68" x2="425.4988895871541" y2="420.5203553321107" style="stroke:rgb(255,0,0);stroke-width:2" />
<line x1="500.0" y1="466.44294896152127" x2="420.5203553321107" y2="425.49888958715405" style="stroke:rgb(255,0,0);stroke-width:2" />
<line x1="437.32" y1="500.0" x2="413.4796446678893" y2="425.4988895871541" style="stroke:rgb(255,0,0);stroke-width:2" />
<line x1="367.55705103847873" y1="500.0" x2="408.50111041284595" y2="420.5203553321107" style="stroke:rgb(255,0,0);stroke-width:2" />
<line x1="334.0" y1="437.32" x2="408.50111041284595" y2="413.4796446678893" style="stroke:rgb(255,0,0);stroke-width:2" />
<line x1="334.0" y1="367.55705103847873" x2="413.4796446678893" y2="408.50111041284595" style="stroke:rgb(255,0,0);stroke-width:2" />
<line x1="396.67999999999995" y1="334.0" x2="420.5203553321107" y2="408.50111041284595" style="stroke:rgb(255,0,0);stroke-width:2" />
<line x1="466.44294896152127" y1="334.0" x2="425.49888958715405" y2="413.4796446678893" style="stroke:rgb(255,0,0);stroke-width:2" />
<line x1="336.79049986885144" y1="438.76846608256886" x2="386.0" y2="396.0" style="stroke:rgb(255,0,0);stroke-width:2" />
<line x1="334.0" y1="374.9132952642845" x2="401.52580693210905" y2="379.64199322871787" style="stroke:rgb(255,0,0);stroke-width:2" />
<line x1="395.23153391743114" y1="336.79049986885144" x2="438.0" y2="386.0" style="stroke:rgb(255,0,0);stroke-width:2" />
<line x1="459.0867047357155" y1="334.0" x2="454.35800677128213" y2="401.52580693210905" style="stroke:rgb(255,0,0);stroke-width:2" />
<line x1="497.20950013114856" y1="395.2315339174311" x2="448.0" y2="438.0" style="stroke:rgb(255,0,0);stroke-width:2" />
<line x1="500.0" y1="459.0867047357155" x2="432.47419306789095" y2="454.3580067712821" style="stroke:rgb(255,0,0);stroke-width:2" />
<line x1="438.76846608256886" y1="497.20950013114856" x2="396.0" y2="448.0" style="stroke:rgb(255,0,0);stroke-width:2" />
<line x1="374.91329526428456" y1="500.0" x2="379.6419932287179" y2="432.47419306789095" style="stroke:rgb(255,0,0);stroke-width:2" />
<line x1="395.64013086150493" y1="337.2606324972737" x2="386.0" y2="404.0" style="stroke:rgb(255,0,0);stroke-width:2" />
<line x1="473.67976712906506" y1="334.0" x2="411.54426090614356" y2="380.45081533169866" style="stroke:rgb(255,0,0);stroke-width:2" />
<line x1="496.7393675027263" y1="395.6401308615049" x2="430.0" y2="386.0" style="stroke:rgb(255,0,0);stroke-width:2" />
<line x1="500.0" y1="473.6797671290651" x2="453.5491846683014" y2="411.54426090614356" style="stroke:rgb(255,0,0);stroke-width:2" />
<line x1="438.3598691384951" y1="496.73936750272634" x2="448.0" y2="430.0" style="stroke:rgb(255,0,0);stroke-width:2" />
<line x1="360.3202328709349" y1="500.0" x2="422.45573909385644" y2="453.5491846683014" style="stroke:rgb(255,0,0);stroke-width:2" />
<line x1="337.26063249727366" y1="438.3598691384951" x2="404.0" y2="448.0" style="stroke:rgb(255,0,0);stroke-width:2" />
<line x1="334.0" y1="360.32023287093494" x2="380.45081533169866" y2="422.45573909385644" style="stroke:rgb(255,0,0);stroke-width:2" />
<line x1="360.6734693877551" y1="500.0" x2="392.74791418355187" y2="476.71632896305124" style="stroke:rgb(255,0,0);stroke-width:2" />
<line x1="336.79049986885144" y1="438.76846608256886" x2="368.9167388793148" y2="443.8700576850888" style="stroke:rgb(255,0,0);stroke-width:2" />
<line x1="334.0" y1="360.6734693877551" x2="357.28367103694876" y2="392.74791418355187" style="stroke:rgb(255,0,0);stroke-width:2" />
<line x1="395.23153391743114" y1="336.79049986885144" x2="390.1299423149112" y2="368.9167388793148" style="stroke:rgb(255,0,0);stroke-width:2" />
<line x1="473.3265306122449" y1="334.0" x2="441.2520858164482" y2="357.2836710369487" style="stroke:rgb(255,0,0);stroke-width:2" />
<line x1="497.20950013114856" y1="395.2315339174311" x2="465.0832611206852" y2="390.1299423149112" style="stroke:rgb(255,0,0);stroke-width:2" />
<line x1="500.0" y1="473.3265306122449" x2="476.7163289630513" y2="441.2520858164482" style="stroke:rgb(255,0,0);stroke-width:2" />
<line x1="438.76846608256886" y1="497.20950013114856" x2="443.8700576850888" y2="465.0832611206852" style="stroke:rgb(255,0,0);stroke-width:2" />
<line x1="334.0" y1="396.68" x2="408.50111041284595" y2="420.5203553321107" style="stroke:rgb(255,0,0);stroke-width:2" />
<line x1="367.5570510384787" y1="334.0" x2="408.50111041284595" y2="413.4796446678893" style="stroke:rgb(255,0,0);stroke-width:2" />
<line x1="437.32" y1="334.0" x2="413.4796446678893" y2="408.50111041284595" style="stroke:rgb(255,0,0);stroke-width:2" />
<line x1="500.0" y1="367.5570510384787" x2="420.5203553321107" y2="408.50111041284595" style="stroke:rgb(255,0,0);stroke-width:2" />
<line x1="500.0" y1="437.32" x2="425.49888958715405" y2="413.4796446678893" style="stroke:rgb(255,0,0);stroke-width:2" />
<line x1="466.4429489615213" y1="500.0" x2="425.4988895871541" y2="420.5203553321107" style="stroke:rgb(255,0,0);stroke-width:2" />
<line x1="396.68" y1="500.0" x2="420.5203553321107" y2="425.49888958715405" style="stroke:rgb(255,0,0);stroke-width:2" />
<line x1="334.0" y1="466.4429489615213" x2="413.4796446678893" y2="425.4988895871541" style="stroke:rgb(255,0,0);stroke-width:2" />
</svg>
