<svg width="500" height="500">
<rect width="500" height="500" style="fill:rgb(255,255,255)" />
<line x1="363" y1="138" x2="272" y2="128" style="stroke:rgb(255,0,0);stroke-width:2" />
<line x1="499" y1="100" x2="286" y2="260" style="stroke:rgb(255,0,0);stroke-width:2" />
<line x1="350" y1="132" x2="480" y2="264" style="stroke:rgb(255,0,0);stroke-width:2" />
<line x1="254" y1="222" x2="412" y2="273" style="stroke:rgb(255,0,0);stroke-width:2" />
<line x1="259" y1="373" x2="261" y2="48" style="stroke:rgb(255,0,0);stroke-width:2" />
<line x1="494" y1="279" x2="449" y2="193" style="stroke:rgb(255,0,0);stroke-width:2" />
<line x1="319" y1="400" x2="316" y2="183" style="stroke:rgb(255,0,0);stroke-width:2" />
<line x1="399" y1="8" x2="438" y2="160" style="stroke:rgb(255,0,0);stroke-width:2" />
<line x1="351" y1="344" x2="467" y2="429" style="stroke:rgb(255,0,0);stroke-width:2" />
<line x1="325" y1="262" x2="465" y2="109" style="stroke:rgb(255,0,0);stroke-width:2" />
<line x1="411" y1="106" x2="439" y2="197" style="stroke:rgb(255,0,0);stroke-width:2" />
<line x1="359" y1="219" x2="373" y2="158" style="stroke:rgb(255,0,0);stroke-width:2" />
<line x1="448" y1="258" x2="256" y2="343" style="stroke:rgb(255,0,0);stroke-width:2" />
<line x1="299" y1="227" x2="372" y2="305" style="stroke:rgb(255,0,0);stroke-width:2" />
<line x1="366" y1="465" x2="352" y2="395" style="stroke:rgb(255,0,0);stroke-width:2" />
<line x1="393" y1="221" x2="327" y2="36" style="stroke:rgb(255,0,0);stroke-width:2" />
<line x1="137.0" y1="138" x2="228.0" y2="128" style="stroke:rgb(255,0,0);stroke-width:2" />
<line x1="1.0" y1="100" x2="214.0" y2="260" style="stroke:rgb(255,0,0);stroke-width:2" />
<line x1="150.0" y1="132" x2="20.0" y2="264" style="stroke:rgb(255,0,0);stroke-width:2" />
<line x1="246.0" y1="222" x2="88.0" y2="273" style="stroke:rgb(255,0,0);stroke-width:2" />
<line x1="241.0" y1="373" x2="239.0" y2="48" style="stroke:rgb(255,0,0);stroke-width:2" />
<line x1="6.0" y1="279" x2="51.0" y2="193" style="stroke:rgb(255,0,0);stroke-width:2" />
<line x1="181.0" y1="400" x2="184.0" y2="183" style="stroke:rgb(255,0,0);stroke-width:2" />
<line x1="101.0" y1="8" x2="62.0" y2="160" style="stroke:rgb(255,0,0);stroke-width:2" />
<line x1="149.0" y1="344" x2="33.0" y2="429" style="stroke:rgb(255,0,0);stroke-width:2" />
<line x1="175.0" y1="262" x2="35.0" y2="109" style="stroke:rgb(255,0,0);stroke-width:2" />
<line x1="89.0" y1="106" x2="61.0" y2="197" style="stroke:rgb(255,0,0);stroke-width:2" />
<line x1="141.0" y1="219" x2="127.0" y2="158" style="stroke:rgb(255,0,0);stroke-width:2" />
<line x1="52.0" y1="258" x2="244.0" y2="343" style="stroke:rgb(255,0,0);stroke-width:2" />
<line x1="201.0" y1="227" x2="128.0" y2="305" style="stroke:rgb(255,0,0);stroke-width:2" />
<line x1="134.0" y1="465" x2="148.0" y2="395" style="stroke:rgb(255,0,0);stroke-width:2" />
<line x1="107.0" y1="221" x2="173.0" y2="36" style="stroke:rgb(255,0,0);stroke-width:2" />
<line x1="363.0" y1="138.0" x2="272.0" y2="128.0" style="stroke:rgb(255,0,0);stroke-width:2" />
<line x1="409.09902576697317" y1="250.70710678118655" x2="351.8233764908628" y2="179.28932188134524" style="stroke:rgb(255,0,0);stroke-width:2" />
<line x1="362.0" y1="363.0" x2="372.0" y2="272.0" style="stroke:rgb(255,0,0);stroke-width:2" />
<line x1="249.29289321881345" y1="409.09902576697317" x2="320.71067811865476" y2="351.8233764908628" style="stroke:rgb(255,0,0);stroke-width:2" />
<line x1="137.0" y1="362.0" x2="228.0" y2="372.0" style="stroke:rgb(255,0,0);stroke-width:2" />
<line x1="90.9009742330268" y1="249.29289321881348" x2="148.1766235091372" y2="320.71067811865476" style="stroke:rgb(255,0,0);stroke-width:2" />
<line x1="138.0" y1="137.0" x2="128.0" y2="228.00000000000003" style="stroke:rgb(255,0,0);stroke-width:2" />
<line x1="250.7071067811865" y1="90.9009742330268" x2="179.28932188134524" y2="148.1766235091372" style="stroke:rgb(255,0,0);stroke-width:2" />
<line x1="499.0" y1="100.0" x2="286.0" y2="260.0" style="stroke:rgb(255,0,0);stroke-width:2" />
<line x1="532.1356056934325" y1="320.0035713374682" x2="268.3847763108502" y2="282.52691193458116" style="stroke:rgb(255,0,0);stroke-width:2" />
<line x1="400.0" y1="499.0" x2="240.0" y2="286.0" style="stroke:rgb(255,0,0);stroke-width:2" />
<line x1="179.99642866253183" y1="532.1356056934325" x2="217.4730880654188" y2="268.3847763108502" style="stroke:rgb(255,0,0);stroke-width:2" />
<line x1="1.0000000000000284" y1="400.0" x2="214.0" y2="240.0" style="stroke:rgb(255,0,0);stroke-width:2" />
<line x1="-32.13560569343247" y1="179.99642866253186" x2="231.61522368914976" y2="217.4730880654188" style="stroke:rgb(255,0,0);stroke-width:2" />
<line x1="99.99999999999994" y1="1.0000000000000284" x2="260.0" y2="214.0" style="stroke:rgb(255,0,0);stroke-width:2" />
<line x1="320.00357133746814" y1="-32.13560569343247" x2="282.52691193458116" y2="231.61522368914976" style="stroke:rgb(255,0,0);stroke-width:2" />
<line x1="350.0" y1="132.0" x2="480.0" y2="264.0" style="stroke:rgb(255,0,0);stroke-width:2" />
<line x1="404.14927829866735" y1="237.27207793864213" x2="402.73506473629425" y2="422.53405460951757" style="stroke:rgb(255,0,0);stroke-width:2" />
<line x1="368.0" y1="350.0" x2="236.0" y2="480.0" style="stroke:rgb(255,0,0);stroke-width:2" />
<line x1="262.72792206135784" y1="404.14927829866735" x2="77.46594539048243" y2="402.73506473629425" style="stroke:rgb(255,0,0);stroke-width:2" />
<line x1="150.0" y1="368.0" x2="20.0" y2="236.00000000000003" style="stroke:rgb(255,0,0);stroke-width:2" />
<line x1="95.85072170133265" y1="262.7279220613579" x2="97.2649352637057" y2="77.46594539048243" style="stroke:rgb(255,0,0);stroke-width:2" />
<line x1="132.0" y1="150.00000000000003" x2="263.99999999999994" y2="20.0" style="stroke:rgb(255,0,0);stroke-width:2" />
<line x1="237.2720779386421" y1="95.85072170133265" x2="422.5340546095175" y2="97.2649352637057" style="stroke:rgb(255,0,0);stroke-width:2" />
<line x1="254.0" y1="222.0" x2="412.0" y2="273.0" style="stroke:rgb(255,0,0);stroke-width:2" />
<line x1="272.62741699796953" y1="233.02943725152286" x2="348.2878425849301" y2="380.81475451951127" style="stroke:rgb(255,0,0);stroke-width:2" />
<line x1="278.0" y1="254.0" x2="227.0" y2="412.0" style="stroke:rgb(255,0,0);stroke-width:2" />
<line x1="266.97056274847716" y1="272.62741699796953" x2="119.18524548048873" y2="348.2878425849301" style="stroke:rgb(255,0,0);stroke-width:2" />
<line x1="246.0" y1="278.0" x2="88.0" y2="227.00000000000003" style="stroke:rgb(255,0,0);stroke-width:2" />
<line x1="227.37258300203047" y1="266.97056274847716" x2="151.71215741506987" y2="119.18524548048873" style="stroke:rgb(255,0,0);stroke-width:2" />
<line x1="222.0" y1="246.0" x2="273.0" y2="88.0" style="stroke:rgb(255,0,0);stroke-width:2" />
<line x1="233.02943725152286" y1="227.37258300203047" x2="380.81475451951127" y2="151.71215741506987" style="stroke:rgb(255,0,0);stroke-width:2" />
<line x1="259.0" y1="373.0" x2="261.0" y2="48.0" style="stroke:rgb(255,0,0);stroke-width:2" />
<line x1="169.38982694473358" y1="343.3380951166243" x2="400.6137443927346" y2="114.94260479336941" style="stroke:rgb(255,0,0);stroke-width:2" />
<line x1="127.0" y1="259.0" x2="452.0" y2="261.0" style="stroke:rgb(255,0,0);stroke-width:2" />
<line x1="156.6619048833757" y1="169.38982694473358" x2="385.0573952066306" y2="400.6137443927346" style="stroke:rgb(255,0,0);stroke-width:2" />
<line x1="241.0" y1="127.0" x2="239.00000000000003" y2="452.0" style="stroke:rgb(255,0,0);stroke-width:2" />
<line x1="330.6101730552664" y1="156.6619048833757" x2="99.38625560726538" y2="385.05739520663064" style="stroke:rgb(255,0,0);stroke-width:2" />
<line x1="373.0" y1="240.99999999999997" x2="48.0" y2="239.00000000000003" style="stroke:rgb(255,0,0);stroke-width:2" />
<line x1="343.3380951166243" y1="330.6101730552664" x2="114.94260479336938" y2="99.38625560726541" style="stroke:rgb(255,0,0);stroke-width:2" />
<line x1="494.0" y1="279.0" x2="449.0" y2="193.0" style="stroke:rgb(255,0,0);stroke-width:2" />
<line x1="402.0279579551077" y1="443.04015126392744" x2="431.01933598375615" y2="350.40916292848976" style="stroke:rgb(255,0,0);stroke-width:2" />
<line x1="221.0" y1="494.0" x2="307.0" y2="449.0" style="stroke:rgb(255,0,0);stroke-width:2" />
<line x1="56.95984873607256" y1="402.0279579551077" x2="149.59083707151026" y2="431.01933598375615" style="stroke:rgb(255,0,0);stroke-width:2" />
<line x1="6.0" y1="221.00000000000003" x2="51.0" y2="307.0" style="stroke:rgb(255,0,0);stroke-width:2" />
<line x1="97.97204204489225" y1="56.95984873607256" x2="68.9806640162438" y2="149.59083707151026" style="stroke:rgb(255,0,0);stroke-width:2" />
<line x1="278.99999999999994" y1="6.0" x2="192.99999999999997" y2="51.0" style="stroke:rgb(255,0,0);stroke-width:2" />
<line x1="443.04015126392744" y1="97.97204204489225" x2="350.4091629284897" y2="68.98066401624382" style="stroke:rgb(255,0,0);stroke-width:2" />
<line x1="319.0" y1="400.0" x2="316.0" y2="183.0" style="stroke:rgb(255,0,0);stroke-width:2" />
<line x1="192.72435072388967" y1="404.8563850798539" x2="344.0452018978108" y2="249.29289321881345" style="stroke:rgb(255,0,0);stroke-width:2" />
<line x1="100.0" y1="319.0" x2="317.0" y2="316.0" style="stroke:rgb(255,0,0);stroke-width:2" />
<line x1="95.14361492014609" y1="192.72435072388967" x2="250.70710678118655" y2="344.0452018978108" style="stroke:rgb(255,0,0);stroke-width:2" />
<line x1="181.0" y1="100.0" x2="184.0" y2="317.0" style="stroke:rgb(255,0,0);stroke-width:2" />
<line x1="307.27564927611036" y1="95.14361492014609" x2="155.95479810218916" y2="250.70710678118655" style="stroke:rgb(255,0,0);stroke-width:2" />
<line x1="400.0" y1="180.99999999999997" x2="183.0" y2="184.0" style="stroke:rgb(255,0,0);stroke-width:2" />
<line x1="404.8563850798539" y1="307.2756492761103" x2="249.29289321881342" y2="155.9547981021892" style="stroke:rgb(255,0,0);stroke-width:2" />
<line x1="399.0" y1="8.0" x2="438.0" y2="160.0" style="stroke:rgb(255,0,0);stroke-width:2" />
<line x1="526.4787514439402" y1="184.23906934965106" x2="446.5756851698602" y2="319.29646455628165" style="stroke:rgb(255,0,0);stroke-width:2" />
<line x1="492.0" y1="399.0" x2="340.0" y2="438.0" style="stroke:rgb(255,0,0);stroke-width:2" />
<line x1="315.76093065034894" y1="526.4787514439402" x2="180.70353544371835" y2="446.5756851698602" style="stroke:rgb(255,0,0);stroke-width:2" />
<line x1="101.00000000000003" y1="492.0" x2="62.0" y2="340.0" style="stroke:rgb(255,0,0);stroke-width:2" />
<line x1="-26.478751443940098" y1="315.760930650349" x2="53.424314830139764" y2="180.70353544371835" style="stroke:rgb(255,0,0);stroke-width:2" />
<line x1="7.999999999999972" y1="101.00000000000006" x2="159.99999999999997" y2="62.00000000000003" style="stroke:rgb(255,0,0);stroke-width:2" />
<line x1="184.239069349651" y1="-26.47875144394004" x2="319.2964645562816" y2="53.42431483013979" style="stroke:rgb(255,0,0);stroke-width:2" />
<line x1="351.0" y1="344.0" x2="467.0" y2="429.0" style="stroke:rgb(255,0,0);stroke-width:2" />
<line x1="254.94974746830584" y1="387.88582233137674" x2="276.87005768508885" y2="530.0142853498728" style="stroke:rgb(255,0,0);stroke-width:2" />
<line x1="156.0" y1="351.0" x2="71.0" y2="467.0" style="stroke:rgb(255,0,0);stroke-width:2" />
<line x1="112.11417766862323" y1="254.94974746830584" x2="-30.014285349872807" y2="276.87005768508885" style="stroke:rgb(255,0,0);stroke-width:2" />
<line x1="149.0" y1="156.0" x2="32.99999999999997" y2="71.00000000000003" style="stroke:rgb(255,0,0);stroke-width:2" />
<line x1="245.05025253169413" y1="112.11417766862323" x2="223.12994231491115" y2="-30.014285349872807" style="stroke:rgb(255,0,0);stroke-width:2" />
<line x1="344.0" y1="149.0" x2="429.0" y2="32.99999999999997" style="stroke:rgb(255,0,0);stroke-width:2" />
<line x1="387.88582233137674" y1="245.05025253169413" x2="530.0142853498728" y2="223.12994231491112" style="stroke:rgb(255,0,0);stroke-width:2" />
<line x1="325.0" y1="262.0" x2="465.0" y2="109.0" style="stroke:rgb(255,0,0);stroke-width:2" />
<line x1="294.5477272147525" y1="311.5182899632296" x2="501.7300141024109" y2="302.3259018078045" style="stroke:rgb(255,0,0);stroke-width:2" />
<line x1="238.0" y1="325.0" x2="391.0" y2="465.0" style="stroke:rgb(255,0,0);stroke-width:2" />
<line x1="188.48171003677038" y1="294.5477272147525" x2="197.67409819219552" y2="501.7300141024109" style="stroke:rgb(255,0,0);stroke-width:2" />
<line x1="175.0" y1="238.0" x2="35.00000000000003" y2="391.0" style="stroke:rgb(255,0,0);stroke-width:2" />
<line x1="205.4522727852475" y1="188.48171003677038" x2="-1.730014102410962" y2="197.67409819219552" style="stroke:rgb(255,0,0);stroke-width:2" />
<line x1="262.0" y1="175.0" x2="108.99999999999997" y2="35.00000000000003" style="stroke:rgb(255,0,0);stroke-width:2" />
<line x1="311.5182899632296" y1="205.4522727852475" x2="302.3259018078044" y2="-1.7300141024109337" style="stroke:rgb(255,0,0);stroke-width:2" />
<line x1="411.0" y1="106.0" x2="439.0" y2="197.0" style="stroke:rgb(255,0,0);stroke-width:2" />
<line x1="465.66756826189703" y1="262.0208152801713" x2="421.1198410471445" y2="346.16652224137044" style="stroke:rgb(255,0,0);stroke-width:2" />
<line x1="394.0" y1="411.0" x2="303.0" y2="439.0" style="stroke:rgb(255,0,0);stroke-width:2" />
<line x1="237.9791847198287" y1="465.66756826189703" x2="153.83347775862956" y2="421.1198410471445" style="stroke:rgb(255,0,0);stroke-width:2" />
<line x1="89.00000000000003" y1="394.0" x2="61.0" y2="303.0" style="stroke:rgb(255,0,0);stroke-width:2" />
<line x1="34.33243173810297" y1="237.9791847198287" x2="78.88015895285548" y2="153.83347775862956" style="stroke:rgb(255,0,0);stroke-width:2" />
<line x1="105.99999999999997" y1="89.00000000000003" x2="196.99999999999997" y2="61.0" style="stroke:rgb(255,0,0);stroke-width:2" />
<line x1="262.02081528017123" y1="34.332431738103026" x2="346.16652224137044" y2="78.88015895285548" style="stroke:rgb(255,0,0);stroke-width:2" />
<line x1="359.0" y1="219.0" x2="373.0" y2="158.0" style="stroke:rgb(255,0,0);stroke-width:2" />
<line x1="348.99494936611666" y1="305.1543289325507" x2="402.0279579551077" y2="271.920310216783" style="stroke:rgb(255,0,0);stroke-width:2" />
<line x1="281.0" y1="359.0" x2="342.0" y2="373.0" style="stroke:rgb(255,0,0);stroke-width:2" />
<line x1="194.8456710674493" y1="348.99494936611666" x2="228.07968978321702" y2="402.0279579551077" style="stroke:rgb(255,0,0);stroke-width:2" />
<line x1="141.0" y1="281.0" x2="127.00000000000001" y2="342.0" style="stroke:rgb(255,0,0);stroke-width:2" />
<line x1="151.00505063388334" y1="194.8456710674493" x2="97.97204204489225" y2="228.07968978321705" style="stroke:rgb(255,0,0);stroke-width:2" />
<line x1="218.99999999999997" y1="141.0" x2="157.99999999999997" y2="127.00000000000001" style="stroke:rgb(255,0,0);stroke-width:2" />
<line x1="305.1543289325507" y1="151.00505063388334" x2="271.9203102167829" y2="97.97204204489228" style="stroke:rgb(255,0,0);stroke-width:2" />
<line x1="448.0" y1="258.0" x2="256.0" y2="343.0" style="stroke:rgb(255,0,0);stroke-width:2" />
<line x1="384.3502884254441" y1="395.6639969244288" x2="188.48171003677038" y2="320.0035713374682" style="stroke:rgb(255,0,0);stroke-width:2" />
<line x1="242.0" y1="448.0" x2="157.0" y2="256.0" style="stroke:rgb(255,0,0);stroke-width:2" />
<line x1="104.33600307557123" y1="384.3502884254441" x2="179.9964286625318" y2="188.48171003677038" style="stroke:rgb(255,0,0);stroke-width:2" />
<line x1="52.0" y1="242.00000000000003" x2="244.0" y2="157.0" style="stroke:rgb(255,0,0);stroke-width:2" />
<line x1="115.64971157455594" y1="104.33600307557123" x2="311.5182899632296" y2="179.99642866253177" style="stroke:rgb(255,0,0);stroke-width:2" />
<line x1="257.99999999999994" y1="52.0" x2="343.0" y2="243.99999999999997" style="stroke:rgb(255,0,0);stroke-width:2" />
<line x1="395.6639969244287" y1="115.64971157455594" x2="320.0035713374682" y2="311.5182899632296" style="stroke:rgb(255,0,0);stroke-width:2" />
<line x1="299.0" y1="227.0" x2="372.0" y2="305.0" style="stroke:rgb(255,0,0);stroke-width:2" />
<line x1="300.91168824543144" y1="268.3847763108502" x2="297.37615433949867" y2="375.1579002700189" style="stroke:rgb(255,0,0);stroke-width:2" />
<line x1="273.0" y1="299.0" x2="195.0" y2="372.0" style="stroke:rgb(255,0,0);stroke-width:2" />
<line x1="231.61522368914976" y1="300.91168824543144" x2="124.8420997299811" y2="297.37615433949867" style="stroke:rgb(255,0,0);stroke-width:2" />
<line x1="201.0" y1="273.0" x2="128.0" y2="195.0" style="stroke:rgb(255,0,0);stroke-width:2" />
<line x1="199.08831175456856" y1="231.6152236891498" x2="202.6238456605013" y2="124.8420997299811" style="stroke:rgb(255,0,0);stroke-width:2" />
<line x1="227.0" y1="201.0" x2="305.0" y2="127.99999999999999" style="stroke:rgb(255,0,0);stroke-width:2" />
<line x1="268.3847763108502" y1="199.08831175456856" x2="375.1579002700189" y2="202.62384566050127" style="stroke:rgb(255,0,0);stroke-width:2" />
<line x1="366.0" y1="465.0" x2="352.0" y2="395.0" style="stroke:rgb(255,0,0);stroke-width:2" />
<line x1="179.99642866253183" y1="484.05234457274724" x2="219.59440840897847" y2="424.6553749530772" style="stroke:rgb(255,0,0);stroke-width:2" />
<line x1="35.0" y1="366.0" x2="105.0" y2="352.0" style="stroke:rgb(255,0,0);stroke-width:2" />
<line x1="15.947655427252755" y1="179.99642866253183" x2="75.34462504692277" y2="219.59440840897847" style="stroke:rgb(255,0,0);stroke-width:2" />
<line x1="133.99999999999997" y1="35.0" x2="148.0" y2="105.0" style="stroke:rgb(255,0,0);stroke-width:2" />
<line x1="320.00357133746814" y1="15.947655427252755" x2="280.4055915910215" y2="75.34462504692274" style="stroke:rgb(255,0,0);stroke-width:2" />
<line x1="465.0" y1="133.99999999999994" x2="395.0" y2="147.99999999999997" style="stroke:rgb(255,0,0);stroke-width:2" />
<line x1="484.05234457274724" y1="320.00357133746814" x2="424.6553749530772" y2="280.4055915910215" style="stroke:rgb(255,0,0);stroke-width:2" />
<line x1="393.0" y1="221.0" x2="327.0" y2="36.0" style="stroke:rgb(255,0,0);stroke-width:2" />
<line x1="371.6223663640862" y1="330.6101730552664" x2="455.76807332528534" y2="153.12637097744297" style="stroke:rgb(255,0,0);stroke-width:2" />
<line x1="279.0" y1="393.0" x2="464.0" y2="327.0" style="stroke:rgb(255,0,0);stroke-width:2" />
<line x1="169.38982694473358" y1="371.6223663640862" x2="346.873629022557" y2="455.76807332528534" style="stroke:rgb(255,0,0);stroke-width:2" />
<line x1="107.0" y1="279.0" x2="173.00000000000003" y2="464.0" style="stroke:rgb(255,0,0);stroke-width:2" />
<line x1="128.3776336359138" y1="169.3898269447336" x2="44.23192667471466" y2="346.87362902255705" style="stroke:rgb(255,0,0);stroke-width:2" />
<line x1="220.99999999999997" y1="107.0" x2="36.0" y2="173.00000000000006" style="stroke:rgb(255,0,0);stroke-width:2" />
<line x1="330.6101730552664" y1="128.3776336359138" x2="153.12637097744295" y2="44.231926674714686" style="stroke:rgb(255,0,0);stroke-width:2" />
<line x1="137.0" y1="138.0" x2="228.0" y2="128.0" style="stroke:rgb(255,0,0);stroke-width:2" />
<line x1="249.29289321881345" y1="90.90097423302683" x2="320.71067811865476" y2="148.17662350913716" style="stroke:rgb(255,0,0);stroke-width:2" />
<line x1="362.0" y1="137.0" x2="372.0" y2="228.0" style="stroke:rgb(255,0,0);stroke-width:2" />
<line x1="409.09902576697317" y1="249.29289321881345" x2="351.82337649086287" y2="320.71067811865476" style="stroke:rgb(255,0,0);stroke-width:2" />
<line x1="363.0" y1="362.0" x2="272.0" y2="372.0" style="stroke:rgb(255,0,0);stroke-width:2" />
<line x1="250.70710678118658" y1="409.0990257669732" x2="179.28932188134524" y2="351.82337649086287" style="stroke:rgb(255,0,0);stroke-width:2" />
<line x1="138.0" y1="363.0" x2="128.0" y2="272.0" style="stroke:rgb(255,0,0);stroke-width:2" />
<line x1="90.90097423302683" y1="250.70710678118658" x2="148.17662350913713" y2="179.28932188134527" style="stroke:rgb(255,0,0);stroke-width:2" />
<line x1="1.0" y1="100.0" x2="214.0" y2="260.0" style="stroke:rgb(255,0,0);stroke-width:2" />
<line x1="179.9964286625318" y1="-32.13560569343247" x2="217.4730880654188" y2="231.61522368914976" style="stroke:rgb(255,0,0);stroke-width:2" />
<line x1="400.0" y1="1.0" x2="240.0" y2="214.0" style="stroke:rgb(255,0,0);stroke-width:2" />
<line x1="532.1356056934325" y1="179.9964286625318" x2="268.3847763108502" y2="217.4730880654188" style="stroke:rgb(255,0,0);stroke-width:2" />
<line x1="499.0" y1="400.0" x2="286.0" y2="240.0" style="stroke:rgb(255,0,0);stroke-width:2" />
<line x1="320.00357133746826" y1="532.1356056934325" x2="282.5269119345812" y2="268.3847763108502" style="stroke:rgb(255,0,0);stroke-width:2" />
<line x1="100.00000000000006" y1="499.0" x2="260.0" y2="286.0" style="stroke:rgb(255,0,0);stroke-width:2" />
<line x1="-32.13560569343241" y1="320.00357133746826" x2="231.6152236891498" y2="282.5269119345812" style="stroke:rgb(255,0,0);stroke-width:2" />
<line x1="150.0" y1="132.0" x2="20.0" y2="264.0" style="stroke:rgb(255,0,0);stroke-width:2" />
<line x1="262.72792206135784" y1="95.85072170133265" x2="77.4659453904824" y2="97.26493526370575" style="stroke:rgb(255,0,0);stroke-width:2" />
<line x1="368.0" y1="150.0" x2="236.0" y2="20.0" style="stroke:rgb(255,0,0);stroke-width:2" />
<line x1="404.14927829866735" y1="262.72792206135784" x2="402.73506473629425" y2="77.4659453904824" style="stroke:rgb(255,0,0);stroke-width:2" />
<line x1="350.0" y1="368.0" x2="480.0" y2="235.99999999999997" style="stroke:rgb(255,0,0);stroke-width:2" />
<line x1="237.27207793864216" y1="404.14927829866735" x2="422.5340546095176" y2="402.73506473629425" style="stroke:rgb(255,0,0);stroke-width:2" />
<line x1="132.0" y1="350.0" x2="264.00000000000006" y2="480.0" style="stroke:rgb(255,0,0);stroke-width:2" />
<line x1="95.85072170133265" y1="237.27207793864218" x2="97.26493526370578" y2="422.5340546095176" style="stroke:rgb(255,0,0);stroke-width:2" />
<line x1="246.0" y1="222.0" x2="88.0" y2="273.0" style="stroke:rgb(255,0,0);stroke-width:2" />
<line x1="266.97056274847716" y1="227.37258300203047" x2="119.1852454804887" y2="151.7121574150699" style="stroke:rgb(255,0,0);stroke-width:2" />
<line x1="278.0" y1="246.0" x2="227.0" y2="88.0" style="stroke:rgb(255,0,0);stroke-width:2" />
<line x1="272.62741699796953" y1="266.97056274847716" x2="348.2878425849301" y2="119.1852454804887" style="stroke:rgb(255,0,0);stroke-width:2" />
<line x1="254.0" y1="278.0" x2="412.0" y2="226.99999999999997" style="stroke:rgb(255,0,0);stroke-width:2" />
<line x1="233.02943725152286" y1="272.62741699796953" x2="380.8147545195113" y2="348.2878425849301" style="stroke:rgb(255,0,0);stroke-width:2" />
<line x1="222.0" y1="254.0" x2="273.0" y2="412.0" style="stroke:rgb(255,0,0);stroke-width:2" />
<line x1="227.37258300203047" y1="233.02943725152286" x2="151.71215741506992" y2="380.8147545195113" style="stroke:rgb(255,0,0);stroke-width:2" />
<line x1="241.0" y1="373.0" x2="239.0" y2="48.0" style="stroke:rgb(255,0,0);stroke-width:2" />
<line x1="156.66190488337574" y1="330.61017305526644" x2="385.05739520663053" y2="99.38625560726535" style="stroke:rgb(255,0,0);stroke-width:2" />
<line x1="127.0" y1="241.0" x2="452.0" y2="239.0" style="stroke:rgb(255,0,0);stroke-width:2" />
<line x1="169.38982694473356" y1="156.66190488337574" x2="400.61374439273465" y2="385.05739520663053" style="stroke:rgb(255,0,0);stroke-width:2" />
<line x1="259.0" y1="127.0" x2="261.0" y2="452.0" style="stroke:rgb(255,0,0);stroke-width:2" />
<line x1="343.33809511662423" y1="169.38982694473356" x2="114.94260479336944" y2="400.6137443927347" style="stroke:rgb(255,0,0);stroke-width:2" />
<line x1="373.0" y1="259.0" x2="48.0" y2="261.00000000000006" style="stroke:rgb(255,0,0);stroke-width:2" />
<line x1="330.61017305526644" y1="343.33809511662423" x2="99.38625560726533" y2="114.94260479336947" style="stroke:rgb(255,0,0);stroke-width:2" />
<line x1="6.0" y1="279.0" x2="51.0" y2="193.0" style="stroke:rgb(255,0,0);stroke-width:2" />
<line x1="56.95984873607253" y1="97.9720420448923" x2="149.59083707151024" y2="68.98066401624382" style="stroke:rgb(255,0,0);stroke-width:2" />
<line x1="221.0" y1="6.0" x2="307.0" y2="51.0" style="stroke:rgb(255,0,0);stroke-width:2" />
<line x1="402.0279579551077" y1="56.95984873607253" x2="431.01933598375615" y2="149.59083707151024" style="stroke:rgb(255,0,0);stroke-width:2" />
<line x1="494.0" y1="220.99999999999997" x2="449.0" y2="307.0" style="stroke:rgb(255,0,0);stroke-width:2" />
<line x1="443.0401512639275" y1="402.0279579551077" x2="350.40916292848976" y2="431.01933598375615" style="stroke:rgb(255,0,0);stroke-width:2" />
<line x1="279.00000000000006" y1="494.0" x2="193.00000000000003" y2="449.0" style="stroke:rgb(255,0,0);stroke-width:2" />
<line x1="97.97204204489233" y1="443.0401512639275" x2="68.98066401624385" y2="350.40916292848976" style="stroke:rgb(255,0,0);stroke-width:2" />
<line x1="181.0" y1="400.0" x2="184.0" y2="183.0" style="stroke:rgb(255,0,0);stroke-width:2" />
<line x1="95.14361492014609" y1="307.27564927611036" x2="250.70710678118655" y2="155.9547981021892" style="stroke:rgb(255,0,0);stroke-width:2" />
<line x1="100.0" y1="181.0" x2="317.0" y2="184.0" style="stroke:rgb(255,0,0);stroke-width:2" />
<line x1="192.72435072388964" y1="95.14361492014609" x2="344.0452018978108" y2="250.70710678118655" style="stroke:rgb(255,0,0);stroke-width:2" />
<line x1="319.0" y1="100.0" x2="316.0" y2="317.0" style="stroke:rgb(255,0,0);stroke-width:2" />
<line x1="404.8563850798539" y1="192.72435072388964" x2="249.29289321881345" y2="344.04520189781084" style="stroke:rgb(255,0,0);stroke-width:2" />
<line x1="400.0" y1="319.0" x2="183.0" y2="316.0" style="stroke:rgb(255,0,0);stroke-width:2" />
<line x1="307.27564927611036" y1="404.8563850798539" x2="155.9547981021892" y2="249.29289321881348" style="stroke:rgb(255,0,0);stroke-width:2" />
<line x1="101.0" y1="8.0" x2="62.0" y2="160.0" style="stroke:rgb(255,0,0);stroke-width:2" />
<line x1="315.7609306503489" y1="-26.478751443940098" x2="180.70353544371832" y2="53.42431483013979" style="stroke:rgb(255,0,0);stroke-width:2" />
<line x1="492.0" y1="100.99999999999997" x2="340.0" y2="62.0" style="stroke:rgb(255,0,0);stroke-width:2" />
<line x1="526.4787514439402" y1="315.7609306503489" x2="446.5756851698602" y2="180.70353544371832" style="stroke:rgb(255,0,0);stroke-width:2" />
<line x1="399.0" y1="492.0" x2="438.0" y2="340.0" style="stroke:rgb(255,0,0);stroke-width:2" />
<line x1="184.23906934965112" y1="526.4787514439402" x2="319.29646455628165" y2="446.5756851698602" style="stroke:rgb(255,0,0);stroke-width:2" />
<line x1="8.000000000000028" y1="399.00000000000006" x2="160.00000000000003" y2="438.0" style="stroke:rgb(255,0,0);stroke-width:2" />
<line x1="-26.478751443940098" y1="184.23906934965115" x2="53.42431483013979" y2="319.2964645562817" style="stroke:rgb(255,0,0);stroke-width:2" />
<line x1="149.0" y1="344.0" x2="33.0" y2="429.0" style="stroke:rgb(255,0,0);stroke-width:2" />
<line x1="112.11417766862323" y1="245.05025253169418" x2="-30.014285349872807" y2="223.1299423149112" style="stroke:rgb(255,0,0);stroke-width:2" />
<line x1="156.0" y1="149.0" x2="71.0" y2="33.0" style="stroke:rgb(255,0,0);stroke-width:2" />
<line x1="254.94974746830582" y1="112.11417766862323" x2="276.8700576850888" y2="-30.014285349872807" style="stroke:rgb(255,0,0);stroke-width:2" />
<line x1="351.0" y1="156.0" x2="467.0" y2="70.99999999999997" style="stroke:rgb(255,0,0);stroke-width:2" />
<line x1="387.8858223313768" y1="254.94974746830582" x2="530.0142853498728" y2="276.8700576850888" style="stroke:rgb(255,0,0);stroke-width:2" />
<line x1="344.0" y1="351.0" x2="429.0" y2="467.0" style="stroke:rgb(255,0,0);stroke-width:2" />
<line x1="245.05025253169418" y1="387.88582233137674" x2="223.12994231491126" y2="530.0142853498728" style="stroke:rgb(255,0,0);stroke-width:2" />
<line x1="175.0" y1="262.0" x2="35.0" y2="109.0" style="stroke:rgb(255,0,0);stroke-width:2" />
<line x1="188.48171003677038" y1="205.45227278524752" x2="197.67409819219546" y2="-1.7300141024109053" style="stroke:rgb(255,0,0);stroke-width:2" />
<line x1="238.0" y1="175.0" x2="391.0" y2="35.0" style="stroke:rgb(255,0,0);stroke-width:2" />
<line x1="294.5477272147525" y1="188.48171003677038" x2="501.7300141024109" y2="197.67409819219546" style="stroke:rgb(255,0,0);stroke-width:2" />
<line x1="325.0" y1="238.0" x2="465.0" y2="391.0" style="stroke:rgb(255,0,0);stroke-width:2" />
<line x1="311.5182899632296" y1="294.5477272147525" x2="302.32590180780454" y2="501.7300141024109" style="stroke:rgb(255,0,0);stroke-width:2" />
<line x1="262.0" y1="325.0" x2="109.00000000000003" y2="465.0" style="stroke:rgb(255,0,0);stroke-width:2" />
<line x1="205.45227278524752" y1="311.5182899632296" x2="-1.7300141024109053" y2="302.3259018078046" style="stroke:rgb(255,0,0);stroke-width:2" />
<line x1="89.0" y1="106.0" x2="61.0" y2="197.0" style="stroke:rgb(255,0,0);stroke-width:2" />
<line x1="237.97918471982868" y1="34.332431738103" x2="153.83347775862953" y2="78.88015895285548" style="stroke:rgb(255,0,0);stroke-width:2" />
<line x1="394.0" y1="89.0" x2="303.0" y2="61.0" style="stroke:rgb(255,0,0);stroke-width:2" />
<line x1="465.66756826189703" y1="237.97918471982868" x2="421.1198410471445" y2="153.83347775862953" style="stroke:rgb(255,0,0);stroke-width:2" />
<line x1="411.0" y1="394.0" x2="439.0" y2="303.0" style="stroke:rgb(255,0,0);stroke-width:2" />
<line x1="262.02081528017135" y1="465.66756826189703" x2="346.1665222413705" y2="421.1198410471445" style="stroke:rgb(255,0,0);stroke-width:2" />
<line x1="106.00000000000003" y1="411.0" x2="197.00000000000003" y2="439.0" style="stroke:rgb(255,0,0);stroke-width:2" />
<line x1="34.332431738103026" y1="262.02081528017135" x2="78.88015895285551" y2="346.1665222413705" style="stroke:rgb(255,0,0);stroke-width:2" />
<line x1="141.0" y1="219.0" x2="127.0" y2="158.0" style="stroke:rgb(255,0,0);stroke-width:2" />
<line x1="194.84567106744927" y1="151.00505063388334" x2="228.07968978321702" y2="97.9720420448923" style="stroke:rgb(255,0,0);stroke-width:2" />
<line x1="281.0" y1="141.0" x2="342.0" y2="127.0" style="stroke:rgb(255,0,0);stroke-width:2" />
<line x1="348.99494936611666" y1="194.84567106744927" x2="402.0279579551077" y2="228.07968978321702" style="stroke:rgb(255,0,0);stroke-width:2" />
<line x1="359.0" y1="281.0" x2="373.0" y2="342.0" style="stroke:rgb(255,0,0);stroke-width:2" />
<line x1="305.1543289325507" y1="348.99494936611666" x2="271.920310216783" y2="402.0279579551077" style="stroke:rgb(255,0,0);stroke-width:2" />
<line x1="219.00000000000003" y1="359.0" x2="158.00000000000003" y2="373.0" style="stroke:rgb(255,0,0);stroke-width:2" />
<line x1="151.00505063388334" y1="305.1543289325507" x2="97.9720420448923" y2="271.92031021678304" style="stroke:rgb(255,0,0);stroke-width:2" />
<line x1="52.0" y1="258.0" x2="244.0" y2="343.0" style="stroke:rgb(255,0,0);stroke-width:2" />
<line x1="104.3360030755712" y1="115.64971157455597" x2="179.9964286625318" y2="311.5182899632296" style="stroke:rgb(255,0,0);stroke-width:2" />
<line x1="242.0" y1="52.0" x2="157.0" y2="244.0" style="stroke:rgb(255,0,0);stroke-width:2" />
<line x1="384.35028842544403" y1="104.3360030755712" x2="188.48171003677035" y2="179.9964286625318" style="stroke:rgb(255,0,0);stroke-width:2" />
<line x1="448.0" y1="241.99999999999997" x2="256.0" y2="157.0" style="stroke:rgb(255,0,0);stroke-width:2" />
<line x1="395.66399692442883" y1="384.35028842544403" x2="320.0035713374682" y2="188.48171003677035" style="stroke:rgb(255,0,0);stroke-width:2" />
<line x1="258.00000000000006" y1="448.0" x2="343.0" y2="255.99999999999997" style="stroke:rgb(255,0,0);stroke-width:2" />
<line x1="115.649711574556" y1="395.66399692442883" x2="311.5182899632297" y2="320.0035713374682" style="stroke:rgb(255,0,0);stroke-width:2" />
<line x1="201.0" y1="227.0" x2="128.0" y2="305.0" style="stroke:rgb(255,0,0);stroke-width:2" />
<line x1="231.61522368914976" y1="199.08831175456856" x2="124.8420997299811" y2="202.62384566050133" style="stroke:rgb(255,0,0);stroke-width:2" />
<line x1="273.0" y1="201.0" x2="195.0" y2="128.0" style="stroke:rgb(255,0,0);stroke-width:2" />
<line x1="300.91168824543144" y1="231.61522368914976" x2="297.37615433949867" y2="124.8420997299811" style="stroke:rgb(255,0,0);stroke-width:2" />
<line x1="299.0" y1="273.0" x2="372.0" y2="195.0" style="stroke:rgb(255,0,0);stroke-width:2" />
<line x1="268.38477631085027" y1="300.91168824543144" x2="375.1579002700189" y2="297.37615433949867" style="stroke:rgb(255,0,0);stroke-width:2" />
<line x1="227.0" y1="299.0" x2="305.0" y2="372.0" style="stroke:rgb(255,0,0);stroke-width:2" />
<line x1="199.0883117545686" y1="268.38477631085027" x2="202.62384566050136" y2="375.1579002700189" style="stroke:rgb(255,0,0);stroke-width:2" />
<line x1="134.0" y1="465.0" x2="148.0" y2="395.0" style="stroke:rgb(255,0,0);stroke-width:2" />
<line x1="15.947655427252784" y1="320.0035713374682" x2="75.34462504692277" y2="280.40559159102156" style="stroke:rgb(255,0,0);stroke-width:2" />
<line x1="35.0" y1="134.0" x2="105.0" y2="148.0" style="stroke:rgb(255,0,0);stroke-width:2" />
<line x1="179.9964286625318" y1="15.947655427252784" x2="219.59440840897844" y2="75.34462504692277" style="stroke:rgb(255,0,0);stroke-width:2" />
<line x1="366.0" y1="35.0" x2="352.0" y2="105.0" style="stroke:rgb(255,0,0);stroke-width:2" />
<line x1="484.05234457274724" y1="179.99642866253174" x2="424.6553749530772" y2="219.59440840897844" style="stroke:rgb(255,0,0);stroke-width:2" />
<line x1="465.0" y1="365.99999999999994" x2="395.0" y2="352.0" style="stroke:rgb(255,0,0);stroke-width:2" />
<line x1="320.00357133746826" y1="484.0523445727472" x2="280.40559159102156" y2="424.6553749530772" style="stroke:rgb(255,0,0);stroke-width:2" />
<line x1="107.0" y1="221.0" x2="173.0" y2="36.0" style="stroke:rgb(255,0,0);stroke-width:2" />
<line x1="169.38982694473356" y1="128.37763363591384" x2="346.873629022557" y2="44.231926674714686" style="stroke:rgb(255,0,0);stroke-width:2" />
<line x1="279.0" y1="107.0" x2="464.0" y2="173.0" style="stroke:rgb(255,0,0);stroke-width:2" />
<line x1="371.62236636408613" y1="169.38982694473356" x2="455.7680733252853" y2="346.873629022557" style="stroke:rgb(255,0,0);stroke-width:2" />
<line x1="393.0" y1="279.0" x2="327.0" y2="464.0" style="stroke:rgb(255,0,0);stroke-width:2" />
<line x1="330.61017305526644" y1="371.6223663640862" x2="153.126370977443" y2="455.76807332528534" style="stroke:rgb(255,0,0);stroke-width:2" />
<line x1="221.00000000000003" y1="393.0" x2="36.0" y2="327.00000000000006" style="stroke:rgb(255,0,0);stroke-width:2" />
<line x1="128.37763363591384" y1="330.61017305526644" x2="44.23192667471466" y2="153.12637097744303" style="stroke:rgb(255,0,0);stroke-width:2" />
 <rect x="0" y="0" width="500" height="167.0" style="fill:white" /> <rect x="0" y="167.0" width="167.0" height="333.0" style="fill:white" /> <rect x="333.0" y="167.0" width="167.0" height="333.0" style="fill:white" /> <rect x="167.0" y="333.0" width="166" height="167.0" style="fill:white" /></svg>
