<svg width="500" height="500">
<rect width="500" height="500" style="fill:rgb(255,255,255)" />
<line x1="344" y1="323" x2="333" y2="412" style="stroke:rgb(255,0,0);stroke-width:2" />
<line x1="401" y1="361" x2="273" y2="228" style="stroke:rgb(255,0,0);stroke-width:2" />
<line x1="258" y1="19" x2="384" y2="261" style="stroke:rgb(255,0,0);stroke-width:2" />
<line x1="309" y1="29" x2="467" y2="207" style="stroke:rgb(255,0,0);stroke-width:2" />
<line x1="283" y1="424" x2="289" y2="354" style="stroke:rgb(255,0,0);stroke-width:2" />
<line x1="446" y1="236" x2="312" y2="80" style="stroke:rgb(255,0,0);stroke-width:2" />
<line x1="325" y1="56" x2="295" y2="328" style="stroke:rgb(255,0,0);stroke-width:2" />
<line x1="496" y1="392" x2="498" y2="476" style="stroke:rgb(255,0,0);stroke-width:2" />
<line x1="324" y1="260" x2="251" y2="491" style="stroke:rgb(255,0,0);stroke-width:2" />
<line x1="343" y1="459" x2="306" y2="481" style="stroke:rgb(255,0,0);stroke-width:2" />
<line x1="308" y1="349" x2="491" y2="126" style="stroke:rgb(255,0,0);stroke-width:2" />
<line x1="293" y1="62" x2="286" y2="499" style="stroke:rgb(255,0,0);stroke-width:2" />
<line x1="449" y1="493" x2="499" y2="189" style="stroke:rgb(255,0,0);stroke-width:2" />
<line x1="461" y1="432" x2="381" y2="11" style="stroke:rgb(255,0,0);stroke-width:2" />
<line x1="371" y1="146" x2="252" y2="224" style="stroke:rgb(255,0,0);stroke-width:2" />
<line x1="156.0" y1="323" x2="167.0" y2="412" style="stroke:rgb(255,0,0);stroke-width:2" />
<line x1="99.0" y1="361" x2="227.0" y2="228" style="stroke:rgb(255,0,0);stroke-width:2" />
<line x1="242.0" y1="19" x2="116.0" y2="261" style="stroke:rgb(255,0,0);stroke-width:2" />
<line x1="191.0" y1="29" x2="33.0" y2="207" style="stroke:rgb(255,0,0);stroke-width:2" />
<line x1="217.0" y1="424" x2="211.0" y2="354" style="stroke:rgb(255,0,0);stroke-width:2" />
<line x1="54.0" y1="236" x2="188.0" y2="80" style="stroke:rgb(255,0,0);stroke-width:2" />
<line x1="175.0" y1="56" x2="205.0" y2="328" style="stroke:rgb(255,0,0);stroke-width:2" />
<line x1="4.0" y1="392" x2="2.0" y2="476" style="stroke:rgb(255,0,0);stroke-width:2" />
<line x1="176.0" y1="260" x2="249.0" y2="491" style="stroke:rgb(255,0,0);stroke-width:2" />
<line x1="157.0" y1="459" x2="194.0" y2="481" style="stroke:rgb(255,0,0);stroke-width:2" />
<line x1="192.0" y1="349" x2="9.0" y2="126" style="stroke:rgb(255,0,0);stroke-width:2" />
<line x1="207.0" y1="62" x2="214.0" y2="499" style="stroke:rgb(255,0,0);stroke-width:2" />
<line x1="51.0" y1="493" x2="1.0" y2="189" style="stroke:rgb(255,0,0);stroke-width:2" />
<line x1="39.0" y1="432" x2="119.0" y2="11" style="stroke:rgb(255,0,0);stroke-width:2" />
<line x1="129.0" y1="146" x2="248.0" y2="224" style="stroke:rgb(255,0,0);stroke-width:2" />
<line x1="344.0" y1="323.0" x2="333.0" y2="412.0" style="stroke:rgb(255,0,0);stroke-width:2" />
<line x1="264.8492424049175" y1="368.0868324581534" x2="194.13856428626275" y2="423.2411613907042" style="stroke:rgb(255,0,0);stroke-width:2" />
<line x1="177.0" y1="344.0" x2="88.0" y2="333.0" style="stroke:rgb(255,0,0);stroke-width:2" />
<line x1="131.91316754184658" y1="264.8492424049175" x2="76.75883860929585" y2="194.13856428626275" style="stroke:rgb(255,0,0);stroke-width:2" />
<line x1="156.0" y1="177.0" x2="167.0" y2="88.0" style="stroke:rgb(255,0,0);stroke-width:2" />
<line x1="235.1507575950825" y1="131.91316754184655" x2="305.86143571373725" y2="76.75883860929582" style="stroke:rgb(255,0,0);stroke-width:2" />
<line x1="323.0" y1="156.0" x2="412.0" y2="166.99999999999997" style="stroke:rgb(255,0,0);stroke-width:2" />
<line x1="368.0868324581534" y1="235.1507575950825" x2="423.2411613907042" y2="305.8614357137372" style="stroke:rgb(255,0,0);stroke-width:2" />
<line x1="401.0" y1="361.0" x2="273.0" y2="228.0" style="stroke:rgb(255,0,0);stroke-width:2" />
<line x1="278.2842712474619" y1="435.26197667087547" x2="281.8198051533946" y2="250.70710678118655" style="stroke:rgb(255,0,0);stroke-width:2" />
<line x1="139.0" y1="401.0" x2="272.0" y2="273.0" style="stroke:rgb(255,0,0);stroke-width:2" />
<line x1="64.73802332912453" y1="278.2842712474619" x2="249.29289321881345" y2="281.8198051533946" style="stroke:rgb(255,0,0);stroke-width:2" />
<line x1="99.0" y1="139.0" x2="227.0" y2="272.0" style="stroke:rgb(255,0,0);stroke-width:2" />
<line x1="221.71572875253807" y1="64.73802332912453" x2="218.18019484660536" y2="249.29289321881345" style="stroke:rgb(255,0,0);stroke-width:2" />
<line x1="361.0" y1="98.99999999999997" x2="228.0" y2="227.0" style="stroke:rgb(255,0,0);stroke-width:2" />
<line x1="435.26197667087547" y1="221.71572875253804" x2="250.70710678118655" y2="218.18019484660536" style="stroke:rgb(255,0,0);stroke-width:2" />
<line x1="258.0" y1="19.0" x2="384.0" y2="261.0" style="stroke:rgb(255,0,0);stroke-width:2" />
<line x1="418.99852070358486" y1="92.31518779539988" x2="336.97413408594537" y2="352.5304832720494" style="stroke:rgb(255,0,0);stroke-width:2" />
<line x1="481.0" y1="258.0" x2="239.0" y2="384.0" style="stroke:rgb(255,0,0);stroke-width:2" />
<line x1="407.6848122046001" y1="418.99852070358486" x2="147.4695167279506" y2="336.97413408594537" style="stroke:rgb(255,0,0);stroke-width:2" />
<line x1="242.00000000000003" y1="481.0" x2="116.0" y2="239.00000000000003" style="stroke:rgb(255,0,0);stroke-width:2" />
<line x1="81.00147929641517" y1="407.6848122046001" x2="163.02586591405463" y2="147.4695167279506" style="stroke:rgb(255,0,0);stroke-width:2" />
<line x1="19.0" y1="242.00000000000006" x2="261.0" y2="116.0" style="stroke:rgb(255,0,0);stroke-width:2" />
<line x1="92.31518779539985" y1="81.0014792964152" x2="352.53048327204937" y2="163.02586591405463" style="stroke:rgb(255,0,0);stroke-width:2" />
<line x1="309.0" y1="29.0" x2="467.0" y2="207.0" style="stroke:rgb(255,0,0);stroke-width:2" />
<line x1="447.9898987322333" y1="135.44870144777929" x2="433.84776310850236" y2="373.03657992645924" style="stroke:rgb(255,0,0);stroke-width:2" />
<line x1="471.0" y1="309.0" x2="293.0" y2="467.0" style="stroke:rgb(255,0,0);stroke-width:2" />
<line x1="364.5512985522207" y1="447.9898987322333" x2="126.96342007354075" y2="433.84776310850236" style="stroke:rgb(255,0,0);stroke-width:2" />
<line x1="191.00000000000003" y1="471.0" x2="33.0" y2="293.0" style="stroke:rgb(255,0,0);stroke-width:2" />
<line x1="52.010101267766686" y1="364.5512985522207" x2="66.15223689149761" y2="126.96342007354075" style="stroke:rgb(255,0,0);stroke-width:2" />
<line x1="29.0" y1="191.00000000000006" x2="206.99999999999994" y2="33.0" style="stroke:rgb(255,0,0);stroke-width:2" />
<line x1="135.44870144777926" y1="52.01010126776674" x2="373.03657992645924" y2="66.15223689149761" style="stroke:rgb(255,0,0);stroke-width:2" />
<line x1="283.0" y1="424.0" x2="289.0" y2="354.0" style="stroke:rgb(255,0,0);stroke-width:2" />
<line x1="150.29794385269682" y1="396.3711037056154" x2="204.0380592228744" y2="351.1162697096763" style="stroke:rgb(255,0,0);stroke-width:2" />
<line x1="76.0" y1="283.0" x2="146.0" y2="289.0" style="stroke:rgb(255,0,0);stroke-width:2" />
<line x1="103.62889629438465" y1="150.29794385269682" x2="148.88373029032368" y2="204.0380592228744" style="stroke:rgb(255,0,0);stroke-width:2" />
<line x1="216.99999999999997" y1="76.0" x2="211.0" y2="146.0" style="stroke:rgb(255,0,0);stroke-width:2" />
<line x1="349.7020561473032" y1="103.62889629438465" x2="295.96194077712556" y2="148.88373029032368" style="stroke:rgb(255,0,0);stroke-width:2" />
<line x1="424.0" y1="216.99999999999997" x2="354.0" y2="210.99999999999997" style="stroke:rgb(255,0,0);stroke-width:2" />
<line x1="396.3711037056154" y1="349.70205614730315" x2="351.1162697096763" y2="295.96194077712556" style="stroke:rgb(255,0,0);stroke-width:2" />
<line x1="446.0" y1="236.0" x2="312.0" y2="80.0" style="stroke:rgb(255,0,0);stroke-width:2" />
<line x1="398.492424049175" y1="378.69343417595167" x2="414.048773235279" y2="173.63246763185288" style="stroke:rgb(255,0,0);stroke-width:2" />
<line x1="264.0" y1="446.0" x2="420.0" y2="312.0" style="stroke:rgb(255,0,0);stroke-width:2" />
<line x1="121.30656582404836" y1="398.492424049175" x2="326.3675323681471" y2="414.048773235279" style="stroke:rgb(255,0,0);stroke-width:2" />
<line x1="54.0" y1="264.0" x2="188.00000000000003" y2="420.0" style="stroke:rgb(255,0,0);stroke-width:2" />
<line x1="101.50757595082499" y1="121.30656582404836" x2="85.95122676472096" y2="326.3675323681472" style="stroke:rgb(255,0,0);stroke-width:2" />
<line x1="235.99999999999997" y1="54.0" x2="80.0" y2="188.00000000000003" style="stroke:rgb(255,0,0);stroke-width:2" />
<line x1="378.6934341759516" y1="101.50757595082499" x2="173.63246763185282" y2="85.95122676472099" style="stroke:rgb(255,0,0);stroke-width:2" />
<line x1="325.0" y1="56.0" x2="295.0" y2="328.0" style="stroke:rgb(255,0,0);stroke-width:2" />
<line x1="440.2117241391813" y1="165.85429303880085" x2="226.66547622084394" y2="336.97413408594537" style="stroke:rgb(255,0,0);stroke-width:2" />
<line x1="444.0" y1="325.0" x2="172.0" y2="295.0" style="stroke:rgb(255,0,0);stroke-width:2" />
<line x1="334.14570696119915" y1="440.2117241391813" x2="163.02586591405463" y2="226.66547622084394" style="stroke:rgb(255,0,0);stroke-width:2" />
<line x1="175.00000000000003" y1="444.0" x2="205.0" y2="172.0" style="stroke:rgb(255,0,0);stroke-width:2" />
<line x1="59.788275860818715" y1="334.14570696119915" x2="273.33452377915603" y2="163.02586591405463" style="stroke:rgb(255,0,0);stroke-width:2" />
<line x1="56.0" y1="175.00000000000006" x2="328.0" y2="205.0" style="stroke:rgb(255,0,0);stroke-width:2" />
<line x1="165.8542930388008" y1="59.78827586081874" x2="336.97413408594537" y2="273.33452377915603" style="stroke:rgb(255,0,0);stroke-width:2" />
<line x1="496.0" y1="392.0" x2="498.0" y2="476.0" style="stroke:rgb(255,0,0);stroke-width:2" />
<line x1="323.53910524340097" y1="524.3574311003804" x2="265.55634918610406" y2="585.1686142824235" style="stroke:rgb(255,0,0);stroke-width:2" />
<line x1="108.00000000000003" y1="496.0" x2="24.00000000000003" y2="498.0" style="stroke:rgb(255,0,0);stroke-width:2" />
<line x1="-24.35743110038044" y1="323.53910524340097" x2="-85.1686142824235" y2="265.55634918610406" style="stroke:rgb(255,0,0);stroke-width:2" />
<line x1="3.9999999999999716" y1="108.00000000000003" x2="1.9999999999999716" y2="24.00000000000003" style="stroke:rgb(255,0,0);stroke-width:2" />
<line x1="176.460894756599" y1="-24.35743110038044" x2="234.44365081389589" y2="-85.16861428242356" style="stroke:rgb(255,0,0);stroke-width:2" />
<line x1="391.99999999999994" y1="3.9999999999999716" x2="475.99999999999994" y2="1.9999999999999716" style="stroke:rgb(255,0,0);stroke-width:2" />
<line x1="524.3574311003804" y1="176.46089475659898" x2="585.1686142824235" y2="234.44365081389586" style="stroke:rgb(255,0,0);stroke-width:2" />
<line x1="324.0" y1="260.0" x2="251.0" y2="491.0" style="stroke:rgb(255,0,0);stroke-width:2" />
<line x1="295.25483399593907" y1="309.39696961967" x2="80.29437251522862" y2="421.1198410471445" style="stroke:rgb(255,0,0);stroke-width:2" />
<line x1="240.0" y1="324.0" x2="9.0" y2="251.00000000000003" style="stroke:rgb(255,0,0);stroke-width:2" />
<line x1="190.60303038033" y1="295.25483399593907" x2="78.88015895285548" y2="80.29437251522862" style="stroke:rgb(255,0,0);stroke-width:2" />
<line x1="176.0" y1="240.0" x2="248.99999999999997" y2="9.0" style="stroke:rgb(255,0,0);stroke-width:2" />
<line x1="204.74516600406093" y1="190.60303038033" x2="419.7056274847714" y2="78.88015895285545" style="stroke:rgb(255,0,0);stroke-width:2" />
<line x1="260.0" y1="176.0" x2="491.0" y2="248.99999999999994" style="stroke:rgb(255,0,0);stroke-width:2" />
<line x1="309.39696961966996" y1="204.74516600406093" x2="421.1198410471445" y2="419.70562748477136" style="stroke:rgb(255,0,0);stroke-width:2" />
<line x1="343.0" y1="459.0" x2="306.0" y2="481.0" style="stroke:rgb(255,0,0);stroke-width:2" />
<line x1="167.9756133823605" y1="463.5462479183374" x2="126.2563132923542" y2="452.93964620053913" style="stroke:rgb(255,0,0);stroke-width:2" />
<line x1="41.0" y1="343.0" x2="19.0" y2="306.0" style="stroke:rgb(255,0,0);stroke-width:2" />
<line x1="36.45375208166266" y1="167.9756133823605" x2="47.06035379946087" y2="126.2563132923542" style="stroke:rgb(255,0,0);stroke-width:2" />
<line x1="156.99999999999997" y1="41.0" x2="193.99999999999997" y2="19.0" style="stroke:rgb(255,0,0);stroke-width:2" />
<line x1="332.0243866176395" y1="36.45375208166263" x2="373.7436867076458" y2="47.06035379946081" style="stroke:rgb(255,0,0);stroke-width:2" />
<line x1="459.0" y1="156.99999999999994" x2="481.0" y2="193.99999999999994" style="stroke:rgb(255,0,0);stroke-width:2" />
<line x1="463.5462479183374" y1="332.0243866176395" x2="452.9396462005392" y2="373.7436867076458" style="stroke:rgb(255,0,0);stroke-width:2" />
<line x1="308.0" y1="349.0" x2="491.0" y2="126.0" style="stroke:rgb(255,0,0);stroke-width:2" />
<line x1="221.00862197135154" y1="361.01576464628795" x2="508.0939751330899" y2="332.73149339882605" style="stroke:rgb(255,0,0);stroke-width:2" />
<line x1="151.0" y1="308.0" x2="374.0" y2="491.0" style="stroke:rgb(255,0,0);stroke-width:2" />
<line x1="138.98423535371202" y1="221.00862197135154" x2="167.26850660117395" y2="508.0939751330899" style="stroke:rgb(255,0,0);stroke-width:2" />
<line x1="192.0" y1="151.0" x2="9.000000000000028" y2="374.0" style="stroke:rgb(255,0,0);stroke-width:2" />
<line x1="278.99137802864846" y1="138.98423535371202" x2="-8.093975133089884" y2="167.26850660117398" style="stroke:rgb(255,0,0);stroke-width:2" />
<line x1="349.0" y1="191.99999999999997" x2="125.99999999999996" y2="9.000000000000028" style="stroke:rgb(255,0,0);stroke-width:2" />
<line x1="361.01576464628795" y1="278.9913780286484" x2="332.731493398826" y2="-8.093975133089884" style="stroke:rgb(255,0,0);stroke-width:2" />
<line x1="293.0" y1="62.0" x2="286.0" y2="499.0" style="stroke:rgb(255,0,0);stroke-width:2" />
<line x1="413.34166645409243" y1="147.46951672795058" x2="99.38625560726541" y2="451.5254326381661" style="stroke:rgb(255,0,0);stroke-width:2" />
<line x1="438.0" y1="293.0" x2="1.0" y2="286.0" style="stroke:rgb(255,0,0);stroke-width:2" />
<line x1="352.5304832720494" y1="413.34166645409243" x2="48.47456736183395" y2="99.38625560726541" style="stroke:rgb(255,0,0);stroke-width:2" />
<line x1="207.00000000000003" y1="438.0" x2="213.99999999999997" y2="1.0" style="stroke:rgb(255,0,0);stroke-width:2" />
<line x1="86.65833354590751" y1="352.5304832720494" x2="400.6137443927346" y2="48.47456736183392" style="stroke:rgb(255,0,0);stroke-width:2" />
<line x1="62.0" y1="207.00000000000003" x2="499.0" y2="213.99999999999994" style="stroke:rgb(255,0,0);stroke-width:2" />
<line x1="147.46951672795058" y1="86.65833354590754" x2="451.5254326381661" y2="400.6137443927346" style="stroke:rgb(255,0,0);stroke-width:2" />
<line x1="449.0" y1="493.0" x2="499.0" y2="189.0" style="stroke:rgb(255,0,0);stroke-width:2" />
<line x1="218.8873016277919" y1="562.541197284454" x2="469.20310216782974" y2="382.93607486307087" style="stroke:rgb(255,0,0);stroke-width:2" />
<line x1="7.0" y1="449.0" x2="311.0" y2="499.0" style="stroke:rgb(255,0,0);stroke-width:2" />
<line x1="-62.54119728445403" y1="218.8873016277919" x2="117.0639251369291" y2="469.20310216782974" style="stroke:rgb(255,0,0);stroke-width:2" />
<line x1="50.99999999999997" y1="7.000000000000028" x2="1.0" y2="311.0" style="stroke:rgb(255,0,0);stroke-width:2" />
<line x1="281.11269837220806" y1="-62.54119728445403" x2="30.79689783217026" y2="117.0639251369291" style="stroke:rgb(255,0,0);stroke-width:2" />
<line x1="493.0" y1="50.99999999999994" x2="188.99999999999994" y2="1.0" style="stroke:rgb(255,0,0);stroke-width:2" />
<line x1="562.541197284454" y1="281.112698372208" x2="382.93607486307087" y2="30.79689783217026" style="stroke:rgb(255,0,0);stroke-width:2" />
<line x1="461.0" y1="432.0" x2="381.0" y2="11.0" style="stroke:rgb(255,0,0);stroke-width:2" />
<line x1="270.50609665440993" y1="527.8929650063131" x2="511.62950903902254" y2="173.63246763185288" style="stroke:rgb(255,0,0);stroke-width:2" />
<line x1="68.0" y1="461.0" x2="489.0" y2="381.0" style="stroke:rgb(255,0,0);stroke-width:2" />
<line x1="-27.892965006313148" y1="270.50609665440993" x2="326.3675323681471" y2="511.62950903902254" style="stroke:rgb(255,0,0);stroke-width:2" />
<line x1="38.99999999999997" y1="68.00000000000003" x2="119.00000000000003" y2="489.0" style="stroke:rgb(255,0,0);stroke-width:2" />
<line x1="229.49390334559007" y1="-27.892965006313148" x2="-11.629509039022594" y2="326.3675323681472" style="stroke:rgb(255,0,0);stroke-width:2" />
<line x1="432.0" y1="38.99999999999997" x2="10.999999999999972" y2="119.00000000000006" style="stroke:rgb(255,0,0);stroke-width:2" />
<line x1="527.8929650063131" y1="229.49390334559004" x2="173.63246763185282" y2="-11.629509039022594" style="stroke:rgb(255,0,0);stroke-width:2" />
<line x1="371.0" y1="146.0" x2="252.0" y2="224.0" style="stroke:rgb(255,0,0);stroke-width:2" />
<line x1="409.0990257669732" y1="262.0208152801713" x2="269.7989898732233" y2="233.02943725152286" style="stroke:rgb(255,0,0);stroke-width:2" />
<line x1="354.0" y1="371.0" x2="276.0" y2="252.0" style="stroke:rgb(255,0,0);stroke-width:2" />
<line x1="237.9791847198287" y1="409.0990257669732" x2="266.97056274847716" y2="269.7989898732233" style="stroke:rgb(255,0,0);stroke-width:2" />
<line x1="129.0" y1="354.0" x2="248.0" y2="276.0" style="stroke:rgb(255,0,0);stroke-width:2" />
<line x1="90.90097423302677" y1="237.9791847198287" x2="230.20101012677668" y2="266.97056274847716" style="stroke:rgb(255,0,0);stroke-width:2" />
<line x1="145.99999999999997" y1="129.0" x2="224.0" y2="248.0" style="stroke:rgb(255,0,0);stroke-width:2" />
<line x1="262.0208152801713" y1="90.9009742330268" x2="233.02943725152286" y2="230.20101012677668" style="stroke:rgb(255,0,0);stroke-width:2" />
<line x1="156.0" y1="323.0" x2="167.0" y2="412.0" style="stroke:rgb(255,0,0);stroke-width:2" />
<line x1="131.91316754184655" y1="235.1507575950825" x2="76.75883860929588" y2="305.86143571373725" style="stroke:rgb(255,0,0);stroke-width:2" />
<line x1="177.0" y1="156.0" x2="88.0" y2="167.0" style="stroke:rgb(255,0,0);stroke-width:2" />
<line x1="264.8492424049175" y1="131.91316754184655" x2="194.13856428626275" y2="76.75883860929588" style="stroke:rgb(255,0,0);stroke-width:2" />
<line x1="344.0" y1="177.0" x2="333.0" y2="88.0" style="stroke:rgb(255,0,0);stroke-width:2" />
<line x1="368.0868324581535" y1="264.8492424049175" x2="423.2411613907042" y2="194.13856428626272" style="stroke:rgb(255,0,0);stroke-width:2" />
<line x1="323.0" y1="344.0" x2="412.0" y2="333.0" style="stroke:rgb(255,0,0);stroke-width:2" />
<line x1="235.15075759508252" y1="368.0868324581534" x2="305.8614357137373" y2="423.2411613907041" style="stroke:rgb(255,0,0);stroke-width:2" />
<line x1="99.0" y1="361.0" x2="227.0" y2="228.0" style="stroke:rgb(255,0,0);stroke-width:2" />
<line x1="64.73802332912453" y1="221.7157287525381" x2="249.29289321881345" y2="218.18019484660536" style="stroke:rgb(255,0,0);stroke-width:2" />
<line x1="139.0" y1="99.0" x2="272.0" y2="227.0" style="stroke:rgb(255,0,0);stroke-width:2" />
<line x1="278.2842712474619" y1="64.73802332912453" x2="281.81980515339467" y2="249.29289321881345" style="stroke:rgb(255,0,0);stroke-width:2" />
<line x1="401.0" y1="139.0" x2="273.0" y2="272.0" style="stroke:rgb(255,0,0);stroke-width:2" />
<line x1="435.26197667087547" y1="278.2842712474619" x2="250.70710678118655" y2="281.81980515339467" style="stroke:rgb(255,0,0);stroke-width:2" />
<line x1="361.0" y1="401.0" x2="228.0" y2="273.0" style="stroke:rgb(255,0,0);stroke-width:2" />
<line x1="221.71572875253815" y1="435.26197667087547" x2="218.18019484660536" y2="250.70710678118655" style="stroke:rgb(255,0,0);stroke-width:2" />
<line x1="242.0" y1="19.0" x2="116.0" y2="261.0" style="stroke:rgb(255,0,0);stroke-width:2" />
<line x1="407.6848122046001" y1="81.00147929641514" x2="147.4695167279506" y2="163.02586591405466" style="stroke:rgb(255,0,0);stroke-width:2" />
<line x1="481.0" y1="242.0" x2="239.0" y2="116.0" style="stroke:rgb(255,0,0);stroke-width:2" />
<line x1="418.99852070358486" y1="407.6848122046001" x2="336.97413408594537" y2="147.4695167279506" style="stroke:rgb(255,0,0);stroke-width:2" />
<line x1="258.0" y1="481.0" x2="384.0" y2="238.99999999999997" style="stroke:rgb(255,0,0);stroke-width:2" />
<line x1="92.31518779539991" y1="418.99852070358486" x2="352.5304832720494" y2="336.97413408594537" style="stroke:rgb(255,0,0);stroke-width:2" />
<line x1="19.0" y1="258.00000000000006" x2="261.0" y2="384.0" style="stroke:rgb(255,0,0);stroke-width:2" />
<line x1="81.00147929641511" y1="92.31518779539994" x2="163.0258659140547" y2="352.5304832720494" style="stroke:rgb(255,0,0);stroke-width:2" />
<line x1="191.0" y1="29.0" x2="33.0" y2="207.0" style="stroke:rgb(255,0,0);stroke-width:2" />
<line x1="364.5512985522207" y1="52.010101267766686" x2="126.9634200735407" y2="66.15223689149767" style="stroke:rgb(255,0,0);stroke-width:2" />
<line x1="471.0" y1="191.0" x2="293.0" y2="33.0" style="stroke:rgb(255,0,0);stroke-width:2" />
<line x1="447.9898987322333" y1="364.5512985522207" x2="433.84776310850236" y2="126.9634200735407" style="stroke:rgb(255,0,0);stroke-width:2" />
<line x1="309.0" y1="471.0" x2="467.0" y2="293.0" style="stroke:rgb(255,0,0);stroke-width:2" />
<line x1="135.44870144777934" y1="447.9898987322333" x2="373.03657992645935" y2="433.84776310850236" style="stroke:rgb(255,0,0);stroke-width:2" />
<line x1="29.0" y1="309.00000000000006" x2="207.00000000000006" y2="467.0" style="stroke:rgb(255,0,0);stroke-width:2" />
<line x1="52.01010126776666" y1="135.44870144777934" x2="66.15223689149767" y2="373.03657992645935" style="stroke:rgb(255,0,0);stroke-width:2" />
<line x1="217.0" y1="424.0" x2="211.0" y2="354.0" style="stroke:rgb(255,0,0);stroke-width:2" />
<line x1="103.62889629438467" y1="349.7020561473032" x2="148.8837302903237" y2="295.9619407771256" style="stroke:rgb(255,0,0);stroke-width:2" />
<line x1="76.0" y1="217.0" x2="146.0" y2="211.0" style="stroke:rgb(255,0,0);stroke-width:2" />
<line x1="150.2979438526968" y1="103.62889629438467" x2="204.03805922287438" y2="148.8837302903237" style="stroke:rgb(255,0,0);stroke-width:2" />
<line x1="283.0" y1="76.0" x2="289.0" y2="146.0" style="stroke:rgb(255,0,0);stroke-width:2" />
<line x1="396.3711037056153" y1="150.29794385269676" x2="351.1162697096763" y2="204.03805922287438" style="stroke:rgb(255,0,0);stroke-width:2" />
<line x1="424.0" y1="283.0" x2="354.0" y2="289.0" style="stroke:rgb(255,0,0);stroke-width:2" />
<line x1="349.7020561473032" y1="396.3711037056153" x2="295.9619407771256" y2="351.1162697096763" style="stroke:rgb(255,0,0);stroke-width:2" />
<line x1="54.0" y1="236.0" x2="188.0" y2="80.0" style="stroke:rgb(255,0,0);stroke-width:2" />
<line x1="121.30656582404833" y1="101.50757595082504" x2="326.3675323681471" y2="85.95122676472096" style="stroke:rgb(255,0,0);stroke-width:2" />
<line x1="264.0" y1="54.0" x2="420.0" y2="188.0" style="stroke:rgb(255,0,0);stroke-width:2" />
<line x1="398.49242404917493" y1="121.30656582404833" x2="414.04877323527904" y2="326.3675323681471" style="stroke:rgb(255,0,0);stroke-width:2" />
<line x1="446.0" y1="264.0" x2="312.0" y2="420.0" style="stroke:rgb(255,0,0);stroke-width:2" />
<line x1="378.69343417595167" y1="398.49242404917493" x2="173.63246763185288" y2="414.04877323527904" style="stroke:rgb(255,0,0);stroke-width:2" />
<line x1="236.00000000000003" y1="446.0" x2="80.0" y2="312.0" style="stroke:rgb(255,0,0);stroke-width:2" />
<line x1="101.50757595082507" y1="378.69343417595167" x2="85.95122676472096" y2="173.6324676318529" style="stroke:rgb(255,0,0);stroke-width:2" />
<line x1="175.0" y1="56.0" x2="205.0" y2="328.0" style="stroke:rgb(255,0,0);stroke-width:2" />
<line x1="334.14570696119915" y1="59.788275860818715" x2="163.02586591405466" y2="273.3345237791561" style="stroke:rgb(255,0,0);stroke-width:2" />
<line x1="444.0" y1="175.0" x2="172.0" y2="205.0" style="stroke:rgb(255,0,0);stroke-width:2" />
<line x1="440.2117241391813" y1="334.14570696119915" x2="226.6654762208439" y2="163.02586591405466" style="stroke:rgb(255,0,0);stroke-width:2" />
<line x1="325.0" y1="444.0" x2="295.0" y2="172.0" style="stroke:rgb(255,0,0);stroke-width:2" />
<line x1="165.85429303880085" y1="440.21172413918134" x2="336.97413408594537" y2="226.6654762208439" style="stroke:rgb(255,0,0);stroke-width:2" />
<line x1="56.0" y1="325.00000000000006" x2="328.0" y2="295.0" style="stroke:rgb(255,0,0);stroke-width:2" />
<line x1="59.788275860818715" y1="165.85429303880088" x2="273.3345237791561" y2="336.97413408594537" style="stroke:rgb(255,0,0);stroke-width:2" />
<line x1="4.0" y1="392.0" x2="2.0" y2="476.0" style="stroke:rgb(255,0,0);stroke-width:2" />
<line x1="-24.35743110038044" y1="176.4608947565991" x2="-85.1686142824235" y2="234.44365081389597" style="stroke:rgb(255,0,0);stroke-width:2" />
<line x1="107.99999999999997" y1="4.0" x2="23.99999999999997" y2="2.0" style="stroke:rgb(255,0,0);stroke-width:2" />
<line x1="323.5391052434009" y1="-24.35743110038044" x2="265.55634918610406" y2="-85.1686142824235" style="stroke:rgb(255,0,0);stroke-width:2" />
<line x1="496.0" y1="107.99999999999997" x2="498.0" y2="23.99999999999997" style="stroke:rgb(255,0,0);stroke-width:2" />
<line x1="524.3574311003805" y1="323.5391052434009" x2="585.1686142824235" y2="265.556349186104" style="stroke:rgb(255,0,0);stroke-width:2" />
<line x1="392.00000000000006" y1="496.0" x2="476.00000000000006" y2="498.0" style="stroke:rgb(255,0,0);stroke-width:2" />
<line x1="176.46089475659915" y1="524.3574311003804" x2="234.44365081389603" y2="585.1686142824235" style="stroke:rgb(255,0,0);stroke-width:2" />
<line x1="176.0" y1="260.0" x2="249.0" y2="491.0" style="stroke:rgb(255,0,0);stroke-width:2" />
<line x1="190.60303038033" y1="204.74516600406096" x2="78.88015895285551" y2="419.7056274847714" style="stroke:rgb(255,0,0);stroke-width:2" />
<line x1="240.0" y1="176.0" x2="9.0" y2="249.00000000000003" style="stroke:rgb(255,0,0);stroke-width:2" />
<line x1="295.25483399593907" y1="190.60303038033" x2="80.29437251522859" y2="78.88015895285551" style="stroke:rgb(255,0,0);stroke-width:2" />
<line x1="324.0" y1="240.0" x2="250.99999999999997" y2="9.0" style="stroke:rgb(255,0,0);stroke-width:2" />
<line x1="309.39696961967" y1="295.25483399593907" x2="421.1198410471445" y2="80.29437251522856" style="stroke:rgb(255,0,0);stroke-width:2" />
<line x1="260.0" y1="324.0" x2="491.0" y2="250.99999999999994" style="stroke:rgb(255,0,0);stroke-width:2" />
<line x1="204.74516600406096" y1="309.39696961967" x2="419.7056274847714" y2="421.11984104714446" style="stroke:rgb(255,0,0);stroke-width:2" />
<line x1="157.0" y1="459.0" x2="194.0" y2="481.0" style="stroke:rgb(255,0,0);stroke-width:2" />
<line x1="36.45375208166263" y1="332.0243866176395" x2="47.06035379946087" y2="373.74368670764585" style="stroke:rgb(255,0,0);stroke-width:2" />
<line x1="41.0" y1="157.0" x2="19.0" y2="194.0" style="stroke:rgb(255,0,0);stroke-width:2" />
<line x1="167.97561338236048" y1="36.45375208166263" x2="126.25631329235416" y2="47.06035379946087" style="stroke:rgb(255,0,0);stroke-width:2" />
<line x1="343.0" y1="41.0" x2="306.0" y2="19.0" style="stroke:rgb(255,0,0);stroke-width:2" />
<line x1="463.5462479183374" y1="167.97561338236045" x2="452.93964620053913" y2="126.25631329235414" style="stroke:rgb(255,0,0);stroke-width:2" />
<line x1="459.0" y1="342.99999999999994" x2="481.0" y2="305.99999999999994" style="stroke:rgb(255,0,0);stroke-width:2" />
<line x1="332.02438661763955" y1="463.5462479183374" x2="373.74368670764585" y2="452.9396462005391" style="stroke:rgb(255,0,0);stroke-width:2" />
<line x1="192.0" y1="349.0" x2="9.0" y2="126.0" style="stroke:rgb(255,0,0);stroke-width:2" />
<line x1="138.98423535371205" y1="278.99137802864846" x2="167.26850660117393" y2="-8.093975133089828" style="stroke:rgb(255,0,0);stroke-width:2" />
<line x1="151.0" y1="192.0" x2="374.0" y2="9.0" style="stroke:rgb(255,0,0);stroke-width:2" />
<line x1="221.00862197135154" y1="138.98423535371205" x2="508.0939751330898" y2="167.26850660117393" style="stroke:rgb(255,0,0);stroke-width:2" />
<line x1="308.0" y1="151.0" x2="491.0" y2="374.0" style="stroke:rgb(255,0,0);stroke-width:2" />
<line x1="361.01576464628795" y1="221.00862197135154" x2="332.7314933988261" y2="508.0939751330899" style="stroke:rgb(255,0,0);stroke-width:2" />
<line x1="349.0" y1="308.0" x2="126.00000000000004" y2="491.0" style="stroke:rgb(255,0,0);stroke-width:2" />
<line x1="278.99137802864846" y1="361.01576464628795" x2="-8.093975133089828" y2="332.7314933988261" style="stroke:rgb(255,0,0);stroke-width:2" />
<line x1="207.0" y1="62.0" x2="214.0" y2="499.0" style="stroke:rgb(255,0,0);stroke-width:2" />
<line x1="352.53048327204937" y1="86.65833354590751" x2="48.47456736183398" y2="400.6137443927346" style="stroke:rgb(255,0,0);stroke-width:2" />
<line x1="438.0" y1="207.0" x2="1.0" y2="214.0" style="stroke:rgb(255,0,0);stroke-width:2" />
<line x1="413.3416664540925" y1="352.53048327204937" x2="99.38625560726538" y2="48.47456736183398" style="stroke:rgb(255,0,0);stroke-width:2" />
<line x1="293.0" y1="438.0" x2="286.0" y2="1.0" style="stroke:rgb(255,0,0);stroke-width:2" />
<line x1="147.46951672795063" y1="413.3416664540925" x2="451.525432638166" y2="99.38625560726535" style="stroke:rgb(255,0,0);stroke-width:2" />
<line x1="62.0" y1="293.00000000000006" x2="499.0" y2="285.99999999999994" style="stroke:rgb(255,0,0);stroke-width:2" />
<line x1="86.65833354590751" y1="147.46951672795063" x2="400.61374439273465" y2="451.52543263816597" style="stroke:rgb(255,0,0);stroke-width:2" />
<line x1="51.0" y1="493.0" x2="1.0" y2="189.0" style="stroke:rgb(255,0,0);stroke-width:2" />
<line x1="-62.54119728445403" y1="281.1126983722081" x2="117.06392513692907" y2="30.796897832170288" style="stroke:rgb(255,0,0);stroke-width:2" />
<line x1="7.0" y1="51.00000000000003" x2="311.0" y2="1.0" style="stroke:rgb(255,0,0);stroke-width:2" />
<line x1="218.88730162779189" y1="-62.54119728445403" x2="469.2031021678297" y2="117.06392513692907" style="stroke:rgb(255,0,0);stroke-width:2" />
<line x1="449.0" y1="6.999999999999972" x2="499.0" y2="311.0" style="stroke:rgb(255,0,0);stroke-width:2" />
<line x1="562.541197284454" y1="218.88730162779186" x2="382.936074863071" y2="469.2031021678297" style="stroke:rgb(255,0,0);stroke-width:2" />
<line x1="493.0" y1="448.99999999999994" x2="189.00000000000006" y2="499.0" style="stroke:rgb(255,0,0);stroke-width:2" />
<line x1="281.1126983722082" y1="562.541197284454" x2="30.796897832170316" y2="382.936074863071" style="stroke:rgb(255,0,0);stroke-width:2" />
<line x1="39.0" y1="432.0" x2="119.0" y2="11.0" style="stroke:rgb(255,0,0);stroke-width:2" />
<line x1="-27.892965006313148" y1="229.49390334559016" x2="326.36753236814707" y2="-11.629509039022594" style="stroke:rgb(255,0,0);stroke-width:2" />
<line x1="68.0" y1="39.0" x2="489.0" y2="118.99999999999997" style="stroke:rgb(255,0,0);stroke-width:2" />
<line x1="270.5060966544098" y1="-27.892965006313148" x2="511.6295090390226" y2="326.36753236814707" style="stroke:rgb(255,0,0);stroke-width:2" />
<line x1="461.0" y1="67.99999999999997" x2="381.0" y2="489.0" style="stroke:rgb(255,0,0);stroke-width:2" />
<line x1="527.8929650063133" y1="270.5060966544098" x2="173.63246763185293" y2="511.6295090390226" style="stroke:rgb(255,0,0);stroke-width:2" />
<line x1="432.0" y1="461.0" x2="11.000000000000028" y2="381.00000000000006" style="stroke:rgb(255,0,0);stroke-width:2" />
<line x1="229.49390334559018" y1="527.8929650063131" x2="-11.629509039022594" y2="173.63246763185293" style="stroke:rgb(255,0,0);stroke-width:2" />
<line x1="129.0" y1="146.0" x2="248.0" y2="224.0" style="stroke:rgb(255,0,0);stroke-width:2" />
<line x1="237.97918471982868" y1="90.9009742330268" x2="266.97056274847716" y2="230.20101012677668" style="stroke:rgb(255,0,0);stroke-width:2" />
<line x1="354.0" y1="129.0" x2="276.0" y2="248.0" style="stroke:rgb(255,0,0);stroke-width:2" />
<line x1="409.0990257669732" y1="237.97918471982868" x2="269.7989898732233" y2="266.97056274847716" style="stroke:rgb(255,0,0);stroke-width:2" />
<line x1="371.0" y1="354.0" x2="252.0" y2="276.0" style="stroke:rgb(255,0,0);stroke-width:2" />
<line x1="262.02081528017135" y1="409.0990257669732" x2="233.02943725152286" y2="269.7989898732233" style="stroke:rgb(255,0,0);stroke-width:2" />
<line x1="146.00000000000003" y1="371.0" x2="224.0" y2="252.0" style="stroke:rgb(255,0,0);stroke-width:2" />
<line x1="90.90097423302683" y1="262.02081528017135" x2="230.20101012677668" y2="233.02943725152286" style="stroke:rgb(255,0,0);stroke-width:2" />
 <rect x="0" y="0" width="500" height="125.0" style="fill:white" /> <rect x="0" y="125.0" width="125.0" height="375.0" style="fill:white" /> <rect x="375.0" y="125.0" width="125.0" height="375.0" style="fill:white" /> <rect x="125.0" y="375.0" width="250" height="125.0" style="fill:white" /></svg>
